%TF.GenerationSoftware,KiCad,Pcbnew,7.0.7*%
%TF.CreationDate,2024-02-11T13:34:09-07:00*%
%TF.ProjectId,TunerVCO,54756e65-7256-4434-9f2e-6b696361645f,rev?*%
%TF.SameCoordinates,Original*%
%TF.FileFunction,Legend,Bot*%
%TF.FilePolarity,Positive*%
%FSLAX46Y46*%
G04 Gerber Fmt 4.6, Leading zero omitted, Abs format (unit mm)*
G04 Created by KiCad (PCBNEW 7.0.7) date 2024-02-11 13:34:09*
%MOMM*%
%LPD*%
G01*
G04 APERTURE LIST*
%ADD10C,0.150000*%
%ADD11C,0.100000*%
%ADD12C,0.120000*%
G04 APERTURE END LIST*
D10*
X65382219Y44237438D02*
X65382219Y44808866D01*
X65382219Y44523152D02*
X64382219Y44523152D01*
X64382219Y44523152D02*
X64525076Y44618390D01*
X64525076Y44618390D02*
X64620314Y44713628D01*
X64620314Y44713628D02*
X64667933Y44808866D01*
X65382219Y43808866D02*
X64382219Y43808866D01*
X65001266Y43713628D02*
X65382219Y43427914D01*
X64715552Y43427914D02*
X65096504Y43808866D01*
X64810790Y42856485D02*
X64763171Y42951723D01*
X64763171Y42951723D02*
X64715552Y42999342D01*
X64715552Y42999342D02*
X64620314Y43046961D01*
X64620314Y43046961D02*
X64572695Y43046961D01*
X64572695Y43046961D02*
X64477457Y42999342D01*
X64477457Y42999342D02*
X64429838Y42951723D01*
X64429838Y42951723D02*
X64382219Y42856485D01*
X64382219Y42856485D02*
X64382219Y42666009D01*
X64382219Y42666009D02*
X64429838Y42570771D01*
X64429838Y42570771D02*
X64477457Y42523152D01*
X64477457Y42523152D02*
X64572695Y42475533D01*
X64572695Y42475533D02*
X64620314Y42475533D01*
X64620314Y42475533D02*
X64715552Y42523152D01*
X64715552Y42523152D02*
X64763171Y42570771D01*
X64763171Y42570771D02*
X64810790Y42666009D01*
X64810790Y42666009D02*
X64810790Y42856485D01*
X64810790Y42856485D02*
X64858409Y42951723D01*
X64858409Y42951723D02*
X64906028Y42999342D01*
X64906028Y42999342D02*
X65001266Y43046961D01*
X65001266Y43046961D02*
X65191742Y43046961D01*
X65191742Y43046961D02*
X65286980Y42999342D01*
X65286980Y42999342D02*
X65334600Y42951723D01*
X65334600Y42951723D02*
X65382219Y42856485D01*
X65382219Y42856485D02*
X65382219Y42666009D01*
X65382219Y42666009D02*
X65334600Y42570771D01*
X65334600Y42570771D02*
X65286980Y42523152D01*
X65286980Y42523152D02*
X65191742Y42475533D01*
X65191742Y42475533D02*
X65001266Y42475533D01*
X65001266Y42475533D02*
X64906028Y42523152D01*
X64906028Y42523152D02*
X64858409Y42570771D01*
X64858409Y42570771D02*
X64810790Y42666009D01*
X67941352Y44404104D02*
X68608019Y44404104D01*
X67560400Y44642199D02*
X68274685Y44880294D01*
X68274685Y44880294D02*
X68274685Y44261247D01*
X67608019Y43975532D02*
X67608019Y43308866D01*
X67608019Y43308866D02*
X68608019Y43737437D01*
X67608019Y42737437D02*
X67608019Y42642199D01*
X67608019Y42642199D02*
X67655638Y42546961D01*
X67655638Y42546961D02*
X67703257Y42499342D01*
X67703257Y42499342D02*
X67798495Y42451723D01*
X67798495Y42451723D02*
X67988971Y42404104D01*
X67988971Y42404104D02*
X68227066Y42404104D01*
X68227066Y42404104D02*
X68417542Y42451723D01*
X68417542Y42451723D02*
X68512780Y42499342D01*
X68512780Y42499342D02*
X68560400Y42546961D01*
X68560400Y42546961D02*
X68608019Y42642199D01*
X68608019Y42642199D02*
X68608019Y42737437D01*
X68608019Y42737437D02*
X68560400Y42832675D01*
X68560400Y42832675D02*
X68512780Y42880294D01*
X68512780Y42880294D02*
X68417542Y42927913D01*
X68417542Y42927913D02*
X68227066Y42975532D01*
X68227066Y42975532D02*
X67988971Y42975532D01*
X67988971Y42975532D02*
X67798495Y42927913D01*
X67798495Y42927913D02*
X67703257Y42880294D01*
X67703257Y42880294D02*
X67655638Y42832675D01*
X67655638Y42832675D02*
X67608019Y42737437D01*
X25270619Y52284238D02*
X25270619Y52855666D01*
X25270619Y52569952D02*
X24270619Y52569952D01*
X24270619Y52569952D02*
X24413476Y52665190D01*
X24413476Y52665190D02*
X24508714Y52760428D01*
X24508714Y52760428D02*
X24556333Y52855666D01*
X24365857Y51903285D02*
X24318238Y51855666D01*
X24318238Y51855666D02*
X24270619Y51760428D01*
X24270619Y51760428D02*
X24270619Y51522333D01*
X24270619Y51522333D02*
X24318238Y51427095D01*
X24318238Y51427095D02*
X24365857Y51379476D01*
X24365857Y51379476D02*
X24461095Y51331857D01*
X24461095Y51331857D02*
X24556333Y51331857D01*
X24556333Y51331857D02*
X24699190Y51379476D01*
X24699190Y51379476D02*
X25270619Y51950904D01*
X25270619Y51950904D02*
X25270619Y51331857D01*
X25270619Y50903285D02*
X24270619Y50903285D01*
X24889666Y50808047D02*
X25270619Y50522333D01*
X24603952Y50522333D02*
X24984904Y50903285D01*
X60201266Y24559542D02*
X60153647Y24607161D01*
X60153647Y24607161D02*
X60058409Y24654780D01*
X60058409Y24654780D02*
X59820314Y24654780D01*
X59820314Y24654780D02*
X59725076Y24607161D01*
X59725076Y24607161D02*
X59677457Y24559542D01*
X59677457Y24559542D02*
X59629838Y24464304D01*
X59629838Y24464304D02*
X59629838Y24369066D01*
X59629838Y24369066D02*
X59677457Y24226209D01*
X59677457Y24226209D02*
X60248885Y23654780D01*
X60248885Y23654780D02*
X59629838Y23654780D01*
X58772695Y24321447D02*
X58772695Y23654780D01*
X59010790Y24702400D02*
X59248885Y23988114D01*
X59248885Y23988114D02*
X58629838Y23988114D01*
X58248885Y23654780D02*
X58248885Y24654780D01*
X58153647Y24035733D02*
X57867933Y23654780D01*
X57867933Y24321447D02*
X58248885Y23940495D01*
X90243056Y37437342D02*
X90195437Y37484961D01*
X90195437Y37484961D02*
X90100199Y37532580D01*
X90100199Y37532580D02*
X89862104Y37532580D01*
X89862104Y37532580D02*
X89766866Y37484961D01*
X89766866Y37484961D02*
X89719247Y37437342D01*
X89719247Y37437342D02*
X89671628Y37342104D01*
X89671628Y37342104D02*
X89671628Y37246866D01*
X89671628Y37246866D02*
X89719247Y37104009D01*
X89719247Y37104009D02*
X90290675Y36532580D01*
X90290675Y36532580D02*
X89671628Y36532580D01*
X89290675Y37437342D02*
X89243056Y37484961D01*
X89243056Y37484961D02*
X89147818Y37532580D01*
X89147818Y37532580D02*
X88909723Y37532580D01*
X88909723Y37532580D02*
X88814485Y37484961D01*
X88814485Y37484961D02*
X88766866Y37437342D01*
X88766866Y37437342D02*
X88719247Y37342104D01*
X88719247Y37342104D02*
X88719247Y37246866D01*
X88719247Y37246866D02*
X88766866Y37104009D01*
X88766866Y37104009D02*
X89338294Y36532580D01*
X89338294Y36532580D02*
X88719247Y36532580D01*
X88100199Y37532580D02*
X88004961Y37532580D01*
X88004961Y37532580D02*
X87909723Y37484961D01*
X87909723Y37484961D02*
X87862104Y37437342D01*
X87862104Y37437342D02*
X87814485Y37342104D01*
X87814485Y37342104D02*
X87766866Y37151628D01*
X87766866Y37151628D02*
X87766866Y36913533D01*
X87766866Y36913533D02*
X87814485Y36723057D01*
X87814485Y36723057D02*
X87862104Y36627819D01*
X87862104Y36627819D02*
X87909723Y36580200D01*
X87909723Y36580200D02*
X88004961Y36532580D01*
X88004961Y36532580D02*
X88100199Y36532580D01*
X88100199Y36532580D02*
X88195437Y36580200D01*
X88195437Y36580200D02*
X88243056Y36627819D01*
X88243056Y36627819D02*
X88290675Y36723057D01*
X88290675Y36723057D02*
X88338294Y36913533D01*
X88338294Y36913533D02*
X88338294Y37151628D01*
X88338294Y37151628D02*
X88290675Y37342104D01*
X88290675Y37342104D02*
X88243056Y37437342D01*
X88243056Y37437342D02*
X88195437Y37484961D01*
X88195437Y37484961D02*
X88100199Y37532580D01*
X87338294Y36532580D02*
X87338294Y37532580D01*
X87243056Y36913533D02*
X86957342Y36532580D01*
X86957342Y37199247D02*
X87338294Y36818295D01*
X3868057Y98118466D02*
X3820438Y98070847D01*
X3820438Y98070847D02*
X3772819Y97975609D01*
X3772819Y97975609D02*
X3772819Y97737514D01*
X3772819Y97737514D02*
X3820438Y97642276D01*
X3820438Y97642276D02*
X3868057Y97594657D01*
X3868057Y97594657D02*
X3963295Y97547038D01*
X3963295Y97547038D02*
X4058533Y97547038D01*
X4058533Y97547038D02*
X4201390Y97594657D01*
X4201390Y97594657D02*
X4772819Y98166085D01*
X4772819Y98166085D02*
X4772819Y97547038D01*
X4772819Y97118466D02*
X3772819Y97118466D01*
X4391866Y97023228D02*
X4772819Y96737514D01*
X4106152Y96737514D02*
X4487104Y97118466D01*
X3868057Y96356561D02*
X3820438Y96308942D01*
X3820438Y96308942D02*
X3772819Y96213704D01*
X3772819Y96213704D02*
X3772819Y95975609D01*
X3772819Y95975609D02*
X3820438Y95880371D01*
X3820438Y95880371D02*
X3868057Y95832752D01*
X3868057Y95832752D02*
X3963295Y95785133D01*
X3963295Y95785133D02*
X4058533Y95785133D01*
X4058533Y95785133D02*
X4201390Y95832752D01*
X4201390Y95832752D02*
X4772819Y96404180D01*
X4772819Y96404180D02*
X4772819Y95785133D01*
X49546038Y79991980D02*
X50117466Y79991980D01*
X49831752Y79991980D02*
X49831752Y80991980D01*
X49831752Y80991980D02*
X49926990Y80849123D01*
X49926990Y80849123D02*
X50022228Y80753885D01*
X50022228Y80753885D02*
X50117466Y80706266D01*
X48926990Y80991980D02*
X48831752Y80991980D01*
X48831752Y80991980D02*
X48736514Y80944361D01*
X48736514Y80944361D02*
X48688895Y80896742D01*
X48688895Y80896742D02*
X48641276Y80801504D01*
X48641276Y80801504D02*
X48593657Y80611028D01*
X48593657Y80611028D02*
X48593657Y80372933D01*
X48593657Y80372933D02*
X48641276Y80182457D01*
X48641276Y80182457D02*
X48688895Y80087219D01*
X48688895Y80087219D02*
X48736514Y80039600D01*
X48736514Y80039600D02*
X48831752Y79991980D01*
X48831752Y79991980D02*
X48926990Y79991980D01*
X48926990Y79991980D02*
X49022228Y80039600D01*
X49022228Y80039600D02*
X49069847Y80087219D01*
X49069847Y80087219D02*
X49117466Y80182457D01*
X49117466Y80182457D02*
X49165085Y80372933D01*
X49165085Y80372933D02*
X49165085Y80611028D01*
X49165085Y80611028D02*
X49117466Y80801504D01*
X49117466Y80801504D02*
X49069847Y80896742D01*
X49069847Y80896742D02*
X49022228Y80944361D01*
X49022228Y80944361D02*
X48926990Y80991980D01*
X48165085Y79991980D02*
X48165085Y80991980D01*
X48069847Y80372933D02*
X47784133Y79991980D01*
X47784133Y80658647D02*
X48165085Y80277695D01*
X108327856Y38453342D02*
X108280237Y38500961D01*
X108280237Y38500961D02*
X108184999Y38548580D01*
X108184999Y38548580D02*
X107946904Y38548580D01*
X107946904Y38548580D02*
X107851666Y38500961D01*
X107851666Y38500961D02*
X107804047Y38453342D01*
X107804047Y38453342D02*
X107756428Y38358104D01*
X107756428Y38358104D02*
X107756428Y38262866D01*
X107756428Y38262866D02*
X107804047Y38120009D01*
X107804047Y38120009D02*
X108375475Y37548580D01*
X108375475Y37548580D02*
X107756428Y37548580D01*
X107375475Y38453342D02*
X107327856Y38500961D01*
X107327856Y38500961D02*
X107232618Y38548580D01*
X107232618Y38548580D02*
X106994523Y38548580D01*
X106994523Y38548580D02*
X106899285Y38500961D01*
X106899285Y38500961D02*
X106851666Y38453342D01*
X106851666Y38453342D02*
X106804047Y38358104D01*
X106804047Y38358104D02*
X106804047Y38262866D01*
X106804047Y38262866D02*
X106851666Y38120009D01*
X106851666Y38120009D02*
X107423094Y37548580D01*
X107423094Y37548580D02*
X106804047Y37548580D01*
X106184999Y38548580D02*
X106089761Y38548580D01*
X106089761Y38548580D02*
X105994523Y38500961D01*
X105994523Y38500961D02*
X105946904Y38453342D01*
X105946904Y38453342D02*
X105899285Y38358104D01*
X105899285Y38358104D02*
X105851666Y38167628D01*
X105851666Y38167628D02*
X105851666Y37929533D01*
X105851666Y37929533D02*
X105899285Y37739057D01*
X105899285Y37739057D02*
X105946904Y37643819D01*
X105946904Y37643819D02*
X105994523Y37596200D01*
X105994523Y37596200D02*
X106089761Y37548580D01*
X106089761Y37548580D02*
X106184999Y37548580D01*
X106184999Y37548580D02*
X106280237Y37596200D01*
X106280237Y37596200D02*
X106327856Y37643819D01*
X106327856Y37643819D02*
X106375475Y37739057D01*
X106375475Y37739057D02*
X106423094Y37929533D01*
X106423094Y37929533D02*
X106423094Y38167628D01*
X106423094Y38167628D02*
X106375475Y38358104D01*
X106375475Y38358104D02*
X106327856Y38453342D01*
X106327856Y38453342D02*
X106280237Y38500961D01*
X106280237Y38500961D02*
X106184999Y38548580D01*
X105423094Y37548580D02*
X105423094Y38548580D01*
X105327856Y37929533D02*
X105042142Y37548580D01*
X105042142Y38215247D02*
X105423094Y37834295D01*
X59372657Y19523980D02*
X59848847Y19523980D01*
X59848847Y19523980D02*
X59896466Y19047790D01*
X59896466Y19047790D02*
X59848847Y19095409D01*
X59848847Y19095409D02*
X59753609Y19143028D01*
X59753609Y19143028D02*
X59515514Y19143028D01*
X59515514Y19143028D02*
X59420276Y19095409D01*
X59420276Y19095409D02*
X59372657Y19047790D01*
X59372657Y19047790D02*
X59325038Y18952552D01*
X59325038Y18952552D02*
X59325038Y18714457D01*
X59325038Y18714457D02*
X59372657Y18619219D01*
X59372657Y18619219D02*
X59420276Y18571600D01*
X59420276Y18571600D02*
X59515514Y18523980D01*
X59515514Y18523980D02*
X59753609Y18523980D01*
X59753609Y18523980D02*
X59848847Y18571600D01*
X59848847Y18571600D02*
X59896466Y18619219D01*
X58896466Y18523980D02*
X58896466Y19523980D01*
X58801228Y18904933D02*
X58515514Y18523980D01*
X58515514Y19190647D02*
X58896466Y18809695D01*
X57658371Y19523980D02*
X57848847Y19523980D01*
X57848847Y19523980D02*
X57944085Y19476361D01*
X57944085Y19476361D02*
X57991704Y19428742D01*
X57991704Y19428742D02*
X58086942Y19285885D01*
X58086942Y19285885D02*
X58134561Y19095409D01*
X58134561Y19095409D02*
X58134561Y18714457D01*
X58134561Y18714457D02*
X58086942Y18619219D01*
X58086942Y18619219D02*
X58039323Y18571600D01*
X58039323Y18571600D02*
X57944085Y18523980D01*
X57944085Y18523980D02*
X57753609Y18523980D01*
X57753609Y18523980D02*
X57658371Y18571600D01*
X57658371Y18571600D02*
X57610752Y18619219D01*
X57610752Y18619219D02*
X57563133Y18714457D01*
X57563133Y18714457D02*
X57563133Y18952552D01*
X57563133Y18952552D02*
X57610752Y19047790D01*
X57610752Y19047790D02*
X57658371Y19095409D01*
X57658371Y19095409D02*
X57753609Y19143028D01*
X57753609Y19143028D02*
X57944085Y19143028D01*
X57944085Y19143028D02*
X58039323Y19095409D01*
X58039323Y19095409D02*
X58086942Y19047790D01*
X58086942Y19047790D02*
X58134561Y18952552D01*
X6653066Y80155142D02*
X6605447Y80202761D01*
X6605447Y80202761D02*
X6510209Y80250380D01*
X6510209Y80250380D02*
X6272114Y80250380D01*
X6272114Y80250380D02*
X6176876Y80202761D01*
X6176876Y80202761D02*
X6129257Y80155142D01*
X6129257Y80155142D02*
X6081638Y80059904D01*
X6081638Y80059904D02*
X6081638Y79964666D01*
X6081638Y79964666D02*
X6129257Y79821809D01*
X6129257Y79821809D02*
X6700685Y79250380D01*
X6700685Y79250380D02*
X6081638Y79250380D01*
X5653066Y79250380D02*
X5653066Y80250380D01*
X5557828Y79631333D02*
X5272114Y79250380D01*
X5272114Y79917047D02*
X5653066Y79536095D01*
X4891161Y80155142D02*
X4843542Y80202761D01*
X4843542Y80202761D02*
X4748304Y80250380D01*
X4748304Y80250380D02*
X4510209Y80250380D01*
X4510209Y80250380D02*
X4414971Y80202761D01*
X4414971Y80202761D02*
X4367352Y80155142D01*
X4367352Y80155142D02*
X4319733Y80059904D01*
X4319733Y80059904D02*
X4319733Y79964666D01*
X4319733Y79964666D02*
X4367352Y79821809D01*
X4367352Y79821809D02*
X4938780Y79250380D01*
X4938780Y79250380D02*
X4319733Y79250380D01*
X18336419Y62818828D02*
X18336419Y63390256D01*
X18336419Y63104542D02*
X17336419Y63104542D01*
X17336419Y63104542D02*
X17479276Y63199780D01*
X17479276Y63199780D02*
X17574514Y63295018D01*
X17574514Y63295018D02*
X17622133Y63390256D01*
X17336419Y62199780D02*
X17336419Y62104542D01*
X17336419Y62104542D02*
X17384038Y62009304D01*
X17384038Y62009304D02*
X17431657Y61961685D01*
X17431657Y61961685D02*
X17526895Y61914066D01*
X17526895Y61914066D02*
X17717371Y61866447D01*
X17717371Y61866447D02*
X17955466Y61866447D01*
X17955466Y61866447D02*
X18145942Y61914066D01*
X18145942Y61914066D02*
X18241180Y61961685D01*
X18241180Y61961685D02*
X18288800Y62009304D01*
X18288800Y62009304D02*
X18336419Y62104542D01*
X18336419Y62104542D02*
X18336419Y62199780D01*
X18336419Y62199780D02*
X18288800Y62295018D01*
X18288800Y62295018D02*
X18241180Y62342637D01*
X18241180Y62342637D02*
X18145942Y62390256D01*
X18145942Y62390256D02*
X17955466Y62437875D01*
X17955466Y62437875D02*
X17717371Y62437875D01*
X17717371Y62437875D02*
X17526895Y62390256D01*
X17526895Y62390256D02*
X17431657Y62342637D01*
X17431657Y62342637D02*
X17384038Y62295018D01*
X17384038Y62295018D02*
X17336419Y62199780D01*
X17336419Y61247399D02*
X17336419Y61152161D01*
X17336419Y61152161D02*
X17384038Y61056923D01*
X17384038Y61056923D02*
X17431657Y61009304D01*
X17431657Y61009304D02*
X17526895Y60961685D01*
X17526895Y60961685D02*
X17717371Y60914066D01*
X17717371Y60914066D02*
X17955466Y60914066D01*
X17955466Y60914066D02*
X18145942Y60961685D01*
X18145942Y60961685D02*
X18241180Y61009304D01*
X18241180Y61009304D02*
X18288800Y61056923D01*
X18288800Y61056923D02*
X18336419Y61152161D01*
X18336419Y61152161D02*
X18336419Y61247399D01*
X18336419Y61247399D02*
X18288800Y61342637D01*
X18288800Y61342637D02*
X18241180Y61390256D01*
X18241180Y61390256D02*
X18145942Y61437875D01*
X18145942Y61437875D02*
X17955466Y61485494D01*
X17955466Y61485494D02*
X17717371Y61485494D01*
X17717371Y61485494D02*
X17526895Y61437875D01*
X17526895Y61437875D02*
X17431657Y61390256D01*
X17431657Y61390256D02*
X17384038Y61342637D01*
X17384038Y61342637D02*
X17336419Y61247399D01*
X18336419Y60485494D02*
X17336419Y60485494D01*
X17955466Y60390256D02*
X18336419Y60104542D01*
X17669752Y60104542D02*
X18050704Y60485494D01*
D11*
X24879761Y84774693D02*
X24927380Y84679455D01*
X24927380Y84679455D02*
X24927380Y84536598D01*
X24927380Y84536598D02*
X24879761Y84393741D01*
X24879761Y84393741D02*
X24784523Y84298503D01*
X24784523Y84298503D02*
X24689285Y84250884D01*
X24689285Y84250884D02*
X24498809Y84203265D01*
X24498809Y84203265D02*
X24355952Y84203265D01*
X24355952Y84203265D02*
X24165476Y84250884D01*
X24165476Y84250884D02*
X24070238Y84298503D01*
X24070238Y84298503D02*
X23975000Y84393741D01*
X23975000Y84393741D02*
X23927380Y84536598D01*
X23927380Y84536598D02*
X23927380Y84631836D01*
X23927380Y84631836D02*
X23975000Y84774693D01*
X23975000Y84774693D02*
X24022619Y84822312D01*
X24022619Y84822312D02*
X24355952Y84822312D01*
X24355952Y84822312D02*
X24355952Y84631836D01*
X23927380Y85250884D02*
X24927380Y85250884D01*
X24927380Y85250884D02*
X23927380Y85822312D01*
X23927380Y85822312D02*
X24927380Y85822312D01*
X23927380Y86298503D02*
X24927380Y86298503D01*
X24927380Y86298503D02*
X24927380Y86536598D01*
X24927380Y86536598D02*
X24879761Y86679455D01*
X24879761Y86679455D02*
X24784523Y86774693D01*
X24784523Y86774693D02*
X24689285Y86822312D01*
X24689285Y86822312D02*
X24498809Y86869931D01*
X24498809Y86869931D02*
X24355952Y86869931D01*
X24355952Y86869931D02*
X24165476Y86822312D01*
X24165476Y86822312D02*
X24070238Y86774693D01*
X24070238Y86774693D02*
X23975000Y86679455D01*
X23975000Y86679455D02*
X23927380Y86536598D01*
X23927380Y86536598D02*
X23927380Y86298503D01*
X16355000Y84203265D02*
X16307380Y84346122D01*
X16307380Y84346122D02*
X16307380Y84584217D01*
X16307380Y84584217D02*
X16355000Y84679455D01*
X16355000Y84679455D02*
X16402619Y84727074D01*
X16402619Y84727074D02*
X16497857Y84774693D01*
X16497857Y84774693D02*
X16593095Y84774693D01*
X16593095Y84774693D02*
X16688333Y84727074D01*
X16688333Y84727074D02*
X16735952Y84679455D01*
X16735952Y84679455D02*
X16783571Y84584217D01*
X16783571Y84584217D02*
X16831190Y84393741D01*
X16831190Y84393741D02*
X16878809Y84298503D01*
X16878809Y84298503D02*
X16926428Y84250884D01*
X16926428Y84250884D02*
X17021666Y84203265D01*
X17021666Y84203265D02*
X17116904Y84203265D01*
X17116904Y84203265D02*
X17212142Y84250884D01*
X17212142Y84250884D02*
X17259761Y84298503D01*
X17259761Y84298503D02*
X17307380Y84393741D01*
X17307380Y84393741D02*
X17307380Y84631836D01*
X17307380Y84631836D02*
X17259761Y84774693D01*
X16307380Y85203265D02*
X17307380Y85203265D01*
X17307380Y85203265D02*
X17307380Y85441360D01*
X17307380Y85441360D02*
X17259761Y85584217D01*
X17259761Y85584217D02*
X17164523Y85679455D01*
X17164523Y85679455D02*
X17069285Y85727074D01*
X17069285Y85727074D02*
X16878809Y85774693D01*
X16878809Y85774693D02*
X16735952Y85774693D01*
X16735952Y85774693D02*
X16545476Y85727074D01*
X16545476Y85727074D02*
X16450238Y85679455D01*
X16450238Y85679455D02*
X16355000Y85584217D01*
X16355000Y85584217D02*
X16307380Y85441360D01*
X16307380Y85441360D02*
X16307380Y85203265D01*
X16593095Y86155646D02*
X16593095Y86631836D01*
X16307380Y86060408D02*
X17307380Y86393741D01*
X17307380Y86393741D02*
X16307380Y86727074D01*
X18895000Y84203265D02*
X18847380Y84346122D01*
X18847380Y84346122D02*
X18847380Y84584217D01*
X18847380Y84584217D02*
X18895000Y84679455D01*
X18895000Y84679455D02*
X18942619Y84727074D01*
X18942619Y84727074D02*
X19037857Y84774693D01*
X19037857Y84774693D02*
X19133095Y84774693D01*
X19133095Y84774693D02*
X19228333Y84727074D01*
X19228333Y84727074D02*
X19275952Y84679455D01*
X19275952Y84679455D02*
X19323571Y84584217D01*
X19323571Y84584217D02*
X19371190Y84393741D01*
X19371190Y84393741D02*
X19418809Y84298503D01*
X19418809Y84298503D02*
X19466428Y84250884D01*
X19466428Y84250884D02*
X19561666Y84203265D01*
X19561666Y84203265D02*
X19656904Y84203265D01*
X19656904Y84203265D02*
X19752142Y84250884D01*
X19752142Y84250884D02*
X19799761Y84298503D01*
X19799761Y84298503D02*
X19847380Y84393741D01*
X19847380Y84393741D02*
X19847380Y84631836D01*
X19847380Y84631836D02*
X19799761Y84774693D01*
X18942619Y85774693D02*
X18895000Y85727074D01*
X18895000Y85727074D02*
X18847380Y85584217D01*
X18847380Y85584217D02*
X18847380Y85488979D01*
X18847380Y85488979D02*
X18895000Y85346122D01*
X18895000Y85346122D02*
X18990238Y85250884D01*
X18990238Y85250884D02*
X19085476Y85203265D01*
X19085476Y85203265D02*
X19275952Y85155646D01*
X19275952Y85155646D02*
X19418809Y85155646D01*
X19418809Y85155646D02*
X19609285Y85203265D01*
X19609285Y85203265D02*
X19704523Y85250884D01*
X19704523Y85250884D02*
X19799761Y85346122D01*
X19799761Y85346122D02*
X19847380Y85488979D01*
X19847380Y85488979D02*
X19847380Y85584217D01*
X19847380Y85584217D02*
X19799761Y85727074D01*
X19799761Y85727074D02*
X19752142Y85774693D01*
X18847380Y86679455D02*
X18847380Y86203265D01*
X18847380Y86203265D02*
X19847380Y86203265D01*
X22387380Y84108027D02*
X21387380Y84441360D01*
X21387380Y84441360D02*
X22387380Y84774693D01*
X21482619Y85679455D02*
X21435000Y85631836D01*
X21435000Y85631836D02*
X21387380Y85488979D01*
X21387380Y85488979D02*
X21387380Y85393741D01*
X21387380Y85393741D02*
X21435000Y85250884D01*
X21435000Y85250884D02*
X21530238Y85155646D01*
X21530238Y85155646D02*
X21625476Y85108027D01*
X21625476Y85108027D02*
X21815952Y85060408D01*
X21815952Y85060408D02*
X21958809Y85060408D01*
X21958809Y85060408D02*
X22149285Y85108027D01*
X22149285Y85108027D02*
X22244523Y85155646D01*
X22244523Y85155646D02*
X22339761Y85250884D01*
X22339761Y85250884D02*
X22387380Y85393741D01*
X22387380Y85393741D02*
X22387380Y85488979D01*
X22387380Y85488979D02*
X22339761Y85631836D01*
X22339761Y85631836D02*
X22292142Y85679455D01*
X21482619Y86679455D02*
X21435000Y86631836D01*
X21435000Y86631836D02*
X21387380Y86488979D01*
X21387380Y86488979D02*
X21387380Y86393741D01*
X21387380Y86393741D02*
X21435000Y86250884D01*
X21435000Y86250884D02*
X21530238Y86155646D01*
X21530238Y86155646D02*
X21625476Y86108027D01*
X21625476Y86108027D02*
X21815952Y86060408D01*
X21815952Y86060408D02*
X21958809Y86060408D01*
X21958809Y86060408D02*
X22149285Y86108027D01*
X22149285Y86108027D02*
X22244523Y86155646D01*
X22244523Y86155646D02*
X22339761Y86250884D01*
X22339761Y86250884D02*
X22387380Y86393741D01*
X22387380Y86393741D02*
X22387380Y86488979D01*
X22387380Y86488979D02*
X22339761Y86631836D01*
X22339761Y86631836D02*
X22292142Y86679455D01*
D10*
X94643666Y23010142D02*
X94596047Y23057761D01*
X94596047Y23057761D02*
X94500809Y23105380D01*
X94500809Y23105380D02*
X94262714Y23105380D01*
X94262714Y23105380D02*
X94167476Y23057761D01*
X94167476Y23057761D02*
X94119857Y23010142D01*
X94119857Y23010142D02*
X94072238Y22914904D01*
X94072238Y22914904D02*
X94072238Y22819666D01*
X94072238Y22819666D02*
X94119857Y22676809D01*
X94119857Y22676809D02*
X94691285Y22105380D01*
X94691285Y22105380D02*
X94072238Y22105380D01*
X93643666Y22105380D02*
X93643666Y23105380D01*
X93548428Y22486333D02*
X93262714Y22105380D01*
X93262714Y22772047D02*
X93643666Y22391095D01*
X92881761Y23010142D02*
X92834142Y23057761D01*
X92834142Y23057761D02*
X92738904Y23105380D01*
X92738904Y23105380D02*
X92500809Y23105380D01*
X92500809Y23105380D02*
X92405571Y23057761D01*
X92405571Y23057761D02*
X92357952Y23010142D01*
X92357952Y23010142D02*
X92310333Y22914904D01*
X92310333Y22914904D02*
X92310333Y22819666D01*
X92310333Y22819666D02*
X92357952Y22676809D01*
X92357952Y22676809D02*
X92929380Y22105380D01*
X92929380Y22105380D02*
X92310333Y22105380D01*
X89668496Y28243863D02*
X89668496Y28820080D01*
X89668496Y28531972D02*
X88660116Y28531972D01*
X88660116Y28531972D02*
X88804170Y28628008D01*
X88804170Y28628008D02*
X88900206Y28724044D01*
X88900206Y28724044D02*
X88948224Y28820080D01*
X88996242Y27811700D02*
X89668496Y27811700D01*
X89092278Y27811700D02*
X89044260Y27763682D01*
X89044260Y27763682D02*
X88996242Y27667646D01*
X88996242Y27667646D02*
X88996242Y27523591D01*
X88996242Y27523591D02*
X89044260Y27427555D01*
X89044260Y27427555D02*
X89140297Y27379537D01*
X89140297Y27379537D02*
X89668496Y27379537D01*
X77523419Y37876304D02*
X77523419Y38447732D01*
X77523419Y38162018D02*
X76523419Y38162018D01*
X76523419Y38162018D02*
X76666276Y38257256D01*
X76666276Y38257256D02*
X76761514Y38352494D01*
X76761514Y38352494D02*
X76809133Y38447732D01*
X77523419Y37447732D02*
X76523419Y37447732D01*
X76523419Y37447732D02*
X77237704Y37114399D01*
X77237704Y37114399D02*
X76523419Y36781066D01*
X76523419Y36781066D02*
X77523419Y36781066D01*
X76523419Y35828685D02*
X76523419Y36304875D01*
X76523419Y36304875D02*
X76999609Y36352494D01*
X76999609Y36352494D02*
X76951990Y36304875D01*
X76951990Y36304875D02*
X76904371Y36209637D01*
X76904371Y36209637D02*
X76904371Y35971542D01*
X76904371Y35971542D02*
X76951990Y35876304D01*
X76951990Y35876304D02*
X76999609Y35828685D01*
X76999609Y35828685D02*
X77094847Y35781066D01*
X77094847Y35781066D02*
X77332942Y35781066D01*
X77332942Y35781066D02*
X77428180Y35828685D01*
X77428180Y35828685D02*
X77475800Y35876304D01*
X77475800Y35876304D02*
X77523419Y35971542D01*
X77523419Y35971542D02*
X77523419Y36209637D01*
X77523419Y36209637D02*
X77475800Y36304875D01*
X77475800Y36304875D02*
X77428180Y36352494D01*
X73961152Y83550276D02*
X74627819Y83550276D01*
X73580200Y83788371D02*
X74294485Y84026466D01*
X74294485Y84026466D02*
X74294485Y83407419D01*
X74627819Y83026466D02*
X73627819Y83026466D01*
X74246866Y82931228D02*
X74627819Y82645514D01*
X73961152Y82645514D02*
X74342104Y83026466D01*
X73627819Y82312180D02*
X73627819Y81645514D01*
X73627819Y81645514D02*
X74627819Y82074085D01*
X35345019Y86993266D02*
X35345019Y87183742D01*
X35345019Y87183742D02*
X35392638Y87278980D01*
X35392638Y87278980D02*
X35440257Y87326599D01*
X35440257Y87326599D02*
X35583114Y87421837D01*
X35583114Y87421837D02*
X35773590Y87469456D01*
X35773590Y87469456D02*
X36154542Y87469456D01*
X36154542Y87469456D02*
X36249780Y87421837D01*
X36249780Y87421837D02*
X36297400Y87374218D01*
X36297400Y87374218D02*
X36345019Y87278980D01*
X36345019Y87278980D02*
X36345019Y87088504D01*
X36345019Y87088504D02*
X36297400Y86993266D01*
X36297400Y86993266D02*
X36249780Y86945647D01*
X36249780Y86945647D02*
X36154542Y86898028D01*
X36154542Y86898028D02*
X35916447Y86898028D01*
X35916447Y86898028D02*
X35821209Y86945647D01*
X35821209Y86945647D02*
X35773590Y86993266D01*
X35773590Y86993266D02*
X35725971Y87088504D01*
X35725971Y87088504D02*
X35725971Y87278980D01*
X35725971Y87278980D02*
X35773590Y87374218D01*
X35773590Y87374218D02*
X35821209Y87421837D01*
X35821209Y87421837D02*
X35916447Y87469456D01*
X35773590Y86326599D02*
X35725971Y86421837D01*
X35725971Y86421837D02*
X35678352Y86469456D01*
X35678352Y86469456D02*
X35583114Y86517075D01*
X35583114Y86517075D02*
X35535495Y86517075D01*
X35535495Y86517075D02*
X35440257Y86469456D01*
X35440257Y86469456D02*
X35392638Y86421837D01*
X35392638Y86421837D02*
X35345019Y86326599D01*
X35345019Y86326599D02*
X35345019Y86136123D01*
X35345019Y86136123D02*
X35392638Y86040885D01*
X35392638Y86040885D02*
X35440257Y85993266D01*
X35440257Y85993266D02*
X35535495Y85945647D01*
X35535495Y85945647D02*
X35583114Y85945647D01*
X35583114Y85945647D02*
X35678352Y85993266D01*
X35678352Y85993266D02*
X35725971Y86040885D01*
X35725971Y86040885D02*
X35773590Y86136123D01*
X35773590Y86136123D02*
X35773590Y86326599D01*
X35773590Y86326599D02*
X35821209Y86421837D01*
X35821209Y86421837D02*
X35868828Y86469456D01*
X35868828Y86469456D02*
X35964066Y86517075D01*
X35964066Y86517075D02*
X36154542Y86517075D01*
X36154542Y86517075D02*
X36249780Y86469456D01*
X36249780Y86469456D02*
X36297400Y86421837D01*
X36297400Y86421837D02*
X36345019Y86326599D01*
X36345019Y86326599D02*
X36345019Y86136123D01*
X36345019Y86136123D02*
X36297400Y86040885D01*
X36297400Y86040885D02*
X36249780Y85993266D01*
X36249780Y85993266D02*
X36154542Y85945647D01*
X36154542Y85945647D02*
X35964066Y85945647D01*
X35964066Y85945647D02*
X35868828Y85993266D01*
X35868828Y85993266D02*
X35821209Y86040885D01*
X35821209Y86040885D02*
X35773590Y86136123D01*
X35345019Y85326599D02*
X35345019Y85231361D01*
X35345019Y85231361D02*
X35392638Y85136123D01*
X35392638Y85136123D02*
X35440257Y85088504D01*
X35440257Y85088504D02*
X35535495Y85040885D01*
X35535495Y85040885D02*
X35725971Y84993266D01*
X35725971Y84993266D02*
X35964066Y84993266D01*
X35964066Y84993266D02*
X36154542Y85040885D01*
X36154542Y85040885D02*
X36249780Y85088504D01*
X36249780Y85088504D02*
X36297400Y85136123D01*
X36297400Y85136123D02*
X36345019Y85231361D01*
X36345019Y85231361D02*
X36345019Y85326599D01*
X36345019Y85326599D02*
X36297400Y85421837D01*
X36297400Y85421837D02*
X36249780Y85469456D01*
X36249780Y85469456D02*
X36154542Y85517075D01*
X36154542Y85517075D02*
X35964066Y85564694D01*
X35964066Y85564694D02*
X35725971Y85564694D01*
X35725971Y85564694D02*
X35535495Y85517075D01*
X35535495Y85517075D02*
X35440257Y85469456D01*
X35440257Y85469456D02*
X35392638Y85421837D01*
X35392638Y85421837D02*
X35345019Y85326599D01*
X36345019Y84564694D02*
X35345019Y84564694D01*
X35964066Y84469456D02*
X36345019Y84183742D01*
X35678352Y84183742D02*
X36059304Y84564694D01*
X38443819Y86840866D02*
X38443819Y87031342D01*
X38443819Y87031342D02*
X38491438Y87126580D01*
X38491438Y87126580D02*
X38539057Y87174199D01*
X38539057Y87174199D02*
X38681914Y87269437D01*
X38681914Y87269437D02*
X38872390Y87317056D01*
X38872390Y87317056D02*
X39253342Y87317056D01*
X39253342Y87317056D02*
X39348580Y87269437D01*
X39348580Y87269437D02*
X39396200Y87221818D01*
X39396200Y87221818D02*
X39443819Y87126580D01*
X39443819Y87126580D02*
X39443819Y86936104D01*
X39443819Y86936104D02*
X39396200Y86840866D01*
X39396200Y86840866D02*
X39348580Y86793247D01*
X39348580Y86793247D02*
X39253342Y86745628D01*
X39253342Y86745628D02*
X39015247Y86745628D01*
X39015247Y86745628D02*
X38920009Y86793247D01*
X38920009Y86793247D02*
X38872390Y86840866D01*
X38872390Y86840866D02*
X38824771Y86936104D01*
X38824771Y86936104D02*
X38824771Y87126580D01*
X38824771Y87126580D02*
X38872390Y87221818D01*
X38872390Y87221818D02*
X38920009Y87269437D01*
X38920009Y87269437D02*
X39015247Y87317056D01*
X38872390Y86174199D02*
X38824771Y86269437D01*
X38824771Y86269437D02*
X38777152Y86317056D01*
X38777152Y86317056D02*
X38681914Y86364675D01*
X38681914Y86364675D02*
X38634295Y86364675D01*
X38634295Y86364675D02*
X38539057Y86317056D01*
X38539057Y86317056D02*
X38491438Y86269437D01*
X38491438Y86269437D02*
X38443819Y86174199D01*
X38443819Y86174199D02*
X38443819Y85983723D01*
X38443819Y85983723D02*
X38491438Y85888485D01*
X38491438Y85888485D02*
X38539057Y85840866D01*
X38539057Y85840866D02*
X38634295Y85793247D01*
X38634295Y85793247D02*
X38681914Y85793247D01*
X38681914Y85793247D02*
X38777152Y85840866D01*
X38777152Y85840866D02*
X38824771Y85888485D01*
X38824771Y85888485D02*
X38872390Y85983723D01*
X38872390Y85983723D02*
X38872390Y86174199D01*
X38872390Y86174199D02*
X38920009Y86269437D01*
X38920009Y86269437D02*
X38967628Y86317056D01*
X38967628Y86317056D02*
X39062866Y86364675D01*
X39062866Y86364675D02*
X39253342Y86364675D01*
X39253342Y86364675D02*
X39348580Y86317056D01*
X39348580Y86317056D02*
X39396200Y86269437D01*
X39396200Y86269437D02*
X39443819Y86174199D01*
X39443819Y86174199D02*
X39443819Y85983723D01*
X39443819Y85983723D02*
X39396200Y85888485D01*
X39396200Y85888485D02*
X39348580Y85840866D01*
X39348580Y85840866D02*
X39253342Y85793247D01*
X39253342Y85793247D02*
X39062866Y85793247D01*
X39062866Y85793247D02*
X38967628Y85840866D01*
X38967628Y85840866D02*
X38920009Y85888485D01*
X38920009Y85888485D02*
X38872390Y85983723D01*
X38443819Y85174199D02*
X38443819Y85078961D01*
X38443819Y85078961D02*
X38491438Y84983723D01*
X38491438Y84983723D02*
X38539057Y84936104D01*
X38539057Y84936104D02*
X38634295Y84888485D01*
X38634295Y84888485D02*
X38824771Y84840866D01*
X38824771Y84840866D02*
X39062866Y84840866D01*
X39062866Y84840866D02*
X39253342Y84888485D01*
X39253342Y84888485D02*
X39348580Y84936104D01*
X39348580Y84936104D02*
X39396200Y84983723D01*
X39396200Y84983723D02*
X39443819Y85078961D01*
X39443819Y85078961D02*
X39443819Y85174199D01*
X39443819Y85174199D02*
X39396200Y85269437D01*
X39396200Y85269437D02*
X39348580Y85317056D01*
X39348580Y85317056D02*
X39253342Y85364675D01*
X39253342Y85364675D02*
X39062866Y85412294D01*
X39062866Y85412294D02*
X38824771Y85412294D01*
X38824771Y85412294D02*
X38634295Y85364675D01*
X38634295Y85364675D02*
X38539057Y85317056D01*
X38539057Y85317056D02*
X38491438Y85269437D01*
X38491438Y85269437D02*
X38443819Y85174199D01*
X39443819Y84412294D02*
X38443819Y84412294D01*
X39062866Y84317056D02*
X39443819Y84031342D01*
X38777152Y84031342D02*
X39158104Y84412294D01*
X7998619Y87685428D02*
X7998619Y88256856D01*
X7998619Y87971142D02*
X6998619Y87971142D01*
X6998619Y87971142D02*
X7141476Y88066380D01*
X7141476Y88066380D02*
X7236714Y88161618D01*
X7236714Y88161618D02*
X7284333Y88256856D01*
X6998619Y87066380D02*
X6998619Y86971142D01*
X6998619Y86971142D02*
X7046238Y86875904D01*
X7046238Y86875904D02*
X7093857Y86828285D01*
X7093857Y86828285D02*
X7189095Y86780666D01*
X7189095Y86780666D02*
X7379571Y86733047D01*
X7379571Y86733047D02*
X7617666Y86733047D01*
X7617666Y86733047D02*
X7808142Y86780666D01*
X7808142Y86780666D02*
X7903380Y86828285D01*
X7903380Y86828285D02*
X7951000Y86875904D01*
X7951000Y86875904D02*
X7998619Y86971142D01*
X7998619Y86971142D02*
X7998619Y87066380D01*
X7998619Y87066380D02*
X7951000Y87161618D01*
X7951000Y87161618D02*
X7903380Y87209237D01*
X7903380Y87209237D02*
X7808142Y87256856D01*
X7808142Y87256856D02*
X7617666Y87304475D01*
X7617666Y87304475D02*
X7379571Y87304475D01*
X7379571Y87304475D02*
X7189095Y87256856D01*
X7189095Y87256856D02*
X7093857Y87209237D01*
X7093857Y87209237D02*
X7046238Y87161618D01*
X7046238Y87161618D02*
X6998619Y87066380D01*
X6998619Y86113999D02*
X6998619Y86018761D01*
X6998619Y86018761D02*
X7046238Y85923523D01*
X7046238Y85923523D02*
X7093857Y85875904D01*
X7093857Y85875904D02*
X7189095Y85828285D01*
X7189095Y85828285D02*
X7379571Y85780666D01*
X7379571Y85780666D02*
X7617666Y85780666D01*
X7617666Y85780666D02*
X7808142Y85828285D01*
X7808142Y85828285D02*
X7903380Y85875904D01*
X7903380Y85875904D02*
X7951000Y85923523D01*
X7951000Y85923523D02*
X7998619Y86018761D01*
X7998619Y86018761D02*
X7998619Y86113999D01*
X7998619Y86113999D02*
X7951000Y86209237D01*
X7951000Y86209237D02*
X7903380Y86256856D01*
X7903380Y86256856D02*
X7808142Y86304475D01*
X7808142Y86304475D02*
X7617666Y86352094D01*
X7617666Y86352094D02*
X7379571Y86352094D01*
X7379571Y86352094D02*
X7189095Y86304475D01*
X7189095Y86304475D02*
X7093857Y86256856D01*
X7093857Y86256856D02*
X7046238Y86209237D01*
X7046238Y86209237D02*
X6998619Y86113999D01*
X7998619Y85352094D02*
X6998619Y85352094D01*
X7617666Y85256856D02*
X7998619Y84971142D01*
X7331952Y84971142D02*
X7712904Y85352094D01*
X60787225Y38001903D02*
X61363442Y38001903D01*
X61075334Y38001903D02*
X61075334Y39010283D01*
X61075334Y39010283D02*
X61171370Y38866229D01*
X61171370Y38866229D02*
X61267406Y38770193D01*
X61267406Y38770193D02*
X61363442Y38722175D01*
X60162990Y39010283D02*
X60066953Y39010283D01*
X60066953Y39010283D02*
X59970917Y38962265D01*
X59970917Y38962265D02*
X59922899Y38914247D01*
X59922899Y38914247D02*
X59874881Y38818211D01*
X59874881Y38818211D02*
X59826863Y38626139D01*
X59826863Y38626139D02*
X59826863Y38386048D01*
X59826863Y38386048D02*
X59874881Y38193976D01*
X59874881Y38193976D02*
X59922899Y38097940D01*
X59922899Y38097940D02*
X59970917Y38049922D01*
X59970917Y38049922D02*
X60066953Y38001903D01*
X60066953Y38001903D02*
X60162990Y38001903D01*
X60162990Y38001903D02*
X60259026Y38049922D01*
X60259026Y38049922D02*
X60307044Y38097940D01*
X60307044Y38097940D02*
X60355062Y38193976D01*
X60355062Y38193976D02*
X60403080Y38386048D01*
X60403080Y38386048D02*
X60403080Y38626139D01*
X60403080Y38626139D02*
X60355062Y38818211D01*
X60355062Y38818211D02*
X60307044Y38914247D01*
X60307044Y38914247D02*
X60259026Y38962265D01*
X60259026Y38962265D02*
X60162990Y39010283D01*
X59202628Y39010283D02*
X59106591Y39010283D01*
X59106591Y39010283D02*
X59010555Y38962265D01*
X59010555Y38962265D02*
X58962537Y38914247D01*
X58962537Y38914247D02*
X58914519Y38818211D01*
X58914519Y38818211D02*
X58866501Y38626139D01*
X58866501Y38626139D02*
X58866501Y38386048D01*
X58866501Y38386048D02*
X58914519Y38193976D01*
X58914519Y38193976D02*
X58962537Y38097940D01*
X58962537Y38097940D02*
X59010555Y38049922D01*
X59010555Y38049922D02*
X59106591Y38001903D01*
X59106591Y38001903D02*
X59202628Y38001903D01*
X59202628Y38001903D02*
X59298664Y38049922D01*
X59298664Y38049922D02*
X59346682Y38097940D01*
X59346682Y38097940D02*
X59394700Y38193976D01*
X59394700Y38193976D02*
X59442718Y38386048D01*
X59442718Y38386048D02*
X59442718Y38626139D01*
X59442718Y38626139D02*
X59394700Y38818211D01*
X59394700Y38818211D02*
X59346682Y38914247D01*
X59346682Y38914247D02*
X59298664Y38962265D01*
X59298664Y38962265D02*
X59202628Y39010283D01*
X58434338Y38674157D02*
X58434338Y38001903D01*
X58434338Y38578121D02*
X58386320Y38626139D01*
X58386320Y38626139D02*
X58290284Y38674157D01*
X58290284Y38674157D02*
X58146229Y38674157D01*
X58146229Y38674157D02*
X58050193Y38626139D01*
X58050193Y38626139D02*
X58002175Y38530102D01*
X58002175Y38530102D02*
X58002175Y38001903D01*
X89620828Y47403780D02*
X90192256Y47403780D01*
X89906542Y47403780D02*
X89906542Y48403780D01*
X89906542Y48403780D02*
X90001780Y48260923D01*
X90001780Y48260923D02*
X90097018Y48165685D01*
X90097018Y48165685D02*
X90192256Y48118066D01*
X89001780Y48403780D02*
X88906542Y48403780D01*
X88906542Y48403780D02*
X88811304Y48356161D01*
X88811304Y48356161D02*
X88763685Y48308542D01*
X88763685Y48308542D02*
X88716066Y48213304D01*
X88716066Y48213304D02*
X88668447Y48022828D01*
X88668447Y48022828D02*
X88668447Y47784733D01*
X88668447Y47784733D02*
X88716066Y47594257D01*
X88716066Y47594257D02*
X88763685Y47499019D01*
X88763685Y47499019D02*
X88811304Y47451400D01*
X88811304Y47451400D02*
X88906542Y47403780D01*
X88906542Y47403780D02*
X89001780Y47403780D01*
X89001780Y47403780D02*
X89097018Y47451400D01*
X89097018Y47451400D02*
X89144637Y47499019D01*
X89144637Y47499019D02*
X89192256Y47594257D01*
X89192256Y47594257D02*
X89239875Y47784733D01*
X89239875Y47784733D02*
X89239875Y48022828D01*
X89239875Y48022828D02*
X89192256Y48213304D01*
X89192256Y48213304D02*
X89144637Y48308542D01*
X89144637Y48308542D02*
X89097018Y48356161D01*
X89097018Y48356161D02*
X89001780Y48403780D01*
X88049399Y48403780D02*
X87954161Y48403780D01*
X87954161Y48403780D02*
X87858923Y48356161D01*
X87858923Y48356161D02*
X87811304Y48308542D01*
X87811304Y48308542D02*
X87763685Y48213304D01*
X87763685Y48213304D02*
X87716066Y48022828D01*
X87716066Y48022828D02*
X87716066Y47784733D01*
X87716066Y47784733D02*
X87763685Y47594257D01*
X87763685Y47594257D02*
X87811304Y47499019D01*
X87811304Y47499019D02*
X87858923Y47451400D01*
X87858923Y47451400D02*
X87954161Y47403780D01*
X87954161Y47403780D02*
X88049399Y47403780D01*
X88049399Y47403780D02*
X88144637Y47451400D01*
X88144637Y47451400D02*
X88192256Y47499019D01*
X88192256Y47499019D02*
X88239875Y47594257D01*
X88239875Y47594257D02*
X88287494Y47784733D01*
X88287494Y47784733D02*
X88287494Y48022828D01*
X88287494Y48022828D02*
X88239875Y48213304D01*
X88239875Y48213304D02*
X88192256Y48308542D01*
X88192256Y48308542D02*
X88144637Y48356161D01*
X88144637Y48356161D02*
X88049399Y48403780D01*
X87287494Y47403780D02*
X87287494Y48403780D01*
X87192256Y47784733D02*
X86906542Y47403780D01*
X86906542Y48070447D02*
X87287494Y47689495D01*
X70702316Y71877661D02*
X70702316Y71781624D01*
X70702316Y71781624D02*
X70750334Y71685588D01*
X70750334Y71685588D02*
X70798352Y71637570D01*
X70798352Y71637570D02*
X70894388Y71589552D01*
X70894388Y71589552D02*
X71086460Y71541534D01*
X71086460Y71541534D02*
X71326551Y71541534D01*
X71326551Y71541534D02*
X71518623Y71589552D01*
X71518623Y71589552D02*
X71614659Y71637570D01*
X71614659Y71637570D02*
X71662678Y71685588D01*
X71662678Y71685588D02*
X71710696Y71781624D01*
X71710696Y71781624D02*
X71710696Y71877661D01*
X71710696Y71877661D02*
X71662678Y71973697D01*
X71662678Y71973697D02*
X71614659Y72021715D01*
X71614659Y72021715D02*
X71518623Y72069733D01*
X71518623Y72069733D02*
X71326551Y72117751D01*
X71326551Y72117751D02*
X71086460Y72117751D01*
X71086460Y72117751D02*
X70894388Y72069733D01*
X70894388Y72069733D02*
X70798352Y72021715D01*
X70798352Y72021715D02*
X70750334Y71973697D01*
X70750334Y71973697D02*
X70702316Y71877661D01*
X71614659Y71109371D02*
X71662678Y71061353D01*
X71662678Y71061353D02*
X71710696Y71109371D01*
X71710696Y71109371D02*
X71662678Y71157389D01*
X71662678Y71157389D02*
X71614659Y71109371D01*
X71614659Y71109371D02*
X71710696Y71109371D01*
X71710696Y70100991D02*
X71710696Y70677208D01*
X71710696Y70389100D02*
X70702316Y70389100D01*
X70702316Y70389100D02*
X70846370Y70485136D01*
X70846370Y70485136D02*
X70942406Y70581172D01*
X70942406Y70581172D02*
X70990424Y70677208D01*
X71038442Y69236665D02*
X71710696Y69236665D01*
X71038442Y69668828D02*
X71566641Y69668828D01*
X71566641Y69668828D02*
X71662678Y69620810D01*
X71662678Y69620810D02*
X71710696Y69524774D01*
X71710696Y69524774D02*
X71710696Y69380719D01*
X71710696Y69380719D02*
X71662678Y69284683D01*
X71662678Y69284683D02*
X71614659Y69236665D01*
X68977038Y94825580D02*
X69548466Y94825580D01*
X69262752Y94825580D02*
X69262752Y95825580D01*
X69262752Y95825580D02*
X69357990Y95682723D01*
X69357990Y95682723D02*
X69453228Y95587485D01*
X69453228Y95587485D02*
X69548466Y95539866D01*
X68357990Y95825580D02*
X68262752Y95825580D01*
X68262752Y95825580D02*
X68167514Y95777961D01*
X68167514Y95777961D02*
X68119895Y95730342D01*
X68119895Y95730342D02*
X68072276Y95635104D01*
X68072276Y95635104D02*
X68024657Y95444628D01*
X68024657Y95444628D02*
X68024657Y95206533D01*
X68024657Y95206533D02*
X68072276Y95016057D01*
X68072276Y95016057D02*
X68119895Y94920819D01*
X68119895Y94920819D02*
X68167514Y94873200D01*
X68167514Y94873200D02*
X68262752Y94825580D01*
X68262752Y94825580D02*
X68357990Y94825580D01*
X68357990Y94825580D02*
X68453228Y94873200D01*
X68453228Y94873200D02*
X68500847Y94920819D01*
X68500847Y94920819D02*
X68548466Y95016057D01*
X68548466Y95016057D02*
X68596085Y95206533D01*
X68596085Y95206533D02*
X68596085Y95444628D01*
X68596085Y95444628D02*
X68548466Y95635104D01*
X68548466Y95635104D02*
X68500847Y95730342D01*
X68500847Y95730342D02*
X68453228Y95777961D01*
X68453228Y95777961D02*
X68357990Y95825580D01*
X67596085Y94825580D02*
X67596085Y95825580D01*
X67500847Y95206533D02*
X67215133Y94825580D01*
X67215133Y95492247D02*
X67596085Y95111295D01*
X96083819Y71456238D02*
X96083819Y72027666D01*
X96083819Y71741952D02*
X95083819Y71741952D01*
X95083819Y71741952D02*
X95226676Y71837190D01*
X95226676Y71837190D02*
X95321914Y71932428D01*
X95321914Y71932428D02*
X95369533Y72027666D01*
X95083819Y70837190D02*
X95083819Y70741952D01*
X95083819Y70741952D02*
X95131438Y70646714D01*
X95131438Y70646714D02*
X95179057Y70599095D01*
X95179057Y70599095D02*
X95274295Y70551476D01*
X95274295Y70551476D02*
X95464771Y70503857D01*
X95464771Y70503857D02*
X95702866Y70503857D01*
X95702866Y70503857D02*
X95893342Y70551476D01*
X95893342Y70551476D02*
X95988580Y70599095D01*
X95988580Y70599095D02*
X96036200Y70646714D01*
X96036200Y70646714D02*
X96083819Y70741952D01*
X96083819Y70741952D02*
X96083819Y70837190D01*
X96083819Y70837190D02*
X96036200Y70932428D01*
X96036200Y70932428D02*
X95988580Y70980047D01*
X95988580Y70980047D02*
X95893342Y71027666D01*
X95893342Y71027666D02*
X95702866Y71075285D01*
X95702866Y71075285D02*
X95464771Y71075285D01*
X95464771Y71075285D02*
X95274295Y71027666D01*
X95274295Y71027666D02*
X95179057Y70980047D01*
X95179057Y70980047D02*
X95131438Y70932428D01*
X95131438Y70932428D02*
X95083819Y70837190D01*
X96083819Y70075285D02*
X95083819Y70075285D01*
X95702866Y69980047D02*
X96083819Y69694333D01*
X95417152Y69694333D02*
X95798104Y70075285D01*
X71421704Y79160047D02*
X71421704Y78493380D01*
X71659799Y79541000D02*
X71897894Y78826714D01*
X71897894Y78826714D02*
X71278847Y78826714D01*
X70993132Y79493380D02*
X70326466Y79493380D01*
X70326466Y79493380D02*
X70755037Y78493380D01*
X69755037Y79493380D02*
X69659799Y79493380D01*
X69659799Y79493380D02*
X69564561Y79445761D01*
X69564561Y79445761D02*
X69516942Y79398142D01*
X69516942Y79398142D02*
X69469323Y79302904D01*
X69469323Y79302904D02*
X69421704Y79112428D01*
X69421704Y79112428D02*
X69421704Y78874333D01*
X69421704Y78874333D02*
X69469323Y78683857D01*
X69469323Y78683857D02*
X69516942Y78588619D01*
X69516942Y78588619D02*
X69564561Y78541000D01*
X69564561Y78541000D02*
X69659799Y78493380D01*
X69659799Y78493380D02*
X69755037Y78493380D01*
X69755037Y78493380D02*
X69850275Y78541000D01*
X69850275Y78541000D02*
X69897894Y78588619D01*
X69897894Y78588619D02*
X69945513Y78683857D01*
X69945513Y78683857D02*
X69993132Y78874333D01*
X69993132Y78874333D02*
X69993132Y79112428D01*
X69993132Y79112428D02*
X69945513Y79302904D01*
X69945513Y79302904D02*
X69897894Y79398142D01*
X69897894Y79398142D02*
X69850275Y79445761D01*
X69850275Y79445761D02*
X69755037Y79493380D01*
X68421704Y78493380D02*
X68755037Y78969571D01*
X68993132Y78493380D02*
X68993132Y79493380D01*
X68993132Y79493380D02*
X68612180Y79493380D01*
X68612180Y79493380D02*
X68516942Y79445761D01*
X68516942Y79445761D02*
X68469323Y79398142D01*
X68469323Y79398142D02*
X68421704Y79302904D01*
X68421704Y79302904D02*
X68421704Y79160047D01*
X68421704Y79160047D02*
X68469323Y79064809D01*
X68469323Y79064809D02*
X68516942Y79017190D01*
X68516942Y79017190D02*
X68612180Y78969571D01*
X68612180Y78969571D02*
X68993132Y78969571D01*
X12469019Y47528028D02*
X12469019Y48099456D01*
X12469019Y47813742D02*
X11469019Y47813742D01*
X11469019Y47813742D02*
X11611876Y47908980D01*
X11611876Y47908980D02*
X11707114Y48004218D01*
X11707114Y48004218D02*
X11754733Y48099456D01*
X11469019Y46908980D02*
X11469019Y46813742D01*
X11469019Y46813742D02*
X11516638Y46718504D01*
X11516638Y46718504D02*
X11564257Y46670885D01*
X11564257Y46670885D02*
X11659495Y46623266D01*
X11659495Y46623266D02*
X11849971Y46575647D01*
X11849971Y46575647D02*
X12088066Y46575647D01*
X12088066Y46575647D02*
X12278542Y46623266D01*
X12278542Y46623266D02*
X12373780Y46670885D01*
X12373780Y46670885D02*
X12421400Y46718504D01*
X12421400Y46718504D02*
X12469019Y46813742D01*
X12469019Y46813742D02*
X12469019Y46908980D01*
X12469019Y46908980D02*
X12421400Y47004218D01*
X12421400Y47004218D02*
X12373780Y47051837D01*
X12373780Y47051837D02*
X12278542Y47099456D01*
X12278542Y47099456D02*
X12088066Y47147075D01*
X12088066Y47147075D02*
X11849971Y47147075D01*
X11849971Y47147075D02*
X11659495Y47099456D01*
X11659495Y47099456D02*
X11564257Y47051837D01*
X11564257Y47051837D02*
X11516638Y47004218D01*
X11516638Y47004218D02*
X11469019Y46908980D01*
X11469019Y45956599D02*
X11469019Y45861361D01*
X11469019Y45861361D02*
X11516638Y45766123D01*
X11516638Y45766123D02*
X11564257Y45718504D01*
X11564257Y45718504D02*
X11659495Y45670885D01*
X11659495Y45670885D02*
X11849971Y45623266D01*
X11849971Y45623266D02*
X12088066Y45623266D01*
X12088066Y45623266D02*
X12278542Y45670885D01*
X12278542Y45670885D02*
X12373780Y45718504D01*
X12373780Y45718504D02*
X12421400Y45766123D01*
X12421400Y45766123D02*
X12469019Y45861361D01*
X12469019Y45861361D02*
X12469019Y45956599D01*
X12469019Y45956599D02*
X12421400Y46051837D01*
X12421400Y46051837D02*
X12373780Y46099456D01*
X12373780Y46099456D02*
X12278542Y46147075D01*
X12278542Y46147075D02*
X12088066Y46194694D01*
X12088066Y46194694D02*
X11849971Y46194694D01*
X11849971Y46194694D02*
X11659495Y46147075D01*
X11659495Y46147075D02*
X11564257Y46099456D01*
X11564257Y46099456D02*
X11516638Y46051837D01*
X11516638Y46051837D02*
X11469019Y45956599D01*
X12469019Y45194694D02*
X11469019Y45194694D01*
X12088066Y45099456D02*
X12469019Y44813742D01*
X11802352Y44813742D02*
X12183304Y45194694D01*
X59410061Y91385083D02*
X59314024Y91385083D01*
X59314024Y91385083D02*
X59217988Y91337065D01*
X59217988Y91337065D02*
X59169970Y91289047D01*
X59169970Y91289047D02*
X59121952Y91193011D01*
X59121952Y91193011D02*
X59073934Y91000939D01*
X59073934Y91000939D02*
X59073934Y90760848D01*
X59073934Y90760848D02*
X59121952Y90568776D01*
X59121952Y90568776D02*
X59169970Y90472740D01*
X59169970Y90472740D02*
X59217988Y90424722D01*
X59217988Y90424722D02*
X59314024Y90376703D01*
X59314024Y90376703D02*
X59410061Y90376703D01*
X59410061Y90376703D02*
X59506097Y90424722D01*
X59506097Y90424722D02*
X59554115Y90472740D01*
X59554115Y90472740D02*
X59602133Y90568776D01*
X59602133Y90568776D02*
X59650151Y90760848D01*
X59650151Y90760848D02*
X59650151Y91000939D01*
X59650151Y91000939D02*
X59602133Y91193011D01*
X59602133Y91193011D02*
X59554115Y91289047D01*
X59554115Y91289047D02*
X59506097Y91337065D01*
X59506097Y91337065D02*
X59410061Y91385083D01*
X58641771Y90472740D02*
X58593753Y90424722D01*
X58593753Y90424722D02*
X58641771Y90376703D01*
X58641771Y90376703D02*
X58689789Y90424722D01*
X58689789Y90424722D02*
X58641771Y90472740D01*
X58641771Y90472740D02*
X58641771Y90376703D01*
X57633391Y90376703D02*
X58209608Y90376703D01*
X57921500Y90376703D02*
X57921500Y91385083D01*
X57921500Y91385083D02*
X58017536Y91241029D01*
X58017536Y91241029D02*
X58113572Y91144993D01*
X58113572Y91144993D02*
X58209608Y91096975D01*
X56769065Y91048957D02*
X56769065Y90376703D01*
X57201228Y91048957D02*
X57201228Y90520758D01*
X57201228Y90520758D02*
X57153210Y90424722D01*
X57153210Y90424722D02*
X57057174Y90376703D01*
X57057174Y90376703D02*
X56913119Y90376703D01*
X56913119Y90376703D02*
X56817083Y90424722D01*
X56817083Y90424722D02*
X56769065Y90472740D01*
X64915619Y89293857D02*
X64915619Y89770047D01*
X64915619Y89770047D02*
X65391809Y89817666D01*
X65391809Y89817666D02*
X65344190Y89770047D01*
X65344190Y89770047D02*
X65296571Y89674809D01*
X65296571Y89674809D02*
X65296571Y89436714D01*
X65296571Y89436714D02*
X65344190Y89341476D01*
X65344190Y89341476D02*
X65391809Y89293857D01*
X65391809Y89293857D02*
X65487047Y89246238D01*
X65487047Y89246238D02*
X65725142Y89246238D01*
X65725142Y89246238D02*
X65820380Y89293857D01*
X65820380Y89293857D02*
X65868000Y89341476D01*
X65868000Y89341476D02*
X65915619Y89436714D01*
X65915619Y89436714D02*
X65915619Y89674809D01*
X65915619Y89674809D02*
X65868000Y89770047D01*
X65868000Y89770047D02*
X65820380Y89817666D01*
X65915619Y88293857D02*
X65915619Y88865285D01*
X65915619Y88579571D02*
X64915619Y88579571D01*
X64915619Y88579571D02*
X65058476Y88674809D01*
X65058476Y88674809D02*
X65153714Y88770047D01*
X65153714Y88770047D02*
X65201333Y88865285D01*
X65915619Y87865285D02*
X64915619Y87865285D01*
X65534666Y87770047D02*
X65915619Y87484333D01*
X65248952Y87484333D02*
X65629904Y87865285D01*
X6303876Y29955247D02*
X6303876Y29288580D01*
X6541971Y30336200D02*
X6780066Y29621914D01*
X6780066Y29621914D02*
X6161019Y29621914D01*
X5780066Y29288580D02*
X5780066Y30288580D01*
X5684828Y29669533D02*
X5399114Y29288580D01*
X5399114Y29955247D02*
X5780066Y29574295D01*
X5065780Y30288580D02*
X4399114Y30288580D01*
X4399114Y30288580D02*
X4827685Y29288580D01*
X1404257Y87729866D02*
X1356638Y87682247D01*
X1356638Y87682247D02*
X1309019Y87587009D01*
X1309019Y87587009D02*
X1309019Y87348914D01*
X1309019Y87348914D02*
X1356638Y87253676D01*
X1356638Y87253676D02*
X1404257Y87206057D01*
X1404257Y87206057D02*
X1499495Y87158438D01*
X1499495Y87158438D02*
X1594733Y87158438D01*
X1594733Y87158438D02*
X1737590Y87206057D01*
X1737590Y87206057D02*
X2309019Y87777485D01*
X2309019Y87777485D02*
X2309019Y87158438D01*
X2309019Y86729866D02*
X1309019Y86729866D01*
X1928066Y86634628D02*
X2309019Y86348914D01*
X1642352Y86348914D02*
X2023304Y86729866D01*
X1404257Y85967961D02*
X1356638Y85920342D01*
X1356638Y85920342D02*
X1309019Y85825104D01*
X1309019Y85825104D02*
X1309019Y85587009D01*
X1309019Y85587009D02*
X1356638Y85491771D01*
X1356638Y85491771D02*
X1404257Y85444152D01*
X1404257Y85444152D02*
X1499495Y85396533D01*
X1499495Y85396533D02*
X1594733Y85396533D01*
X1594733Y85396533D02*
X1737590Y85444152D01*
X1737590Y85444152D02*
X2309019Y86015580D01*
X2309019Y86015580D02*
X2309019Y85396533D01*
X77512885Y27270980D02*
X77512885Y26461457D01*
X77512885Y26461457D02*
X77465266Y26366219D01*
X77465266Y26366219D02*
X77417647Y26318600D01*
X77417647Y26318600D02*
X77322409Y26270980D01*
X77322409Y26270980D02*
X77131933Y26270980D01*
X77131933Y26270980D02*
X77036695Y26318600D01*
X77036695Y26318600D02*
X76989076Y26366219D01*
X76989076Y26366219D02*
X76941457Y26461457D01*
X76941457Y26461457D02*
X76941457Y27270980D01*
X76560504Y27270980D02*
X75941457Y27270980D01*
X75941457Y27270980D02*
X76274790Y26890028D01*
X76274790Y26890028D02*
X76131933Y26890028D01*
X76131933Y26890028D02*
X76036695Y26842409D01*
X76036695Y26842409D02*
X75989076Y26794790D01*
X75989076Y26794790D02*
X75941457Y26699552D01*
X75941457Y26699552D02*
X75941457Y26461457D01*
X75941457Y26461457D02*
X75989076Y26366219D01*
X75989076Y26366219D02*
X76036695Y26318600D01*
X76036695Y26318600D02*
X76131933Y26270980D01*
X76131933Y26270980D02*
X76417647Y26270980D01*
X76417647Y26270980D02*
X76512885Y26318600D01*
X76512885Y26318600D02*
X76560504Y26366219D01*
X75322409Y27270980D02*
X75227171Y27270980D01*
X75227171Y27270980D02*
X75131933Y27223361D01*
X75131933Y27223361D02*
X75084314Y27175742D01*
X75084314Y27175742D02*
X75036695Y27080504D01*
X75036695Y27080504D02*
X74989076Y26890028D01*
X74989076Y26890028D02*
X74989076Y26651933D01*
X74989076Y26651933D02*
X75036695Y26461457D01*
X75036695Y26461457D02*
X75084314Y26366219D01*
X75084314Y26366219D02*
X75131933Y26318600D01*
X75131933Y26318600D02*
X75227171Y26270980D01*
X75227171Y26270980D02*
X75322409Y26270980D01*
X75322409Y26270980D02*
X75417647Y26318600D01*
X75417647Y26318600D02*
X75465266Y26366219D01*
X75465266Y26366219D02*
X75512885Y26461457D01*
X75512885Y26461457D02*
X75560504Y26651933D01*
X75560504Y26651933D02*
X75560504Y26890028D01*
X75560504Y26890028D02*
X75512885Y27080504D01*
X75512885Y27080504D02*
X75465266Y27175742D01*
X75465266Y27175742D02*
X75417647Y27223361D01*
X75417647Y27223361D02*
X75322409Y27270980D01*
X74608123Y27175742D02*
X74560504Y27223361D01*
X74560504Y27223361D02*
X74465266Y27270980D01*
X74465266Y27270980D02*
X74227171Y27270980D01*
X74227171Y27270980D02*
X74131933Y27223361D01*
X74131933Y27223361D02*
X74084314Y27175742D01*
X74084314Y27175742D02*
X74036695Y27080504D01*
X74036695Y27080504D02*
X74036695Y26985266D01*
X74036695Y26985266D02*
X74084314Y26842409D01*
X74084314Y26842409D02*
X74655742Y26270980D01*
X74655742Y26270980D02*
X74036695Y26270980D01*
X71783019Y44029514D02*
X71783019Y44600942D01*
X71783019Y44315228D02*
X70783019Y44315228D01*
X70783019Y44315228D02*
X70925876Y44410466D01*
X70925876Y44410466D02*
X71021114Y44505704D01*
X71021114Y44505704D02*
X71068733Y44600942D01*
X71783019Y43600942D02*
X70783019Y43600942D01*
X70783019Y43600942D02*
X71497304Y43267609D01*
X71497304Y43267609D02*
X70783019Y42934276D01*
X70783019Y42934276D02*
X71783019Y42934276D01*
X79943476Y89269247D02*
X79943476Y88602580D01*
X80181571Y89650200D02*
X80419666Y88935914D01*
X80419666Y88935914D02*
X79800619Y88935914D01*
X79419666Y88602580D02*
X79419666Y89602580D01*
X79324428Y88983533D02*
X79038714Y88602580D01*
X79038714Y89269247D02*
X79419666Y88888295D01*
X78705380Y89602580D02*
X78038714Y89602580D01*
X78038714Y89602580D02*
X78467285Y88602580D01*
X17695152Y52735076D02*
X18361819Y52735076D01*
X17314200Y52973171D02*
X18028485Y53211266D01*
X18028485Y53211266D02*
X18028485Y52592219D01*
X18361819Y52211266D02*
X17361819Y52211266D01*
X17980866Y52116028D02*
X18361819Y51830314D01*
X17695152Y51830314D02*
X18076104Y52211266D01*
X17361819Y51496980D02*
X17361819Y50830314D01*
X17361819Y50830314D02*
X18361819Y51258885D01*
X107534238Y44939980D02*
X108105666Y44939980D01*
X107819952Y44939980D02*
X107819952Y45939980D01*
X107819952Y45939980D02*
X107915190Y45797123D01*
X107915190Y45797123D02*
X108010428Y45701885D01*
X108010428Y45701885D02*
X108105666Y45654266D01*
X106915190Y45939980D02*
X106819952Y45939980D01*
X106819952Y45939980D02*
X106724714Y45892361D01*
X106724714Y45892361D02*
X106677095Y45844742D01*
X106677095Y45844742D02*
X106629476Y45749504D01*
X106629476Y45749504D02*
X106581857Y45559028D01*
X106581857Y45559028D02*
X106581857Y45320933D01*
X106581857Y45320933D02*
X106629476Y45130457D01*
X106629476Y45130457D02*
X106677095Y45035219D01*
X106677095Y45035219D02*
X106724714Y44987600D01*
X106724714Y44987600D02*
X106819952Y44939980D01*
X106819952Y44939980D02*
X106915190Y44939980D01*
X106915190Y44939980D02*
X107010428Y44987600D01*
X107010428Y44987600D02*
X107058047Y45035219D01*
X107058047Y45035219D02*
X107105666Y45130457D01*
X107105666Y45130457D02*
X107153285Y45320933D01*
X107153285Y45320933D02*
X107153285Y45559028D01*
X107153285Y45559028D02*
X107105666Y45749504D01*
X107105666Y45749504D02*
X107058047Y45844742D01*
X107058047Y45844742D02*
X107010428Y45892361D01*
X107010428Y45892361D02*
X106915190Y45939980D01*
X106153285Y44939980D02*
X106153285Y45939980D01*
X106058047Y45320933D02*
X105772333Y44939980D01*
X105772333Y45606647D02*
X106153285Y45225695D01*
X27251819Y37241028D02*
X27251819Y37812456D01*
X27251819Y37526742D02*
X26251819Y37526742D01*
X26251819Y37526742D02*
X26394676Y37621980D01*
X26394676Y37621980D02*
X26489914Y37717218D01*
X26489914Y37717218D02*
X26537533Y37812456D01*
X26251819Y36621980D02*
X26251819Y36526742D01*
X26251819Y36526742D02*
X26299438Y36431504D01*
X26299438Y36431504D02*
X26347057Y36383885D01*
X26347057Y36383885D02*
X26442295Y36336266D01*
X26442295Y36336266D02*
X26632771Y36288647D01*
X26632771Y36288647D02*
X26870866Y36288647D01*
X26870866Y36288647D02*
X27061342Y36336266D01*
X27061342Y36336266D02*
X27156580Y36383885D01*
X27156580Y36383885D02*
X27204200Y36431504D01*
X27204200Y36431504D02*
X27251819Y36526742D01*
X27251819Y36526742D02*
X27251819Y36621980D01*
X27251819Y36621980D02*
X27204200Y36717218D01*
X27204200Y36717218D02*
X27156580Y36764837D01*
X27156580Y36764837D02*
X27061342Y36812456D01*
X27061342Y36812456D02*
X26870866Y36860075D01*
X26870866Y36860075D02*
X26632771Y36860075D01*
X26632771Y36860075D02*
X26442295Y36812456D01*
X26442295Y36812456D02*
X26347057Y36764837D01*
X26347057Y36764837D02*
X26299438Y36717218D01*
X26299438Y36717218D02*
X26251819Y36621980D01*
X26251819Y35669599D02*
X26251819Y35574361D01*
X26251819Y35574361D02*
X26299438Y35479123D01*
X26299438Y35479123D02*
X26347057Y35431504D01*
X26347057Y35431504D02*
X26442295Y35383885D01*
X26442295Y35383885D02*
X26632771Y35336266D01*
X26632771Y35336266D02*
X26870866Y35336266D01*
X26870866Y35336266D02*
X27061342Y35383885D01*
X27061342Y35383885D02*
X27156580Y35431504D01*
X27156580Y35431504D02*
X27204200Y35479123D01*
X27204200Y35479123D02*
X27251819Y35574361D01*
X27251819Y35574361D02*
X27251819Y35669599D01*
X27251819Y35669599D02*
X27204200Y35764837D01*
X27204200Y35764837D02*
X27156580Y35812456D01*
X27156580Y35812456D02*
X27061342Y35860075D01*
X27061342Y35860075D02*
X26870866Y35907694D01*
X26870866Y35907694D02*
X26632771Y35907694D01*
X26632771Y35907694D02*
X26442295Y35860075D01*
X26442295Y35860075D02*
X26347057Y35812456D01*
X26347057Y35812456D02*
X26299438Y35764837D01*
X26299438Y35764837D02*
X26251819Y35669599D01*
X27251819Y34907694D02*
X26251819Y34907694D01*
X26870866Y34812456D02*
X27251819Y34526742D01*
X26585152Y34526742D02*
X26966104Y34907694D01*
X89646228Y31427180D02*
X89455752Y31427180D01*
X89455752Y31427180D02*
X89360514Y31474800D01*
X89360514Y31474800D02*
X89312895Y31522419D01*
X89312895Y31522419D02*
X89217657Y31665276D01*
X89217657Y31665276D02*
X89170038Y31855752D01*
X89170038Y31855752D02*
X89170038Y32236704D01*
X89170038Y32236704D02*
X89217657Y32331942D01*
X89217657Y32331942D02*
X89265276Y32379561D01*
X89265276Y32379561D02*
X89360514Y32427180D01*
X89360514Y32427180D02*
X89550990Y32427180D01*
X89550990Y32427180D02*
X89646228Y32379561D01*
X89646228Y32379561D02*
X89693847Y32331942D01*
X89693847Y32331942D02*
X89741466Y32236704D01*
X89741466Y32236704D02*
X89741466Y31998609D01*
X89741466Y31998609D02*
X89693847Y31903371D01*
X89693847Y31903371D02*
X89646228Y31855752D01*
X89646228Y31855752D02*
X89550990Y31808133D01*
X89550990Y31808133D02*
X89360514Y31808133D01*
X89360514Y31808133D02*
X89265276Y31855752D01*
X89265276Y31855752D02*
X89217657Y31903371D01*
X89217657Y31903371D02*
X89170038Y31998609D01*
X88789085Y32331942D02*
X88741466Y32379561D01*
X88741466Y32379561D02*
X88646228Y32427180D01*
X88646228Y32427180D02*
X88408133Y32427180D01*
X88408133Y32427180D02*
X88312895Y32379561D01*
X88312895Y32379561D02*
X88265276Y32331942D01*
X88265276Y32331942D02*
X88217657Y32236704D01*
X88217657Y32236704D02*
X88217657Y32141466D01*
X88217657Y32141466D02*
X88265276Y31998609D01*
X88265276Y31998609D02*
X88836704Y31427180D01*
X88836704Y31427180D02*
X88217657Y31427180D01*
X87789085Y31427180D02*
X87789085Y32427180D01*
X87693847Y31808133D02*
X87408133Y31427180D01*
X87408133Y32093847D02*
X87789085Y31712895D01*
X82581896Y17648263D02*
X82581896Y18224480D01*
X82581896Y17936372D02*
X81573516Y17936372D01*
X81573516Y17936372D02*
X81717570Y18032408D01*
X81717570Y18032408D02*
X81813606Y18128444D01*
X81813606Y18128444D02*
X81861624Y18224480D01*
X81909642Y17216100D02*
X82581896Y17216100D01*
X82005678Y17216100D02*
X81957660Y17168082D01*
X81957660Y17168082D02*
X81909642Y17072046D01*
X81909642Y17072046D02*
X81909642Y16927991D01*
X81909642Y16927991D02*
X81957660Y16831955D01*
X81957660Y16831955D02*
X82053697Y16783937D01*
X82053697Y16783937D02*
X82581896Y16783937D01*
X107686638Y39758380D02*
X108258066Y39758380D01*
X107972352Y39758380D02*
X107972352Y40758380D01*
X107972352Y40758380D02*
X108067590Y40615523D01*
X108067590Y40615523D02*
X108162828Y40520285D01*
X108162828Y40520285D02*
X108258066Y40472666D01*
X107067590Y40758380D02*
X106972352Y40758380D01*
X106972352Y40758380D02*
X106877114Y40710761D01*
X106877114Y40710761D02*
X106829495Y40663142D01*
X106829495Y40663142D02*
X106781876Y40567904D01*
X106781876Y40567904D02*
X106734257Y40377428D01*
X106734257Y40377428D02*
X106734257Y40139333D01*
X106734257Y40139333D02*
X106781876Y39948857D01*
X106781876Y39948857D02*
X106829495Y39853619D01*
X106829495Y39853619D02*
X106877114Y39806000D01*
X106877114Y39806000D02*
X106972352Y39758380D01*
X106972352Y39758380D02*
X107067590Y39758380D01*
X107067590Y39758380D02*
X107162828Y39806000D01*
X107162828Y39806000D02*
X107210447Y39853619D01*
X107210447Y39853619D02*
X107258066Y39948857D01*
X107258066Y39948857D02*
X107305685Y40139333D01*
X107305685Y40139333D02*
X107305685Y40377428D01*
X107305685Y40377428D02*
X107258066Y40567904D01*
X107258066Y40567904D02*
X107210447Y40663142D01*
X107210447Y40663142D02*
X107162828Y40710761D01*
X107162828Y40710761D02*
X107067590Y40758380D01*
X106305685Y39758380D02*
X106305685Y40758380D01*
X106210447Y40139333D02*
X105924733Y39758380D01*
X105924733Y40425047D02*
X106305685Y40044095D01*
X85213352Y90255876D02*
X85880019Y90255876D01*
X84832400Y90493971D02*
X85546685Y90732066D01*
X85546685Y90732066D02*
X85546685Y90113019D01*
X85880019Y89732066D02*
X84880019Y89732066D01*
X85499066Y89636828D02*
X85880019Y89351114D01*
X85213352Y89351114D02*
X85594304Y89732066D01*
X84880019Y89017780D02*
X84880019Y88351114D01*
X84880019Y88351114D02*
X85880019Y88779685D01*
X25219819Y62818828D02*
X25219819Y63390256D01*
X25219819Y63104542D02*
X24219819Y63104542D01*
X24219819Y63104542D02*
X24362676Y63199780D01*
X24362676Y63199780D02*
X24457914Y63295018D01*
X24457914Y63295018D02*
X24505533Y63390256D01*
X24219819Y62199780D02*
X24219819Y62104542D01*
X24219819Y62104542D02*
X24267438Y62009304D01*
X24267438Y62009304D02*
X24315057Y61961685D01*
X24315057Y61961685D02*
X24410295Y61914066D01*
X24410295Y61914066D02*
X24600771Y61866447D01*
X24600771Y61866447D02*
X24838866Y61866447D01*
X24838866Y61866447D02*
X25029342Y61914066D01*
X25029342Y61914066D02*
X25124580Y61961685D01*
X25124580Y61961685D02*
X25172200Y62009304D01*
X25172200Y62009304D02*
X25219819Y62104542D01*
X25219819Y62104542D02*
X25219819Y62199780D01*
X25219819Y62199780D02*
X25172200Y62295018D01*
X25172200Y62295018D02*
X25124580Y62342637D01*
X25124580Y62342637D02*
X25029342Y62390256D01*
X25029342Y62390256D02*
X24838866Y62437875D01*
X24838866Y62437875D02*
X24600771Y62437875D01*
X24600771Y62437875D02*
X24410295Y62390256D01*
X24410295Y62390256D02*
X24315057Y62342637D01*
X24315057Y62342637D02*
X24267438Y62295018D01*
X24267438Y62295018D02*
X24219819Y62199780D01*
X24219819Y61247399D02*
X24219819Y61152161D01*
X24219819Y61152161D02*
X24267438Y61056923D01*
X24267438Y61056923D02*
X24315057Y61009304D01*
X24315057Y61009304D02*
X24410295Y60961685D01*
X24410295Y60961685D02*
X24600771Y60914066D01*
X24600771Y60914066D02*
X24838866Y60914066D01*
X24838866Y60914066D02*
X25029342Y60961685D01*
X25029342Y60961685D02*
X25124580Y61009304D01*
X25124580Y61009304D02*
X25172200Y61056923D01*
X25172200Y61056923D02*
X25219819Y61152161D01*
X25219819Y61152161D02*
X25219819Y61247399D01*
X25219819Y61247399D02*
X25172200Y61342637D01*
X25172200Y61342637D02*
X25124580Y61390256D01*
X25124580Y61390256D02*
X25029342Y61437875D01*
X25029342Y61437875D02*
X24838866Y61485494D01*
X24838866Y61485494D02*
X24600771Y61485494D01*
X24600771Y61485494D02*
X24410295Y61437875D01*
X24410295Y61437875D02*
X24315057Y61390256D01*
X24315057Y61390256D02*
X24267438Y61342637D01*
X24267438Y61342637D02*
X24219819Y61247399D01*
X25219819Y60485494D02*
X24219819Y60485494D01*
X24838866Y60390256D02*
X25219819Y60104542D01*
X24553152Y60104542D02*
X24934104Y60485494D01*
X82607296Y36836063D02*
X82607296Y37412280D01*
X82607296Y37124172D02*
X81598916Y37124172D01*
X81598916Y37124172D02*
X81742970Y37220208D01*
X81742970Y37220208D02*
X81839006Y37316244D01*
X81839006Y37316244D02*
X81887024Y37412280D01*
X81935042Y36403900D02*
X82607296Y36403900D01*
X82031078Y36403900D02*
X81983060Y36355882D01*
X81983060Y36355882D02*
X81935042Y36259846D01*
X81935042Y36259846D02*
X81935042Y36115791D01*
X81935042Y36115791D02*
X81983060Y36019755D01*
X81983060Y36019755D02*
X82079097Y35971737D01*
X82079097Y35971737D02*
X82607296Y35971737D01*
X105234819Y27238428D02*
X105234819Y27047952D01*
X105234819Y27047952D02*
X105187200Y26952714D01*
X105187200Y26952714D02*
X105139580Y26905095D01*
X105139580Y26905095D02*
X104996723Y26809857D01*
X104996723Y26809857D02*
X104806247Y26762238D01*
X104806247Y26762238D02*
X104425295Y26762238D01*
X104425295Y26762238D02*
X104330057Y26809857D01*
X104330057Y26809857D02*
X104282438Y26857476D01*
X104282438Y26857476D02*
X104234819Y26952714D01*
X104234819Y26952714D02*
X104234819Y27143190D01*
X104234819Y27143190D02*
X104282438Y27238428D01*
X104282438Y27238428D02*
X104330057Y27286047D01*
X104330057Y27286047D02*
X104425295Y27333666D01*
X104425295Y27333666D02*
X104663390Y27333666D01*
X104663390Y27333666D02*
X104758628Y27286047D01*
X104758628Y27286047D02*
X104806247Y27238428D01*
X104806247Y27238428D02*
X104853866Y27143190D01*
X104853866Y27143190D02*
X104853866Y26952714D01*
X104853866Y26952714D02*
X104806247Y26857476D01*
X104806247Y26857476D02*
X104758628Y26809857D01*
X104758628Y26809857D02*
X104663390Y26762238D01*
X104330057Y26381285D02*
X104282438Y26333666D01*
X104282438Y26333666D02*
X104234819Y26238428D01*
X104234819Y26238428D02*
X104234819Y26000333D01*
X104234819Y26000333D02*
X104282438Y25905095D01*
X104282438Y25905095D02*
X104330057Y25857476D01*
X104330057Y25857476D02*
X104425295Y25809857D01*
X104425295Y25809857D02*
X104520533Y25809857D01*
X104520533Y25809857D02*
X104663390Y25857476D01*
X104663390Y25857476D02*
X105234819Y26428904D01*
X105234819Y26428904D02*
X105234819Y25809857D01*
X105234819Y25381285D02*
X104234819Y25381285D01*
X104853866Y25286047D02*
X105234819Y25000333D01*
X104568152Y25000333D02*
X104949104Y25381285D01*
X89620828Y39123380D02*
X90192256Y39123380D01*
X89906542Y39123380D02*
X89906542Y40123380D01*
X89906542Y40123380D02*
X90001780Y39980523D01*
X90001780Y39980523D02*
X90097018Y39885285D01*
X90097018Y39885285D02*
X90192256Y39837666D01*
X89001780Y40123380D02*
X88906542Y40123380D01*
X88906542Y40123380D02*
X88811304Y40075761D01*
X88811304Y40075761D02*
X88763685Y40028142D01*
X88763685Y40028142D02*
X88716066Y39932904D01*
X88716066Y39932904D02*
X88668447Y39742428D01*
X88668447Y39742428D02*
X88668447Y39504333D01*
X88668447Y39504333D02*
X88716066Y39313857D01*
X88716066Y39313857D02*
X88763685Y39218619D01*
X88763685Y39218619D02*
X88811304Y39171000D01*
X88811304Y39171000D02*
X88906542Y39123380D01*
X88906542Y39123380D02*
X89001780Y39123380D01*
X89001780Y39123380D02*
X89097018Y39171000D01*
X89097018Y39171000D02*
X89144637Y39218619D01*
X89144637Y39218619D02*
X89192256Y39313857D01*
X89192256Y39313857D02*
X89239875Y39504333D01*
X89239875Y39504333D02*
X89239875Y39742428D01*
X89239875Y39742428D02*
X89192256Y39932904D01*
X89192256Y39932904D02*
X89144637Y40028142D01*
X89144637Y40028142D02*
X89097018Y40075761D01*
X89097018Y40075761D02*
X89001780Y40123380D01*
X88049399Y40123380D02*
X87954161Y40123380D01*
X87954161Y40123380D02*
X87858923Y40075761D01*
X87858923Y40075761D02*
X87811304Y40028142D01*
X87811304Y40028142D02*
X87763685Y39932904D01*
X87763685Y39932904D02*
X87716066Y39742428D01*
X87716066Y39742428D02*
X87716066Y39504333D01*
X87716066Y39504333D02*
X87763685Y39313857D01*
X87763685Y39313857D02*
X87811304Y39218619D01*
X87811304Y39218619D02*
X87858923Y39171000D01*
X87858923Y39171000D02*
X87954161Y39123380D01*
X87954161Y39123380D02*
X88049399Y39123380D01*
X88049399Y39123380D02*
X88144637Y39171000D01*
X88144637Y39171000D02*
X88192256Y39218619D01*
X88192256Y39218619D02*
X88239875Y39313857D01*
X88239875Y39313857D02*
X88287494Y39504333D01*
X88287494Y39504333D02*
X88287494Y39742428D01*
X88287494Y39742428D02*
X88239875Y39932904D01*
X88239875Y39932904D02*
X88192256Y40028142D01*
X88192256Y40028142D02*
X88144637Y40075761D01*
X88144637Y40075761D02*
X88049399Y40123380D01*
X87287494Y39123380D02*
X87287494Y40123380D01*
X87192256Y39504333D02*
X86906542Y39123380D01*
X86906542Y39790047D02*
X87287494Y39409095D01*
X20216019Y28909828D02*
X20216019Y29481256D01*
X20216019Y29195542D02*
X19216019Y29195542D01*
X19216019Y29195542D02*
X19358876Y29290780D01*
X19358876Y29290780D02*
X19454114Y29386018D01*
X19454114Y29386018D02*
X19501733Y29481256D01*
X19216019Y28290780D02*
X19216019Y28195542D01*
X19216019Y28195542D02*
X19263638Y28100304D01*
X19263638Y28100304D02*
X19311257Y28052685D01*
X19311257Y28052685D02*
X19406495Y28005066D01*
X19406495Y28005066D02*
X19596971Y27957447D01*
X19596971Y27957447D02*
X19835066Y27957447D01*
X19835066Y27957447D02*
X20025542Y28005066D01*
X20025542Y28005066D02*
X20120780Y28052685D01*
X20120780Y28052685D02*
X20168400Y28100304D01*
X20168400Y28100304D02*
X20216019Y28195542D01*
X20216019Y28195542D02*
X20216019Y28290780D01*
X20216019Y28290780D02*
X20168400Y28386018D01*
X20168400Y28386018D02*
X20120780Y28433637D01*
X20120780Y28433637D02*
X20025542Y28481256D01*
X20025542Y28481256D02*
X19835066Y28528875D01*
X19835066Y28528875D02*
X19596971Y28528875D01*
X19596971Y28528875D02*
X19406495Y28481256D01*
X19406495Y28481256D02*
X19311257Y28433637D01*
X19311257Y28433637D02*
X19263638Y28386018D01*
X19263638Y28386018D02*
X19216019Y28290780D01*
X19216019Y27338399D02*
X19216019Y27243161D01*
X19216019Y27243161D02*
X19263638Y27147923D01*
X19263638Y27147923D02*
X19311257Y27100304D01*
X19311257Y27100304D02*
X19406495Y27052685D01*
X19406495Y27052685D02*
X19596971Y27005066D01*
X19596971Y27005066D02*
X19835066Y27005066D01*
X19835066Y27005066D02*
X20025542Y27052685D01*
X20025542Y27052685D02*
X20120780Y27100304D01*
X20120780Y27100304D02*
X20168400Y27147923D01*
X20168400Y27147923D02*
X20216019Y27243161D01*
X20216019Y27243161D02*
X20216019Y27338399D01*
X20216019Y27338399D02*
X20168400Y27433637D01*
X20168400Y27433637D02*
X20120780Y27481256D01*
X20120780Y27481256D02*
X20025542Y27528875D01*
X20025542Y27528875D02*
X19835066Y27576494D01*
X19835066Y27576494D02*
X19596971Y27576494D01*
X19596971Y27576494D02*
X19406495Y27528875D01*
X19406495Y27528875D02*
X19311257Y27481256D01*
X19311257Y27481256D02*
X19263638Y27433637D01*
X19263638Y27433637D02*
X19216019Y27338399D01*
X20216019Y26576494D02*
X19216019Y26576494D01*
X19835066Y26481256D02*
X20216019Y26195542D01*
X19549352Y26195542D02*
X19930304Y26576494D01*
X96320066Y14831342D02*
X96272447Y14878961D01*
X96272447Y14878961D02*
X96177209Y14926580D01*
X96177209Y14926580D02*
X95939114Y14926580D01*
X95939114Y14926580D02*
X95843876Y14878961D01*
X95843876Y14878961D02*
X95796257Y14831342D01*
X95796257Y14831342D02*
X95748638Y14736104D01*
X95748638Y14736104D02*
X95748638Y14640866D01*
X95748638Y14640866D02*
X95796257Y14498009D01*
X95796257Y14498009D02*
X96367685Y13926580D01*
X96367685Y13926580D02*
X95748638Y13926580D01*
X95320066Y13926580D02*
X95320066Y14926580D01*
X95224828Y14307533D02*
X94939114Y13926580D01*
X94939114Y14593247D02*
X95320066Y14212295D01*
X94558161Y14831342D02*
X94510542Y14878961D01*
X94510542Y14878961D02*
X94415304Y14926580D01*
X94415304Y14926580D02*
X94177209Y14926580D01*
X94177209Y14926580D02*
X94081971Y14878961D01*
X94081971Y14878961D02*
X94034352Y14831342D01*
X94034352Y14831342D02*
X93986733Y14736104D01*
X93986733Y14736104D02*
X93986733Y14640866D01*
X93986733Y14640866D02*
X94034352Y14498009D01*
X94034352Y14498009D02*
X94605780Y13926580D01*
X94605780Y13926580D02*
X93986733Y13926580D01*
X53381225Y32921903D02*
X53957442Y32921903D01*
X53669334Y32921903D02*
X53669334Y33930283D01*
X53669334Y33930283D02*
X53765370Y33786229D01*
X53765370Y33786229D02*
X53861406Y33690193D01*
X53861406Y33690193D02*
X53957442Y33642175D01*
X52756990Y33930283D02*
X52660953Y33930283D01*
X52660953Y33930283D02*
X52564917Y33882265D01*
X52564917Y33882265D02*
X52516899Y33834247D01*
X52516899Y33834247D02*
X52468881Y33738211D01*
X52468881Y33738211D02*
X52420863Y33546139D01*
X52420863Y33546139D02*
X52420863Y33306048D01*
X52420863Y33306048D02*
X52468881Y33113976D01*
X52468881Y33113976D02*
X52516899Y33017940D01*
X52516899Y33017940D02*
X52564917Y32969922D01*
X52564917Y32969922D02*
X52660953Y32921903D01*
X52660953Y32921903D02*
X52756990Y32921903D01*
X52756990Y32921903D02*
X52853026Y32969922D01*
X52853026Y32969922D02*
X52901044Y33017940D01*
X52901044Y33017940D02*
X52949062Y33113976D01*
X52949062Y33113976D02*
X52997080Y33306048D01*
X52997080Y33306048D02*
X52997080Y33546139D01*
X52997080Y33546139D02*
X52949062Y33738211D01*
X52949062Y33738211D02*
X52901044Y33834247D01*
X52901044Y33834247D02*
X52853026Y33882265D01*
X52853026Y33882265D02*
X52756990Y33930283D01*
X51796628Y33930283D02*
X51700591Y33930283D01*
X51700591Y33930283D02*
X51604555Y33882265D01*
X51604555Y33882265D02*
X51556537Y33834247D01*
X51556537Y33834247D02*
X51508519Y33738211D01*
X51508519Y33738211D02*
X51460501Y33546139D01*
X51460501Y33546139D02*
X51460501Y33306048D01*
X51460501Y33306048D02*
X51508519Y33113976D01*
X51508519Y33113976D02*
X51556537Y33017940D01*
X51556537Y33017940D02*
X51604555Y32969922D01*
X51604555Y32969922D02*
X51700591Y32921903D01*
X51700591Y32921903D02*
X51796628Y32921903D01*
X51796628Y32921903D02*
X51892664Y32969922D01*
X51892664Y32969922D02*
X51940682Y33017940D01*
X51940682Y33017940D02*
X51988700Y33113976D01*
X51988700Y33113976D02*
X52036718Y33306048D01*
X52036718Y33306048D02*
X52036718Y33546139D01*
X52036718Y33546139D02*
X51988700Y33738211D01*
X51988700Y33738211D02*
X51940682Y33834247D01*
X51940682Y33834247D02*
X51892664Y33882265D01*
X51892664Y33882265D02*
X51796628Y33930283D01*
X51028338Y33594157D02*
X51028338Y32921903D01*
X51028338Y33498121D02*
X50980320Y33546139D01*
X50980320Y33546139D02*
X50884284Y33594157D01*
X50884284Y33594157D02*
X50740229Y33594157D01*
X50740229Y33594157D02*
X50644193Y33546139D01*
X50644193Y33546139D02*
X50596175Y33450102D01*
X50596175Y33450102D02*
X50596175Y32921903D01*
X107807228Y29852380D02*
X107616752Y29852380D01*
X107616752Y29852380D02*
X107521514Y29900000D01*
X107521514Y29900000D02*
X107473895Y29947619D01*
X107473895Y29947619D02*
X107378657Y30090476D01*
X107378657Y30090476D02*
X107331038Y30280952D01*
X107331038Y30280952D02*
X107331038Y30661904D01*
X107331038Y30661904D02*
X107378657Y30757142D01*
X107378657Y30757142D02*
X107426276Y30804761D01*
X107426276Y30804761D02*
X107521514Y30852380D01*
X107521514Y30852380D02*
X107711990Y30852380D01*
X107711990Y30852380D02*
X107807228Y30804761D01*
X107807228Y30804761D02*
X107854847Y30757142D01*
X107854847Y30757142D02*
X107902466Y30661904D01*
X107902466Y30661904D02*
X107902466Y30423809D01*
X107902466Y30423809D02*
X107854847Y30328571D01*
X107854847Y30328571D02*
X107807228Y30280952D01*
X107807228Y30280952D02*
X107711990Y30233333D01*
X107711990Y30233333D02*
X107521514Y30233333D01*
X107521514Y30233333D02*
X107426276Y30280952D01*
X107426276Y30280952D02*
X107378657Y30328571D01*
X107378657Y30328571D02*
X107331038Y30423809D01*
X106950085Y30757142D02*
X106902466Y30804761D01*
X106902466Y30804761D02*
X106807228Y30852380D01*
X106807228Y30852380D02*
X106569133Y30852380D01*
X106569133Y30852380D02*
X106473895Y30804761D01*
X106473895Y30804761D02*
X106426276Y30757142D01*
X106426276Y30757142D02*
X106378657Y30661904D01*
X106378657Y30661904D02*
X106378657Y30566666D01*
X106378657Y30566666D02*
X106426276Y30423809D01*
X106426276Y30423809D02*
X106997704Y29852380D01*
X106997704Y29852380D02*
X106378657Y29852380D01*
X105950085Y29852380D02*
X105950085Y30852380D01*
X105854847Y30233333D02*
X105569133Y29852380D01*
X105569133Y30519047D02*
X105950085Y30138095D01*
X99615152Y29194276D02*
X100281819Y29194276D01*
X99234200Y29432371D02*
X99948485Y29670466D01*
X99948485Y29670466D02*
X99948485Y29051419D01*
X99281819Y28765704D02*
X99281819Y28099038D01*
X99281819Y28099038D02*
X100281819Y28527609D01*
X100281819Y27718085D02*
X99281819Y27718085D01*
X99900866Y27622847D02*
X100281819Y27337133D01*
X99615152Y27337133D02*
X99996104Y27718085D01*
X80057152Y76920876D02*
X80723819Y76920876D01*
X79676200Y77158971D02*
X80390485Y77397066D01*
X80390485Y77397066D02*
X80390485Y76778019D01*
X80723819Y76397066D02*
X79723819Y76397066D01*
X80342866Y76301828D02*
X80723819Y76016114D01*
X80057152Y76016114D02*
X80438104Y76397066D01*
X79723819Y75682780D02*
X79723819Y75016114D01*
X79723819Y75016114D02*
X80723819Y75444685D01*
X86308661Y16251883D02*
X86212624Y16251883D01*
X86212624Y16251883D02*
X86116588Y16203865D01*
X86116588Y16203865D02*
X86068570Y16155847D01*
X86068570Y16155847D02*
X86020552Y16059811D01*
X86020552Y16059811D02*
X85972534Y15867739D01*
X85972534Y15867739D02*
X85972534Y15627648D01*
X85972534Y15627648D02*
X86020552Y15435576D01*
X86020552Y15435576D02*
X86068570Y15339540D01*
X86068570Y15339540D02*
X86116588Y15291522D01*
X86116588Y15291522D02*
X86212624Y15243503D01*
X86212624Y15243503D02*
X86308661Y15243503D01*
X86308661Y15243503D02*
X86404697Y15291522D01*
X86404697Y15291522D02*
X86452715Y15339540D01*
X86452715Y15339540D02*
X86500733Y15435576D01*
X86500733Y15435576D02*
X86548751Y15627648D01*
X86548751Y15627648D02*
X86548751Y15867739D01*
X86548751Y15867739D02*
X86500733Y16059811D01*
X86500733Y16059811D02*
X86452715Y16155847D01*
X86452715Y16155847D02*
X86404697Y16203865D01*
X86404697Y16203865D02*
X86308661Y16251883D01*
X85540371Y15339540D02*
X85492353Y15291522D01*
X85492353Y15291522D02*
X85540371Y15243503D01*
X85540371Y15243503D02*
X85588389Y15291522D01*
X85588389Y15291522D02*
X85540371Y15339540D01*
X85540371Y15339540D02*
X85540371Y15243503D01*
X84531991Y15243503D02*
X85108208Y15243503D01*
X84820100Y15243503D02*
X84820100Y16251883D01*
X84820100Y16251883D02*
X84916136Y16107829D01*
X84916136Y16107829D02*
X85012172Y16011793D01*
X85012172Y16011793D02*
X85108208Y15963775D01*
X83667665Y15915757D02*
X83667665Y15243503D01*
X84099828Y15915757D02*
X84099828Y15387558D01*
X84099828Y15387558D02*
X84051810Y15291522D01*
X84051810Y15291522D02*
X83955774Y15243503D01*
X83955774Y15243503D02*
X83811719Y15243503D01*
X83811719Y15243503D02*
X83715683Y15291522D01*
X83715683Y15291522D02*
X83667665Y15339540D01*
X48897619Y71085238D02*
X48897619Y71656666D01*
X48897619Y71370952D02*
X47897619Y71370952D01*
X47897619Y71370952D02*
X48040476Y71466190D01*
X48040476Y71466190D02*
X48135714Y71561428D01*
X48135714Y71561428D02*
X48183333Y71656666D01*
X47897619Y70466190D02*
X47897619Y70370952D01*
X47897619Y70370952D02*
X47945238Y70275714D01*
X47945238Y70275714D02*
X47992857Y70228095D01*
X47992857Y70228095D02*
X48088095Y70180476D01*
X48088095Y70180476D02*
X48278571Y70132857D01*
X48278571Y70132857D02*
X48516666Y70132857D01*
X48516666Y70132857D02*
X48707142Y70180476D01*
X48707142Y70180476D02*
X48802380Y70228095D01*
X48802380Y70228095D02*
X48850000Y70275714D01*
X48850000Y70275714D02*
X48897619Y70370952D01*
X48897619Y70370952D02*
X48897619Y70466190D01*
X48897619Y70466190D02*
X48850000Y70561428D01*
X48850000Y70561428D02*
X48802380Y70609047D01*
X48802380Y70609047D02*
X48707142Y70656666D01*
X48707142Y70656666D02*
X48516666Y70704285D01*
X48516666Y70704285D02*
X48278571Y70704285D01*
X48278571Y70704285D02*
X48088095Y70656666D01*
X48088095Y70656666D02*
X47992857Y70609047D01*
X47992857Y70609047D02*
X47945238Y70561428D01*
X47945238Y70561428D02*
X47897619Y70466190D01*
X48897619Y69704285D02*
X47897619Y69704285D01*
X48516666Y69609047D02*
X48897619Y69323333D01*
X48230952Y69323333D02*
X48611904Y69704285D01*
X59980714Y32824180D02*
X60552142Y32824180D01*
X60266428Y32824180D02*
X60266428Y33824180D01*
X60266428Y33824180D02*
X60361666Y33681323D01*
X60361666Y33681323D02*
X60456904Y33586085D01*
X60456904Y33586085D02*
X60552142Y33538466D01*
X59552142Y32824180D02*
X59552142Y33824180D01*
X59552142Y33824180D02*
X59218809Y33109895D01*
X59218809Y33109895D02*
X58885476Y33824180D01*
X58885476Y33824180D02*
X58885476Y32824180D01*
X33405628Y31168180D02*
X33977056Y31168180D01*
X33691342Y31168180D02*
X33691342Y32168180D01*
X33691342Y32168180D02*
X33786580Y32025323D01*
X33786580Y32025323D02*
X33881818Y31930085D01*
X33881818Y31930085D02*
X33977056Y31882466D01*
X32786580Y32168180D02*
X32691342Y32168180D01*
X32691342Y32168180D02*
X32596104Y32120561D01*
X32596104Y32120561D02*
X32548485Y32072942D01*
X32548485Y32072942D02*
X32500866Y31977704D01*
X32500866Y31977704D02*
X32453247Y31787228D01*
X32453247Y31787228D02*
X32453247Y31549133D01*
X32453247Y31549133D02*
X32500866Y31358657D01*
X32500866Y31358657D02*
X32548485Y31263419D01*
X32548485Y31263419D02*
X32596104Y31215800D01*
X32596104Y31215800D02*
X32691342Y31168180D01*
X32691342Y31168180D02*
X32786580Y31168180D01*
X32786580Y31168180D02*
X32881818Y31215800D01*
X32881818Y31215800D02*
X32929437Y31263419D01*
X32929437Y31263419D02*
X32977056Y31358657D01*
X32977056Y31358657D02*
X33024675Y31549133D01*
X33024675Y31549133D02*
X33024675Y31787228D01*
X33024675Y31787228D02*
X32977056Y31977704D01*
X32977056Y31977704D02*
X32929437Y32072942D01*
X32929437Y32072942D02*
X32881818Y32120561D01*
X32881818Y32120561D02*
X32786580Y32168180D01*
X31834199Y32168180D02*
X31738961Y32168180D01*
X31738961Y32168180D02*
X31643723Y32120561D01*
X31643723Y32120561D02*
X31596104Y32072942D01*
X31596104Y32072942D02*
X31548485Y31977704D01*
X31548485Y31977704D02*
X31500866Y31787228D01*
X31500866Y31787228D02*
X31500866Y31549133D01*
X31500866Y31549133D02*
X31548485Y31358657D01*
X31548485Y31358657D02*
X31596104Y31263419D01*
X31596104Y31263419D02*
X31643723Y31215800D01*
X31643723Y31215800D02*
X31738961Y31168180D01*
X31738961Y31168180D02*
X31834199Y31168180D01*
X31834199Y31168180D02*
X31929437Y31215800D01*
X31929437Y31215800D02*
X31977056Y31263419D01*
X31977056Y31263419D02*
X32024675Y31358657D01*
X32024675Y31358657D02*
X32072294Y31549133D01*
X32072294Y31549133D02*
X32072294Y31787228D01*
X32072294Y31787228D02*
X32024675Y31977704D01*
X32024675Y31977704D02*
X31977056Y32072942D01*
X31977056Y32072942D02*
X31929437Y32120561D01*
X31929437Y32120561D02*
X31834199Y32168180D01*
X31072294Y31168180D02*
X31072294Y32168180D01*
X30977056Y31549133D02*
X30691342Y31168180D01*
X30691342Y31834847D02*
X31072294Y31453895D01*
X76421819Y17403904D02*
X76421819Y17594380D01*
X76421819Y17594380D02*
X76469438Y17689618D01*
X76469438Y17689618D02*
X76517057Y17737237D01*
X76517057Y17737237D02*
X76659914Y17832475D01*
X76659914Y17832475D02*
X76850390Y17880094D01*
X76850390Y17880094D02*
X77231342Y17880094D01*
X77231342Y17880094D02*
X77326580Y17832475D01*
X77326580Y17832475D02*
X77374200Y17784856D01*
X77374200Y17784856D02*
X77421819Y17689618D01*
X77421819Y17689618D02*
X77421819Y17499142D01*
X77421819Y17499142D02*
X77374200Y17403904D01*
X77374200Y17403904D02*
X77326580Y17356285D01*
X77326580Y17356285D02*
X77231342Y17308666D01*
X77231342Y17308666D02*
X76993247Y17308666D01*
X76993247Y17308666D02*
X76898009Y17356285D01*
X76898009Y17356285D02*
X76850390Y17403904D01*
X76850390Y17403904D02*
X76802771Y17499142D01*
X76802771Y17499142D02*
X76802771Y17689618D01*
X76802771Y17689618D02*
X76850390Y17784856D01*
X76850390Y17784856D02*
X76898009Y17832475D01*
X76898009Y17832475D02*
X76993247Y17880094D01*
X76850390Y16737237D02*
X76802771Y16832475D01*
X76802771Y16832475D02*
X76755152Y16880094D01*
X76755152Y16880094D02*
X76659914Y16927713D01*
X76659914Y16927713D02*
X76612295Y16927713D01*
X76612295Y16927713D02*
X76517057Y16880094D01*
X76517057Y16880094D02*
X76469438Y16832475D01*
X76469438Y16832475D02*
X76421819Y16737237D01*
X76421819Y16737237D02*
X76421819Y16546761D01*
X76421819Y16546761D02*
X76469438Y16451523D01*
X76469438Y16451523D02*
X76517057Y16403904D01*
X76517057Y16403904D02*
X76612295Y16356285D01*
X76612295Y16356285D02*
X76659914Y16356285D01*
X76659914Y16356285D02*
X76755152Y16403904D01*
X76755152Y16403904D02*
X76802771Y16451523D01*
X76802771Y16451523D02*
X76850390Y16546761D01*
X76850390Y16546761D02*
X76850390Y16737237D01*
X76850390Y16737237D02*
X76898009Y16832475D01*
X76898009Y16832475D02*
X76945628Y16880094D01*
X76945628Y16880094D02*
X77040866Y16927713D01*
X77040866Y16927713D02*
X77231342Y16927713D01*
X77231342Y16927713D02*
X77326580Y16880094D01*
X77326580Y16880094D02*
X77374200Y16832475D01*
X77374200Y16832475D02*
X77421819Y16737237D01*
X77421819Y16737237D02*
X77421819Y16546761D01*
X77421819Y16546761D02*
X77374200Y16451523D01*
X77374200Y16451523D02*
X77326580Y16403904D01*
X77326580Y16403904D02*
X77231342Y16356285D01*
X77231342Y16356285D02*
X77040866Y16356285D01*
X77040866Y16356285D02*
X76945628Y16403904D01*
X76945628Y16403904D02*
X76898009Y16451523D01*
X76898009Y16451523D02*
X76850390Y16546761D01*
X76421819Y15737237D02*
X76421819Y15641999D01*
X76421819Y15641999D02*
X76469438Y15546761D01*
X76469438Y15546761D02*
X76517057Y15499142D01*
X76517057Y15499142D02*
X76612295Y15451523D01*
X76612295Y15451523D02*
X76802771Y15403904D01*
X76802771Y15403904D02*
X77040866Y15403904D01*
X77040866Y15403904D02*
X77231342Y15451523D01*
X77231342Y15451523D02*
X77326580Y15499142D01*
X77326580Y15499142D02*
X77374200Y15546761D01*
X77374200Y15546761D02*
X77421819Y15641999D01*
X77421819Y15641999D02*
X77421819Y15737237D01*
X77421819Y15737237D02*
X77374200Y15832475D01*
X77374200Y15832475D02*
X77326580Y15880094D01*
X77326580Y15880094D02*
X77231342Y15927713D01*
X77231342Y15927713D02*
X77040866Y15975332D01*
X77040866Y15975332D02*
X76802771Y15975332D01*
X76802771Y15975332D02*
X76612295Y15927713D01*
X76612295Y15927713D02*
X76517057Y15880094D01*
X76517057Y15880094D02*
X76469438Y15832475D01*
X76469438Y15832475D02*
X76421819Y15737237D01*
X69033552Y17281676D02*
X69700219Y17281676D01*
X68652600Y17519771D02*
X69366885Y17757866D01*
X69366885Y17757866D02*
X69366885Y17138819D01*
X68700219Y16853104D02*
X68700219Y16186438D01*
X68700219Y16186438D02*
X69700219Y16615009D01*
X69700219Y15805485D02*
X68700219Y15805485D01*
X69319266Y15710247D02*
X69700219Y15424533D01*
X69033552Y15424533D02*
X69414504Y15805485D01*
X83663952Y77149476D02*
X84330619Y77149476D01*
X83283000Y77387571D02*
X83997285Y77625666D01*
X83997285Y77625666D02*
X83997285Y77006619D01*
X84330619Y76625666D02*
X83330619Y76625666D01*
X83949666Y76530428D02*
X84330619Y76244714D01*
X83663952Y76244714D02*
X84044904Y76625666D01*
X83330619Y75911380D02*
X83330619Y75244714D01*
X83330619Y75244714D02*
X84330619Y75673285D01*
X57331066Y82395342D02*
X57283447Y82442961D01*
X57283447Y82442961D02*
X57188209Y82490580D01*
X57188209Y82490580D02*
X56950114Y82490580D01*
X56950114Y82490580D02*
X56854876Y82442961D01*
X56854876Y82442961D02*
X56807257Y82395342D01*
X56807257Y82395342D02*
X56759638Y82300104D01*
X56759638Y82300104D02*
X56759638Y82204866D01*
X56759638Y82204866D02*
X56807257Y82062009D01*
X56807257Y82062009D02*
X57378685Y81490580D01*
X57378685Y81490580D02*
X56759638Y81490580D01*
X56378685Y82395342D02*
X56331066Y82442961D01*
X56331066Y82442961D02*
X56235828Y82490580D01*
X56235828Y82490580D02*
X55997733Y82490580D01*
X55997733Y82490580D02*
X55902495Y82442961D01*
X55902495Y82442961D02*
X55854876Y82395342D01*
X55854876Y82395342D02*
X55807257Y82300104D01*
X55807257Y82300104D02*
X55807257Y82204866D01*
X55807257Y82204866D02*
X55854876Y82062009D01*
X55854876Y82062009D02*
X56426304Y81490580D01*
X56426304Y81490580D02*
X55807257Y81490580D01*
X55378685Y81490580D02*
X55378685Y82490580D01*
X55283447Y81871533D02*
X54997733Y81490580D01*
X54997733Y82157247D02*
X55378685Y81776295D01*
X86228661Y2281883D02*
X86132624Y2281883D01*
X86132624Y2281883D02*
X86036588Y2233865D01*
X86036588Y2233865D02*
X85988570Y2185847D01*
X85988570Y2185847D02*
X85940552Y2089811D01*
X85940552Y2089811D02*
X85892534Y1897739D01*
X85892534Y1897739D02*
X85892534Y1657648D01*
X85892534Y1657648D02*
X85940552Y1465576D01*
X85940552Y1465576D02*
X85988570Y1369540D01*
X85988570Y1369540D02*
X86036588Y1321522D01*
X86036588Y1321522D02*
X86132624Y1273503D01*
X86132624Y1273503D02*
X86228661Y1273503D01*
X86228661Y1273503D02*
X86324697Y1321522D01*
X86324697Y1321522D02*
X86372715Y1369540D01*
X86372715Y1369540D02*
X86420733Y1465576D01*
X86420733Y1465576D02*
X86468751Y1657648D01*
X86468751Y1657648D02*
X86468751Y1897739D01*
X86468751Y1897739D02*
X86420733Y2089811D01*
X86420733Y2089811D02*
X86372715Y2185847D01*
X86372715Y2185847D02*
X86324697Y2233865D01*
X86324697Y2233865D02*
X86228661Y2281883D01*
X85460371Y1369540D02*
X85412353Y1321522D01*
X85412353Y1321522D02*
X85460371Y1273503D01*
X85460371Y1273503D02*
X85508389Y1321522D01*
X85508389Y1321522D02*
X85460371Y1369540D01*
X85460371Y1369540D02*
X85460371Y1273503D01*
X84451991Y1273503D02*
X85028208Y1273503D01*
X84740100Y1273503D02*
X84740100Y2281883D01*
X84740100Y2281883D02*
X84836136Y2137829D01*
X84836136Y2137829D02*
X84932172Y2041793D01*
X84932172Y2041793D02*
X85028208Y1993775D01*
X83587665Y1945757D02*
X83587665Y1273503D01*
X84019828Y1945757D02*
X84019828Y1417558D01*
X84019828Y1417558D02*
X83971810Y1321522D01*
X83971810Y1321522D02*
X83875774Y1273503D01*
X83875774Y1273503D02*
X83731719Y1273503D01*
X83731719Y1273503D02*
X83635683Y1321522D01*
X83635683Y1321522D02*
X83587665Y1369540D01*
X78422057Y70539066D02*
X78374438Y70491447D01*
X78374438Y70491447D02*
X78326819Y70396209D01*
X78326819Y70396209D02*
X78326819Y70158114D01*
X78326819Y70158114D02*
X78374438Y70062876D01*
X78374438Y70062876D02*
X78422057Y70015257D01*
X78422057Y70015257D02*
X78517295Y69967638D01*
X78517295Y69967638D02*
X78612533Y69967638D01*
X78612533Y69967638D02*
X78755390Y70015257D01*
X78755390Y70015257D02*
X79326819Y70586685D01*
X79326819Y70586685D02*
X79326819Y69967638D01*
X79326819Y69539066D02*
X78326819Y69539066D01*
X78945866Y69443828D02*
X79326819Y69158114D01*
X78660152Y69158114D02*
X79041104Y69539066D01*
X78422057Y68777161D02*
X78374438Y68729542D01*
X78374438Y68729542D02*
X78326819Y68634304D01*
X78326819Y68634304D02*
X78326819Y68396209D01*
X78326819Y68396209D02*
X78374438Y68300971D01*
X78374438Y68300971D02*
X78422057Y68253352D01*
X78422057Y68253352D02*
X78517295Y68205733D01*
X78517295Y68205733D02*
X78612533Y68205733D01*
X78612533Y68205733D02*
X78755390Y68253352D01*
X78755390Y68253352D02*
X79326819Y68824780D01*
X79326819Y68824780D02*
X79326819Y68205733D01*
X70582226Y89436903D02*
X71158443Y89436903D01*
X70870335Y89436903D02*
X70870335Y90445283D01*
X70870335Y90445283D02*
X70966371Y90301229D01*
X70966371Y90301229D02*
X71062407Y90205193D01*
X71062407Y90205193D02*
X71158443Y90157175D01*
X70150063Y90109157D02*
X70150063Y89436903D01*
X70150063Y90013121D02*
X70102045Y90061139D01*
X70102045Y90061139D02*
X70006009Y90109157D01*
X70006009Y90109157D02*
X69861954Y90109157D01*
X69861954Y90109157D02*
X69765918Y90061139D01*
X69765918Y90061139D02*
X69717900Y89965102D01*
X69717900Y89965102D02*
X69717900Y89436903D01*
X68901592Y89965102D02*
X69237719Y89965102D01*
X69237719Y89436903D02*
X69237719Y90445283D01*
X69237719Y90445283D02*
X68757538Y90445283D01*
X33431028Y36654580D02*
X34002456Y36654580D01*
X33716742Y36654580D02*
X33716742Y37654580D01*
X33716742Y37654580D02*
X33811980Y37511723D01*
X33811980Y37511723D02*
X33907218Y37416485D01*
X33907218Y37416485D02*
X34002456Y37368866D01*
X32811980Y37654580D02*
X32716742Y37654580D01*
X32716742Y37654580D02*
X32621504Y37606961D01*
X32621504Y37606961D02*
X32573885Y37559342D01*
X32573885Y37559342D02*
X32526266Y37464104D01*
X32526266Y37464104D02*
X32478647Y37273628D01*
X32478647Y37273628D02*
X32478647Y37035533D01*
X32478647Y37035533D02*
X32526266Y36845057D01*
X32526266Y36845057D02*
X32573885Y36749819D01*
X32573885Y36749819D02*
X32621504Y36702200D01*
X32621504Y36702200D02*
X32716742Y36654580D01*
X32716742Y36654580D02*
X32811980Y36654580D01*
X32811980Y36654580D02*
X32907218Y36702200D01*
X32907218Y36702200D02*
X32954837Y36749819D01*
X32954837Y36749819D02*
X33002456Y36845057D01*
X33002456Y36845057D02*
X33050075Y37035533D01*
X33050075Y37035533D02*
X33050075Y37273628D01*
X33050075Y37273628D02*
X33002456Y37464104D01*
X33002456Y37464104D02*
X32954837Y37559342D01*
X32954837Y37559342D02*
X32907218Y37606961D01*
X32907218Y37606961D02*
X32811980Y37654580D01*
X31859599Y37654580D02*
X31764361Y37654580D01*
X31764361Y37654580D02*
X31669123Y37606961D01*
X31669123Y37606961D02*
X31621504Y37559342D01*
X31621504Y37559342D02*
X31573885Y37464104D01*
X31573885Y37464104D02*
X31526266Y37273628D01*
X31526266Y37273628D02*
X31526266Y37035533D01*
X31526266Y37035533D02*
X31573885Y36845057D01*
X31573885Y36845057D02*
X31621504Y36749819D01*
X31621504Y36749819D02*
X31669123Y36702200D01*
X31669123Y36702200D02*
X31764361Y36654580D01*
X31764361Y36654580D02*
X31859599Y36654580D01*
X31859599Y36654580D02*
X31954837Y36702200D01*
X31954837Y36702200D02*
X32002456Y36749819D01*
X32002456Y36749819D02*
X32050075Y36845057D01*
X32050075Y36845057D02*
X32097694Y37035533D01*
X32097694Y37035533D02*
X32097694Y37273628D01*
X32097694Y37273628D02*
X32050075Y37464104D01*
X32050075Y37464104D02*
X32002456Y37559342D01*
X32002456Y37559342D02*
X31954837Y37606961D01*
X31954837Y37606961D02*
X31859599Y37654580D01*
X31097694Y36654580D02*
X31097694Y37654580D01*
X31002456Y37035533D02*
X30716742Y36654580D01*
X30716742Y37321247D02*
X31097694Y36940295D01*
X87771116Y97532024D02*
X87771116Y97435987D01*
X87771116Y97435987D02*
X87819134Y97339951D01*
X87819134Y97339951D02*
X87867152Y97291933D01*
X87867152Y97291933D02*
X87963188Y97243915D01*
X87963188Y97243915D02*
X88155260Y97195897D01*
X88155260Y97195897D02*
X88395351Y97195897D01*
X88395351Y97195897D02*
X88587423Y97243915D01*
X88587423Y97243915D02*
X88683459Y97291933D01*
X88683459Y97291933D02*
X88731478Y97339951D01*
X88731478Y97339951D02*
X88779496Y97435987D01*
X88779496Y97435987D02*
X88779496Y97532024D01*
X88779496Y97532024D02*
X88731478Y97628060D01*
X88731478Y97628060D02*
X88683459Y97676078D01*
X88683459Y97676078D02*
X88587423Y97724096D01*
X88587423Y97724096D02*
X88395351Y97772114D01*
X88395351Y97772114D02*
X88155260Y97772114D01*
X88155260Y97772114D02*
X87963188Y97724096D01*
X87963188Y97724096D02*
X87867152Y97676078D01*
X87867152Y97676078D02*
X87819134Y97628060D01*
X87819134Y97628060D02*
X87771116Y97532024D01*
X88683459Y96763734D02*
X88731478Y96715716D01*
X88731478Y96715716D02*
X88779496Y96763734D01*
X88779496Y96763734D02*
X88731478Y96811752D01*
X88731478Y96811752D02*
X88683459Y96763734D01*
X88683459Y96763734D02*
X88779496Y96763734D01*
X88779496Y95755354D02*
X88779496Y96331571D01*
X88779496Y96043463D02*
X87771116Y96043463D01*
X87771116Y96043463D02*
X87915170Y96139499D01*
X87915170Y96139499D02*
X88011206Y96235535D01*
X88011206Y96235535D02*
X88059224Y96331571D01*
X88107242Y94891028D02*
X88779496Y94891028D01*
X88107242Y95323191D02*
X88635441Y95323191D01*
X88635441Y95323191D02*
X88731478Y95275173D01*
X88731478Y95275173D02*
X88779496Y95179137D01*
X88779496Y95179137D02*
X88779496Y95035082D01*
X88779496Y95035082D02*
X88731478Y94939046D01*
X88731478Y94939046D02*
X88683459Y94891028D01*
X88251297Y94074720D02*
X88251297Y94410847D01*
X88779496Y94410847D02*
X87771116Y94410847D01*
X87771116Y94410847D02*
X87771116Y93930666D01*
D12*
%TO.C,R309*%
X64063177Y33960919D02*
X63682177Y34341919D01*
X65843859Y33964515D02*
X66224859Y34345515D01*
X63682177Y34341919D02*
X63682177Y35738919D01*
X66224859Y34345515D02*
X66224859Y35742515D01*
X63682177Y35738919D02*
X63809177Y35865919D01*
X66224859Y35742515D02*
X66097859Y35869515D01*
X63809177Y35865919D02*
X63809177Y37135919D01*
X66097859Y35869515D02*
X66097859Y37139515D01*
X63809177Y38405919D02*
X63809177Y37135919D01*
X66097859Y38409515D02*
X66097859Y37139515D01*
X63682177Y38532919D02*
X63809177Y38405919D01*
X66224859Y38536515D02*
X66097859Y38409515D01*
X63682177Y39929919D02*
X63682177Y38532919D01*
X66224859Y39933515D02*
X66224859Y38536515D01*
X64063177Y40310919D02*
X63682177Y39929919D01*
X65843859Y40314515D02*
X66224859Y39933515D01*
%TO.C,R307*%
X70463977Y33960919D02*
X70082977Y34341919D01*
X72244659Y33964515D02*
X72625659Y34345515D01*
X70082977Y34341919D02*
X70082977Y35738919D01*
X72625659Y34345515D02*
X72625659Y35742515D01*
X70082977Y35738919D02*
X70209977Y35865919D01*
X72625659Y35742515D02*
X72498659Y35869515D01*
X70209977Y35865919D02*
X70209977Y37135919D01*
X72498659Y35869515D02*
X72498659Y37139515D01*
X70209977Y38405919D02*
X70209977Y37135919D01*
X72498659Y38409515D02*
X72498659Y37139515D01*
X70082977Y38532919D02*
X70209977Y38405919D01*
X72625659Y38536515D02*
X72498659Y38409515D01*
X70082977Y39929919D02*
X70082977Y38532919D01*
X72625659Y39933515D02*
X72625659Y38536515D01*
X70463977Y40310919D02*
X70082977Y39929919D01*
X72244659Y40314515D02*
X72625659Y39933515D01*
%TO.C,R207*%
X25706859Y54762115D02*
X26087859Y54381115D01*
X23926177Y54758519D02*
X23545177Y54377519D01*
X26087859Y54381115D02*
X26087859Y52984115D01*
X23545177Y54377519D02*
X23545177Y52980519D01*
X26087859Y52984115D02*
X25960859Y52857115D01*
X23545177Y52980519D02*
X23672177Y52853519D01*
X25960859Y52857115D02*
X25960859Y51587115D01*
X23672177Y52853519D02*
X23672177Y51583519D01*
X25960859Y50317115D02*
X25960859Y51587115D01*
X23672177Y50313519D02*
X23672177Y51583519D01*
X26087859Y50190115D02*
X25960859Y50317115D01*
X23545177Y50186519D02*
X23672177Y50313519D01*
X26087859Y48793115D02*
X26087859Y50190115D01*
X23545177Y48789519D02*
X23545177Y50186519D01*
X25706859Y48412115D02*
X26087859Y48793115D01*
X23926177Y48408519D02*
X23545177Y48789519D01*
%TO.C,R304*%
X61857881Y25683777D02*
X61476881Y25302777D01*
X61854285Y27464459D02*
X61473285Y27845459D01*
X61476881Y25302777D02*
X60079881Y25302777D01*
X61473285Y27845459D02*
X60076285Y27845459D01*
X60079881Y25302777D02*
X59952881Y25429777D01*
X60076285Y27845459D02*
X59949285Y27718459D01*
X59952881Y25429777D02*
X58682881Y25429777D01*
X59949285Y27718459D02*
X58679285Y27718459D01*
X57412881Y25429777D02*
X58682881Y25429777D01*
X57409285Y27718459D02*
X58679285Y27718459D01*
X57285881Y25302777D02*
X57412881Y25429777D01*
X57282285Y27845459D02*
X57409285Y27718459D01*
X55888881Y25302777D02*
X57285881Y25302777D01*
X55885285Y27845459D02*
X57282285Y27845459D01*
X55507881Y25683777D02*
X55888881Y25302777D01*
X55504285Y27464459D02*
X55885285Y27845459D01*
%TO.C,R318*%
X91728281Y36123177D02*
X91347281Y35742177D01*
X91724685Y37903859D02*
X91343685Y38284859D01*
X91347281Y35742177D02*
X89950281Y35742177D01*
X91343685Y38284859D02*
X89946685Y38284859D01*
X89950281Y35742177D02*
X89823281Y35869177D01*
X89946685Y38284859D02*
X89819685Y38157859D01*
X89823281Y35869177D02*
X88553281Y35869177D01*
X89819685Y38157859D02*
X88549685Y38157859D01*
X87283281Y35869177D02*
X88553281Y35869177D01*
X87279685Y38157859D02*
X88549685Y38157859D01*
X87156281Y35742177D02*
X87283281Y35869177D01*
X87152685Y38284859D02*
X87279685Y38157859D01*
X85759281Y35742177D02*
X87156281Y35742177D01*
X85755685Y38284859D02*
X87152685Y38284859D01*
X85378281Y36123177D02*
X85759281Y35742177D01*
X85374685Y37903859D02*
X85755685Y38284859D01*
%TO.C,R216*%
X2745259Y99948715D02*
X3126259Y99567715D01*
X964577Y99945119D02*
X583577Y99564119D01*
X3126259Y99567715D02*
X3126259Y98170715D01*
X583577Y99564119D02*
X583577Y98167119D01*
X3126259Y98170715D02*
X2999259Y98043715D01*
X583577Y98167119D02*
X710577Y98040119D01*
X2999259Y98043715D02*
X2999259Y96773715D01*
X710577Y98040119D02*
X710577Y96770119D01*
X2999259Y95503715D02*
X2999259Y96773715D01*
X710577Y95500119D02*
X710577Y96770119D01*
X3126259Y95376715D02*
X2999259Y95503715D01*
X583577Y95373119D02*
X710577Y95500119D01*
X3126259Y93979715D02*
X3126259Y95376715D01*
X583577Y93976119D02*
X583577Y95373119D01*
X2745259Y93598715D02*
X3126259Y93979715D01*
X964577Y93595119D02*
X583577Y93976119D01*
%TO.C,R329*%
X45771919Y78796423D02*
X46152919Y79177423D01*
X45775515Y77015741D02*
X46156515Y76634741D01*
X46152919Y79177423D02*
X47549919Y79177423D01*
X46156515Y76634741D02*
X47553515Y76634741D01*
X47549919Y79177423D02*
X47676919Y79050423D01*
X47553515Y76634741D02*
X47680515Y76761741D01*
X47676919Y79050423D02*
X48946919Y79050423D01*
X47680515Y76761741D02*
X48950515Y76761741D01*
X50216919Y79050423D02*
X48946919Y79050423D01*
X50220515Y76761741D02*
X48950515Y76761741D01*
X50343919Y79177423D02*
X50216919Y79050423D01*
X50347515Y76634741D02*
X50220515Y76761741D01*
X51740919Y79177423D02*
X50343919Y79177423D01*
X51744515Y76634741D02*
X50347515Y76634741D01*
X52121919Y78796423D02*
X51740919Y79177423D01*
X52125515Y77015741D02*
X51744515Y76634741D01*
%TO.C,R320*%
X103556919Y36886423D02*
X103937919Y37267423D01*
X103560515Y35105741D02*
X103941515Y34724741D01*
X103937919Y37267423D02*
X105334919Y37267423D01*
X103941515Y34724741D02*
X105338515Y34724741D01*
X105334919Y37267423D02*
X105461919Y37140423D01*
X105338515Y34724741D02*
X105465515Y34851741D01*
X105461919Y37140423D02*
X106731919Y37140423D01*
X105465515Y34851741D02*
X106735515Y34851741D01*
X108001919Y37140423D02*
X106731919Y37140423D01*
X108005515Y34851741D02*
X106735515Y34851741D01*
X108128919Y37267423D02*
X108001919Y37140423D01*
X108132515Y34724741D02*
X108005515Y34851741D01*
X109525919Y37267423D02*
X108128919Y37267423D01*
X109529515Y34724741D02*
X108132515Y34724741D01*
X109906919Y36886423D02*
X109525919Y37267423D01*
X109910515Y35105741D02*
X109529515Y34724741D01*
%TO.C,R303*%
X61908681Y20629177D02*
X61527681Y20248177D01*
X61905085Y22409859D02*
X61524085Y22790859D01*
X61527681Y20248177D02*
X60130681Y20248177D01*
X61524085Y22790859D02*
X60127085Y22790859D01*
X60130681Y20248177D02*
X60003681Y20375177D01*
X60127085Y22790859D02*
X60000085Y22663859D01*
X60003681Y20375177D02*
X58733681Y20375177D01*
X60000085Y22663859D02*
X58730085Y22663859D01*
X57463681Y20375177D02*
X58733681Y20375177D01*
X57460085Y22663859D02*
X58730085Y22663859D01*
X57336681Y20248177D02*
X57463681Y20375177D01*
X57333085Y22790859D02*
X57460085Y22663859D01*
X55939681Y20248177D02*
X57336681Y20248177D01*
X55936085Y22790859D02*
X57333085Y22790859D01*
X55558681Y20629177D02*
X55939681Y20248177D01*
X55555085Y22409859D02*
X55936085Y22790859D01*
%TO.C,R215*%
X8635715Y78788741D02*
X8254715Y78407741D01*
X8632119Y80569423D02*
X8251119Y80950423D01*
X8254715Y78407741D02*
X6857715Y78407741D01*
X8251119Y80950423D02*
X6854119Y80950423D01*
X6857715Y78407741D02*
X6730715Y78534741D01*
X6854119Y80950423D02*
X6727119Y80823423D01*
X6730715Y78534741D02*
X5460715Y78534741D01*
X6727119Y80823423D02*
X5457119Y80823423D01*
X4190715Y78534741D02*
X5460715Y78534741D01*
X4187119Y80823423D02*
X5457119Y80823423D01*
X4063715Y78407741D02*
X4190715Y78534741D01*
X4060119Y80950423D02*
X4187119Y80823423D01*
X2666715Y78407741D02*
X4063715Y78407741D01*
X2663119Y80950423D02*
X4060119Y80950423D01*
X2285715Y78788741D02*
X2666715Y78407741D01*
X2282119Y80569423D02*
X2663119Y80950423D01*
%TO.C,R204*%
X18798059Y64871315D02*
X19179059Y64490315D01*
X17017377Y64867719D02*
X16636377Y64486719D01*
X19179059Y64490315D02*
X19179059Y63093315D01*
X16636377Y64486719D02*
X16636377Y63089719D01*
X19179059Y63093315D02*
X19052059Y62966315D01*
X16636377Y63089719D02*
X16763377Y62962719D01*
X19052059Y62966315D02*
X19052059Y61696315D01*
X16763377Y62962719D02*
X16763377Y61692719D01*
X19052059Y60426315D02*
X19052059Y61696315D01*
X16763377Y60422719D02*
X16763377Y61692719D01*
X19179059Y60299315D02*
X19052059Y60426315D01*
X16636377Y60295719D02*
X16763377Y60422719D01*
X19179059Y58902315D02*
X19179059Y60299315D01*
X16636377Y58898719D02*
X16636377Y60295719D01*
X18798059Y58521315D02*
X19179059Y58902315D01*
X17017377Y58517719D02*
X16636377Y58898719D01*
D11*
%TO.C,U202*%
X25069800Y81407000D02*
X15544800Y81407000D01*
X15544800Y81407000D02*
X15544800Y83947000D01*
X15544800Y83947000D02*
X25069800Y83947000D01*
X25069800Y83947000D02*
X25069800Y81407000D01*
D12*
%TO.C,R315*%
X90298119Y20909823D02*
X90679119Y21290823D01*
X90301715Y19129141D02*
X90682715Y18748141D01*
X90679119Y21290823D02*
X92076119Y21290823D01*
X90682715Y18748141D02*
X92079715Y18748141D01*
X92076119Y21290823D02*
X92203119Y21163823D01*
X92079715Y18748141D02*
X92206715Y18875141D01*
X92203119Y21163823D02*
X93473119Y21163823D01*
X92206715Y18875141D02*
X93476715Y18875141D01*
X94743119Y21163823D02*
X93473119Y21163823D01*
X94746715Y18875141D02*
X93476715Y18875141D01*
X94870119Y21290823D02*
X94743119Y21163823D01*
X94873715Y18748141D02*
X94746715Y18875141D01*
X96267119Y21290823D02*
X94870119Y21290823D01*
X96270715Y18748141D02*
X94873715Y18748141D01*
X96648119Y20909823D02*
X96267119Y21290823D01*
X96651715Y19129141D02*
X96270715Y18748141D01*
%TO.C,R306*%
X75418223Y40293281D02*
X75799223Y39912281D01*
X73637541Y40289685D02*
X73256541Y39908685D01*
X75799223Y39912281D02*
X75799223Y38515281D01*
X73256541Y39908685D02*
X73256541Y38511685D01*
X75799223Y38515281D02*
X75672223Y38388281D01*
X73256541Y38511685D02*
X73383541Y38384685D01*
X75672223Y38388281D02*
X75672223Y37118281D01*
X73383541Y38384685D02*
X73383541Y37114685D01*
X75672223Y35848281D02*
X75672223Y37118281D01*
X73383541Y35844685D02*
X73383541Y37114685D01*
X75799223Y35721281D02*
X75672223Y35848281D01*
X73256541Y35717685D02*
X73383541Y35844685D01*
X75799223Y34324281D02*
X75799223Y35721281D01*
X73256541Y34320685D02*
X73256541Y35717685D01*
X75418223Y33943281D02*
X75799223Y34324281D01*
X73637541Y33939685D02*
X73256541Y34320685D01*
%TO.C,R325*%
X75823377Y79680919D02*
X75442377Y80061919D01*
X77604059Y79684515D02*
X77985059Y80065515D01*
X75442377Y80061919D02*
X75442377Y81458919D01*
X77985059Y80065515D02*
X77985059Y81462515D01*
X75442377Y81458919D02*
X75569377Y81585919D01*
X77985059Y81462515D02*
X77858059Y81589515D01*
X75569377Y81585919D02*
X75569377Y82855919D01*
X77858059Y81589515D02*
X77858059Y82859515D01*
X75569377Y84125919D02*
X75569377Y82855919D01*
X77858059Y84129515D02*
X77858059Y82859515D01*
X75442377Y84252919D02*
X75569377Y84125919D01*
X77985059Y84256515D02*
X77858059Y84129515D01*
X75442377Y85649919D02*
X75442377Y84252919D01*
X77985059Y85653515D02*
X77985059Y84256515D01*
X75823377Y86030919D02*
X75442377Y85649919D01*
X77604059Y86034515D02*
X77985059Y85653515D01*
%TO.C,R201*%
X39854659Y88899715D02*
X40235659Y88518715D01*
X38073977Y88896119D02*
X37692977Y88515119D01*
X40235659Y88518715D02*
X40235659Y87121715D01*
X37692977Y88515119D02*
X37692977Y87118119D01*
X40235659Y87121715D02*
X40108659Y86994715D01*
X37692977Y87118119D02*
X37819977Y86991119D01*
X40108659Y86994715D02*
X40108659Y85724715D01*
X37819977Y86991119D02*
X37819977Y85721119D01*
X40108659Y84454715D02*
X40108659Y85724715D01*
X37819977Y84451119D02*
X37819977Y85721119D01*
X40235659Y84327715D02*
X40108659Y84454715D01*
X37692977Y84324119D02*
X37819977Y84451119D01*
X40235659Y82930715D02*
X40235659Y84327715D01*
X37692977Y82927119D02*
X37692977Y84324119D01*
X39854659Y82549715D02*
X40235659Y82930715D01*
X38073977Y82546119D02*
X37692977Y82927119D01*
%TO.C,R202*%
X34948341Y82550285D02*
X34567341Y82931285D01*
X36729023Y82553881D02*
X37110023Y82934881D01*
X34567341Y82931285D02*
X34567341Y84328285D01*
X37110023Y82934881D02*
X37110023Y84331881D01*
X34567341Y84328285D02*
X34694341Y84455285D01*
X37110023Y84331881D02*
X36983023Y84458881D01*
X34694341Y84455285D02*
X34694341Y85725285D01*
X36983023Y84458881D02*
X36983023Y85728881D01*
X34694341Y86995285D02*
X34694341Y85725285D01*
X36983023Y86998881D02*
X36983023Y85728881D01*
X34567341Y87122285D02*
X34694341Y86995285D01*
X37110023Y87125881D02*
X36983023Y86998881D01*
X34567341Y88519285D02*
X34567341Y87122285D01*
X37110023Y88522881D02*
X37110023Y87125881D01*
X34948341Y88900285D02*
X34567341Y88519285D01*
X36729023Y88903881D02*
X37110023Y88522881D01*
%TO.C,R205*%
X4112741Y83439285D02*
X3731741Y83820285D01*
X5893423Y83442881D02*
X6274423Y83823881D01*
X3731741Y83820285D02*
X3731741Y85217285D01*
X6274423Y83823881D02*
X6274423Y85220881D01*
X3731741Y85217285D02*
X3858741Y85344285D01*
X6274423Y85220881D02*
X6147423Y85347881D01*
X3858741Y85344285D02*
X3858741Y86614285D01*
X6147423Y85347881D02*
X6147423Y86617881D01*
X3858741Y87884285D02*
X3858741Y86614285D01*
X6147423Y87887881D02*
X6147423Y86617881D01*
X3731741Y88011285D02*
X3858741Y87884285D01*
X6274423Y88014881D02*
X6147423Y87887881D01*
X3731741Y89408285D02*
X3731741Y88011285D01*
X6274423Y89411881D02*
X6274423Y88014881D01*
X4112741Y89789285D02*
X3731741Y89408285D01*
X5893423Y89792881D02*
X6274423Y89411881D01*
%TO.C,R314*%
X85370519Y46208223D02*
X85751519Y46589223D01*
X85374115Y44427541D02*
X85755115Y44046541D01*
X85751519Y46589223D02*
X87148519Y46589223D01*
X85755115Y44046541D02*
X87152115Y44046541D01*
X87148519Y46589223D02*
X87275519Y46462223D01*
X87152115Y44046541D02*
X87279115Y44173541D01*
X87275519Y46462223D02*
X88545519Y46462223D01*
X87279115Y44173541D02*
X88549115Y44173541D01*
X89815519Y46462223D02*
X88545519Y46462223D01*
X89819115Y44173541D02*
X88549115Y44173541D01*
X89942519Y46589223D02*
X89815519Y46462223D01*
X89946115Y44046541D02*
X89819115Y44173541D01*
X91339519Y46589223D02*
X89942519Y46589223D01*
X91343115Y44046541D02*
X89946115Y44046541D01*
X91720519Y46208223D02*
X91339519Y46589223D01*
X91724115Y44427541D02*
X91343115Y44046541D01*
%TO.C,R327*%
X71535281Y96625977D02*
X71154281Y96244977D01*
X71531685Y98406659D02*
X71150685Y98787659D01*
X71154281Y96244977D02*
X69757281Y96244977D01*
X71150685Y98787659D02*
X69753685Y98787659D01*
X69757281Y96244977D02*
X69630281Y96371977D01*
X69753685Y98787659D02*
X69626685Y98660659D01*
X69630281Y96371977D02*
X68360281Y96371977D01*
X69626685Y98660659D02*
X68356685Y98660659D01*
X67090281Y96371977D02*
X68360281Y96371977D01*
X67086685Y98660659D02*
X68356685Y98660659D01*
X66963281Y96244977D02*
X67090281Y96371977D01*
X66959685Y98787659D02*
X67086685Y98660659D01*
X65566281Y96244977D02*
X66963281Y96244977D01*
X65562685Y98787659D02*
X66959685Y98787659D01*
X65185281Y96625977D02*
X65566281Y96244977D01*
X65181685Y98406659D02*
X65562685Y98787659D01*
%TO.C,R332*%
X93978623Y74039881D02*
X94359623Y73658881D01*
X92197941Y74036285D02*
X91816941Y73655285D01*
X94359623Y73658881D02*
X94359623Y72261881D01*
X91816941Y73655285D02*
X91816941Y72258285D01*
X94359623Y72261881D02*
X94232623Y72134881D01*
X91816941Y72258285D02*
X91943941Y72131285D01*
X94232623Y72134881D02*
X94232623Y70864881D01*
X91943941Y72131285D02*
X91943941Y70861285D01*
X94232623Y69594881D02*
X94232623Y70864881D01*
X91943941Y69591285D02*
X91943941Y70861285D01*
X94359623Y69467881D02*
X94232623Y69594881D01*
X91816941Y69464285D02*
X91943941Y69591285D01*
X94359623Y68070881D02*
X94359623Y69467881D01*
X91816941Y68067285D02*
X91816941Y69464285D01*
X93978623Y67689881D02*
X94359623Y68070881D01*
X92197941Y67686285D02*
X91816941Y68067285D01*
%TO.C,R326*%
X73287881Y75874177D02*
X72906881Y75493177D01*
X73284285Y77654859D02*
X72903285Y78035859D01*
X72906881Y75493177D02*
X71509881Y75493177D01*
X72903285Y78035859D02*
X71506285Y78035859D01*
X71509881Y75493177D02*
X71382881Y75620177D01*
X71506285Y78035859D02*
X71379285Y77908859D01*
X71382881Y75620177D02*
X70112881Y75620177D01*
X71379285Y77908859D02*
X70109285Y77908859D01*
X68842881Y75620177D02*
X70112881Y75620177D01*
X68839285Y77908859D02*
X70109285Y77908859D01*
X68715881Y75493177D02*
X68842881Y75620177D01*
X68712285Y78035859D02*
X68839285Y77908859D01*
X67318881Y75493177D02*
X68715881Y75493177D01*
X67315285Y78035859D02*
X68712285Y78035859D01*
X66937881Y75874177D02*
X67318881Y75493177D01*
X66934285Y77654859D02*
X67315285Y78035859D01*
%TO.C,R210*%
X13282141Y43256485D02*
X12901141Y43637485D01*
X15062823Y43260081D02*
X15443823Y43641081D01*
X12901141Y43637485D02*
X12901141Y45034485D01*
X15443823Y43641081D02*
X15443823Y45038081D01*
X12901141Y45034485D02*
X13028141Y45161485D01*
X15443823Y45038081D02*
X15316823Y45165081D01*
X13028141Y45161485D02*
X13028141Y46431485D01*
X15316823Y45165081D02*
X15316823Y46435081D01*
X13028141Y47701485D02*
X13028141Y46431485D01*
X15316823Y47705081D02*
X15316823Y46435081D01*
X12901141Y47828485D02*
X13028141Y47701485D01*
X15443823Y47832081D02*
X15316823Y47705081D01*
X12901141Y49225485D02*
X12901141Y47828485D01*
X15443823Y49229081D02*
X15443823Y47832081D01*
X13282141Y49606485D02*
X12901141Y49225485D01*
X15062823Y49610081D02*
X15443823Y49229081D01*
%TO.C,R301*%
X62437577Y85319719D02*
X62056577Y85700719D01*
X64218259Y85323315D02*
X64599259Y85704315D01*
X62056577Y85700719D02*
X62056577Y87097719D01*
X64599259Y85704315D02*
X64599259Y87101315D01*
X62056577Y87097719D02*
X62183577Y87224719D01*
X64599259Y87101315D02*
X64472259Y87228315D01*
X62183577Y87224719D02*
X62183577Y88494719D01*
X64472259Y87228315D02*
X64472259Y88498315D01*
X62183577Y89764719D02*
X62183577Y88494719D01*
X64472259Y89768315D02*
X64472259Y88498315D01*
X62056577Y89891719D02*
X62183577Y89764719D01*
X64599259Y89895315D02*
X64472259Y89768315D01*
X62056577Y91288719D02*
X62056577Y89891719D01*
X64599259Y91292315D02*
X64599259Y89895315D01*
X62437577Y91669719D02*
X62056577Y91288719D01*
X64218259Y91673315D02*
X64599259Y91292315D01*
%TO.C,R212*%
X2438685Y33174459D02*
X2819685Y33555459D01*
X2442281Y31393777D02*
X2823281Y31012777D01*
X2819685Y33555459D02*
X4216685Y33555459D01*
X2823281Y31012777D02*
X4220281Y31012777D01*
X4216685Y33555459D02*
X4343685Y33428459D01*
X4220281Y31012777D02*
X4347281Y31139777D01*
X4343685Y33428459D02*
X5613685Y33428459D01*
X4347281Y31139777D02*
X5617281Y31139777D01*
X6883685Y33428459D02*
X5613685Y33428459D01*
X6887281Y31139777D02*
X5617281Y31139777D01*
X7010685Y33555459D02*
X6883685Y33428459D01*
X7014281Y31012777D02*
X6887281Y31139777D01*
X8407685Y33555459D02*
X7010685Y33555459D01*
X8411281Y31012777D02*
X7014281Y31012777D01*
X8788685Y33174459D02*
X8407685Y33555459D01*
X8792281Y31393777D02*
X8411281Y31012777D01*
%TO.C,R213*%
X2745259Y89788715D02*
X3126259Y89407715D01*
X964577Y89785119D02*
X583577Y89404119D01*
X3126259Y89407715D02*
X3126259Y88010715D01*
X583577Y89404119D02*
X583577Y88007119D01*
X3126259Y88010715D02*
X2999259Y87883715D01*
X583577Y88007119D02*
X710577Y87880119D01*
X2999259Y87883715D02*
X2999259Y86613715D01*
X710577Y87880119D02*
X710577Y86610119D01*
X2999259Y85343715D02*
X2999259Y86613715D01*
X710577Y85340119D02*
X710577Y86610119D01*
X3126259Y85216715D02*
X2999259Y85343715D01*
X583577Y85213119D02*
X710577Y85340119D01*
X3126259Y83819715D02*
X3126259Y85216715D01*
X583577Y83816119D02*
X583577Y85213119D01*
X2745259Y83438715D02*
X3126259Y83819715D01*
X964577Y83435119D02*
X583577Y83816119D01*
%TO.C,R308*%
X69042823Y40318681D02*
X69423823Y39937681D01*
X67262141Y40315085D02*
X66881141Y39934085D01*
X69423823Y39937681D02*
X69423823Y38540681D01*
X66881141Y39934085D02*
X66881141Y38537085D01*
X69423823Y38540681D02*
X69296823Y38413681D01*
X66881141Y38537085D02*
X67008141Y38410085D01*
X69296823Y38413681D02*
X69296823Y37143681D01*
X67008141Y38410085D02*
X67008141Y37140085D01*
X69296823Y35873681D02*
X69296823Y37143681D01*
X67008141Y35870085D02*
X67008141Y37140085D01*
X69423823Y35746681D02*
X69296823Y35873681D01*
X66881141Y35743085D02*
X67008141Y35870085D01*
X69423823Y34349681D02*
X69423823Y35746681D01*
X66881141Y34346085D02*
X66881141Y35743085D01*
X69042823Y33968681D02*
X69423823Y34349681D01*
X67262141Y33965085D02*
X66881141Y34346085D01*
%TO.C,R328*%
X75896319Y92207623D02*
X76277319Y92588623D01*
X75899915Y90426941D02*
X76280915Y90045941D01*
X76277319Y92588623D02*
X77674319Y92588623D01*
X76280915Y90045941D02*
X77677915Y90045941D01*
X77674319Y92588623D02*
X77801319Y92461623D01*
X77677915Y90045941D02*
X77804915Y90172941D01*
X77801319Y92461623D02*
X79071319Y92461623D01*
X77804915Y90172941D02*
X79074915Y90172941D01*
X80341319Y92461623D02*
X79071319Y92461623D01*
X80344915Y90172941D02*
X79074915Y90172941D01*
X80468319Y92588623D02*
X80341319Y92461623D01*
X80471915Y90045941D02*
X80344915Y90172941D01*
X81865319Y92588623D02*
X80468319Y92588623D01*
X81868915Y90045941D02*
X80471915Y90045941D01*
X82246319Y92207623D02*
X81865319Y92588623D01*
X82249915Y90426941D02*
X81868915Y90045941D01*
%TO.C,R214*%
X16990541Y48692085D02*
X16609541Y49073085D01*
X18771223Y48695681D02*
X19152223Y49076681D01*
X16609541Y49073085D02*
X16609541Y50470085D01*
X19152223Y49076681D02*
X19152223Y50473681D01*
X16609541Y50470085D02*
X16736541Y50597085D01*
X19152223Y50473681D02*
X19025223Y50600681D01*
X16736541Y50597085D02*
X16736541Y51867085D01*
X19025223Y50600681D02*
X19025223Y51870681D01*
X16736541Y53137085D02*
X16736541Y51867085D01*
X19025223Y53140681D02*
X19025223Y51870681D01*
X16609541Y53264085D02*
X16736541Y53137085D01*
X19152223Y53267681D02*
X19025223Y53140681D01*
X16609541Y54661085D02*
X16609541Y53264085D01*
X19152223Y54664681D02*
X19152223Y53267681D01*
X16990541Y55042085D02*
X16609541Y54661085D01*
X18771223Y55045681D02*
X19152223Y54664681D01*
%TO.C,R324*%
X103556919Y44201623D02*
X103937919Y44582623D01*
X103560515Y42420941D02*
X103941515Y42039941D01*
X103937919Y44582623D02*
X105334919Y44582623D01*
X103941515Y42039941D02*
X105338515Y42039941D01*
X105334919Y44582623D02*
X105461919Y44455623D01*
X105338515Y42039941D02*
X105465515Y42166941D01*
X105461919Y44455623D02*
X106731919Y44455623D01*
X105465515Y42166941D02*
X106735515Y42166941D01*
X108001919Y44455623D02*
X106731919Y44455623D01*
X108005515Y42166941D02*
X106735515Y42166941D01*
X108128919Y44582623D02*
X108001919Y44455623D01*
X108132515Y42039941D02*
X108005515Y42166941D01*
X109525919Y44582623D02*
X108128919Y44582623D01*
X109529515Y42039941D02*
X108132515Y42039941D01*
X109906919Y44201623D02*
X109525919Y44582623D01*
X109910515Y42420941D02*
X109529515Y42039941D01*
%TO.C,R209*%
X23899341Y32944085D02*
X23518341Y33325085D01*
X25680023Y32947681D02*
X26061023Y33328681D01*
X23518341Y33325085D02*
X23518341Y34722085D01*
X26061023Y33328681D02*
X26061023Y34725681D01*
X23518341Y34722085D02*
X23645341Y34849085D01*
X26061023Y34725681D02*
X25934023Y34852681D01*
X23645341Y34849085D02*
X23645341Y36119085D01*
X25934023Y34852681D02*
X25934023Y36122681D01*
X23645341Y37389085D02*
X23645341Y36119085D01*
X25934023Y37392681D02*
X25934023Y36122681D01*
X23518341Y37516085D02*
X23645341Y37389085D01*
X26061023Y37519681D02*
X25934023Y37392681D01*
X23518341Y38913085D02*
X23518341Y37516085D01*
X26061023Y38916681D02*
X26061023Y37519681D01*
X23899341Y39294085D02*
X23518341Y38913085D01*
X25680023Y39297681D02*
X26061023Y38916681D01*
%TO.C,R319*%
X85370519Y34727423D02*
X85751519Y35108423D01*
X85374115Y32946741D02*
X85755115Y32565741D01*
X85751519Y35108423D02*
X87148519Y35108423D01*
X85755115Y32565741D02*
X87152115Y32565741D01*
X87148519Y35108423D02*
X87275519Y34981423D01*
X87152115Y32565741D02*
X87279115Y32692741D01*
X87275519Y34981423D02*
X88545519Y34981423D01*
X87279115Y32692741D02*
X88549115Y32692741D01*
X89815519Y34981423D02*
X88545519Y34981423D01*
X89819115Y32692741D02*
X88549115Y32692741D01*
X89942519Y35108423D02*
X89815519Y34981423D01*
X89946115Y32565741D02*
X89819115Y32692741D01*
X91339519Y35108423D02*
X89942519Y35108423D01*
X91343115Y32565741D02*
X89946115Y32565741D01*
X91720519Y34727423D02*
X91339519Y35108423D01*
X91724115Y32946741D02*
X91343115Y32565741D01*
%TO.C,R323*%
X103556919Y41077423D02*
X103937919Y41458423D01*
X103560515Y39296741D02*
X103941515Y38915741D01*
X103937919Y41458423D02*
X105334919Y41458423D01*
X103941515Y38915741D02*
X105338515Y38915741D01*
X105334919Y41458423D02*
X105461919Y41331423D01*
X105338515Y38915741D02*
X105465515Y39042741D01*
X105461919Y41331423D02*
X106731919Y41331423D01*
X105465515Y39042741D02*
X106735515Y39042741D01*
X108001919Y41331423D02*
X106731919Y41331423D01*
X108005515Y39042741D02*
X106735515Y39042741D01*
X108128919Y41458423D02*
X108001919Y41331423D01*
X108132515Y38915741D02*
X108005515Y39042741D01*
X109525919Y41458423D02*
X108128919Y41458423D01*
X109529515Y38915741D02*
X108132515Y38915741D01*
X109906919Y41077423D02*
X109525919Y41458423D01*
X109910515Y39296741D02*
X109529515Y38915741D01*
%TO.C,R331*%
X88575423Y90458281D02*
X88956423Y90077281D01*
X86794741Y90454685D02*
X86413741Y90073685D01*
X88956423Y90077281D02*
X88956423Y88680281D01*
X86413741Y90073685D02*
X86413741Y88676685D01*
X88956423Y88680281D02*
X88829423Y88553281D01*
X86413741Y88676685D02*
X86540741Y88549685D01*
X88829423Y88553281D02*
X88829423Y87283281D01*
X86540741Y88549685D02*
X86540741Y87279685D01*
X88829423Y86013281D02*
X88829423Y87283281D01*
X86540741Y86009685D02*
X86540741Y87279685D01*
X88956423Y85886281D02*
X88829423Y86013281D01*
X86413741Y85882685D02*
X86540741Y86009685D01*
X88956423Y84489281D02*
X88956423Y85886281D01*
X86413741Y84485685D02*
X86413741Y85882685D01*
X88575423Y84108281D02*
X88956423Y84489281D01*
X86794741Y84104685D02*
X86413741Y84485685D01*
%TO.C,R203*%
X25706859Y64744315D02*
X26087859Y64363315D01*
X23926177Y64740719D02*
X23545177Y64359719D01*
X26087859Y64363315D02*
X26087859Y62966315D01*
X23545177Y64359719D02*
X23545177Y62962719D01*
X26087859Y62966315D02*
X25960859Y62839315D01*
X23545177Y62962719D02*
X23672177Y62835719D01*
X25960859Y62839315D02*
X25960859Y61569315D01*
X23672177Y62835719D02*
X23672177Y61565719D01*
X25960859Y60299315D02*
X25960859Y61569315D01*
X23672177Y60295719D02*
X23672177Y61565719D01*
X26087859Y60172315D02*
X25960859Y60299315D01*
X23545177Y60168719D02*
X23672177Y60295719D01*
X26087859Y58775315D02*
X26087859Y60172315D01*
X23545177Y58771719D02*
X23545177Y60168719D01*
X25706859Y58394315D02*
X26087859Y58775315D01*
X23926177Y58390719D02*
X23545177Y58771719D01*
%TO.C,R321*%
X103129623Y29345881D02*
X103510623Y28964881D01*
X101348941Y29342285D02*
X100967941Y28961285D01*
X103510623Y28964881D02*
X103510623Y27567881D01*
X100967941Y28961285D02*
X100967941Y27564285D01*
X103510623Y27567881D02*
X103383623Y27440881D01*
X100967941Y27564285D02*
X101094941Y27437285D01*
X103383623Y27440881D02*
X103383623Y26170881D01*
X101094941Y27437285D02*
X101094941Y26167285D01*
X103383623Y24900881D02*
X103383623Y26170881D01*
X101094941Y24897285D02*
X101094941Y26167285D01*
X103510623Y24773881D02*
X103383623Y24900881D01*
X100967941Y24770285D02*
X101094941Y24897285D01*
X103510623Y23376881D02*
X103510623Y24773881D01*
X100967941Y23373285D02*
X100967941Y24770285D01*
X103129623Y22995881D02*
X103510623Y23376881D01*
X101348941Y22992285D02*
X100967941Y23373285D01*
%TO.C,R313*%
X91728281Y41228577D02*
X91347281Y40847577D01*
X91724685Y43009259D02*
X91343685Y43390259D01*
X91347281Y40847577D02*
X89950281Y40847577D01*
X91343685Y43390259D02*
X89946685Y43390259D01*
X89950281Y40847577D02*
X89823281Y40974577D01*
X89946685Y43390259D02*
X89819685Y43263259D01*
X89823281Y40974577D02*
X88553281Y40974577D01*
X89819685Y43263259D02*
X88549685Y43263259D01*
X87283281Y40974577D02*
X88553281Y40974577D01*
X87279685Y43263259D02*
X88549685Y43263259D01*
X87156281Y40847577D02*
X87283281Y40974577D01*
X87152685Y43390259D02*
X87279685Y43263259D01*
X85759281Y40847577D02*
X87156281Y40847577D01*
X85755685Y43390259D02*
X87152685Y43390259D01*
X85378281Y41228577D02*
X85759281Y40847577D01*
X85374685Y43009259D02*
X85755685Y43390259D01*
%TO.C,R211*%
X16330141Y24663685D02*
X15949141Y25044685D01*
X18110823Y24667281D02*
X18491823Y25048281D01*
X15949141Y25044685D02*
X15949141Y26441685D01*
X18491823Y25048281D02*
X18491823Y26445281D01*
X15949141Y26441685D02*
X16076141Y26568685D01*
X18491823Y26445281D02*
X18364823Y26572281D01*
X16076141Y26568685D02*
X16076141Y27838685D01*
X18364823Y26572281D02*
X18364823Y27842281D01*
X16076141Y29108685D02*
X16076141Y27838685D01*
X18364823Y29112281D02*
X18364823Y27842281D01*
X15949141Y29235685D02*
X16076141Y29108685D01*
X18491823Y29239281D02*
X18364823Y29112281D01*
X15949141Y30632685D02*
X15949141Y29235685D01*
X18491823Y30636281D02*
X18491823Y29239281D01*
X16330141Y31013685D02*
X15949141Y30632685D01*
X18110823Y31017281D02*
X18491823Y30636281D01*
%TO.C,R316*%
X96655881Y15726977D02*
X96274881Y15345977D01*
X96652285Y17507659D02*
X96271285Y17888659D01*
X96274881Y15345977D02*
X94877881Y15345977D01*
X96271285Y17888659D02*
X94874285Y17888659D01*
X94877881Y15345977D02*
X94750881Y15472977D01*
X94874285Y17888659D02*
X94747285Y17761659D01*
X94750881Y15472977D02*
X93480881Y15472977D01*
X94747285Y17761659D02*
X93477285Y17761659D01*
X92210881Y15472977D02*
X93480881Y15472977D01*
X92207285Y17761659D02*
X93477285Y17761659D01*
X92083881Y15345977D02*
X92210881Y15472977D01*
X92080285Y17888659D02*
X92207285Y17761659D01*
X90686881Y15345977D02*
X92083881Y15345977D01*
X90683285Y17888659D02*
X92080285Y17888659D01*
X90305881Y15726977D02*
X90686881Y15345977D01*
X90302285Y17507659D02*
X90683285Y17888659D01*
%TO.C,R322*%
X109914681Y31957577D02*
X109533681Y31576577D01*
X109911085Y33738259D02*
X109530085Y34119259D01*
X109533681Y31576577D02*
X108136681Y31576577D01*
X109530085Y34119259D02*
X108133085Y34119259D01*
X108136681Y31576577D02*
X108009681Y31703577D01*
X108133085Y34119259D02*
X108006085Y33992259D01*
X108009681Y31703577D02*
X106739681Y31703577D01*
X108006085Y33992259D02*
X106736085Y33992259D01*
X105469681Y31703577D02*
X106739681Y31703577D01*
X105466085Y33992259D02*
X106736085Y33992259D01*
X105342681Y31576577D02*
X105469681Y31703577D01*
X105339085Y34119259D02*
X105466085Y33992259D01*
X103945681Y31576577D02*
X105342681Y31576577D01*
X103942085Y34119259D02*
X105339085Y34119259D01*
X103564681Y31957577D02*
X103945681Y31576577D01*
X103561085Y33738259D02*
X103942085Y34119259D01*
%TO.C,R317*%
X98176623Y31682681D02*
X98557623Y31301681D01*
X96395941Y31679085D02*
X96014941Y31298085D01*
X98557623Y31301681D02*
X98557623Y29904681D01*
X96014941Y31298085D02*
X96014941Y29901085D01*
X98557623Y29904681D02*
X98430623Y29777681D01*
X96014941Y29901085D02*
X96141941Y29774085D01*
X98430623Y29777681D02*
X98430623Y28507681D01*
X96141941Y29774085D02*
X96141941Y28504085D01*
X98430623Y27237681D02*
X98430623Y28507681D01*
X96141941Y27234085D02*
X96141941Y28504085D01*
X98557623Y27110681D02*
X98430623Y27237681D01*
X96014941Y27107085D02*
X96141941Y27234085D01*
X98557623Y25713681D02*
X98557623Y27110681D01*
X96014941Y25710085D02*
X96014941Y27107085D01*
X98176623Y25332681D02*
X98557623Y25713681D01*
X96395941Y25329085D02*
X96014941Y25710085D01*
%TO.C,R311*%
X81133223Y86013281D02*
X81514223Y85632281D01*
X79352541Y86009685D02*
X78971541Y85628685D01*
X81514223Y85632281D02*
X81514223Y84235281D01*
X78971541Y85628685D02*
X78971541Y84231685D01*
X81514223Y84235281D02*
X81387223Y84108281D01*
X78971541Y84231685D02*
X79098541Y84104685D01*
X81387223Y84108281D02*
X81387223Y82838281D01*
X79098541Y84104685D02*
X79098541Y82834685D01*
X81387223Y81568281D02*
X81387223Y82838281D01*
X79098541Y81564685D02*
X79098541Y82834685D01*
X81514223Y81441281D02*
X81387223Y81568281D01*
X78971541Y81437685D02*
X79098541Y81564685D01*
X81514223Y80044281D02*
X81514223Y81441281D01*
X78971541Y80040685D02*
X78971541Y81437685D01*
X81133223Y79663281D02*
X81514223Y80044281D01*
X79352541Y79659685D02*
X78971541Y80040685D01*
%TO.C,R330*%
X45140177Y67285719D02*
X44759177Y67666719D01*
X46920859Y67289315D02*
X47301859Y67670315D01*
X44759177Y67666719D02*
X44759177Y69063719D01*
X47301859Y67670315D02*
X47301859Y69067315D01*
X44759177Y69063719D02*
X44886177Y69190719D01*
X47301859Y69067315D02*
X47174859Y69194315D01*
X44886177Y69190719D02*
X44886177Y70460719D01*
X47174859Y69194315D02*
X47174859Y70464315D01*
X44886177Y71730719D02*
X44886177Y70460719D01*
X47174859Y71734315D02*
X47174859Y70464315D01*
X44759177Y71857719D02*
X44886177Y71730719D01*
X47301859Y71861315D02*
X47174859Y71734315D01*
X44759177Y73254719D02*
X44759177Y71857719D01*
X47301859Y73258315D02*
X47301859Y71861315D01*
X45140177Y73635719D02*
X44759177Y73254719D01*
X46920859Y73639315D02*
X47301859Y73258315D01*
%TO.C,R310*%
X56363719Y31374623D02*
X56744719Y31755623D01*
X56367315Y29593941D02*
X56748315Y29212941D01*
X56744719Y31755623D02*
X58141719Y31755623D01*
X56748315Y29212941D02*
X58145315Y29212941D01*
X58141719Y31755623D02*
X58268719Y31628623D01*
X58145315Y29212941D02*
X58272315Y29339941D01*
X58268719Y31628623D02*
X59538719Y31628623D01*
X58272315Y29339941D02*
X59542315Y29339941D01*
X60808719Y31628623D02*
X59538719Y31628623D01*
X60812315Y29339941D02*
X59542315Y29339941D01*
X60935719Y31755623D02*
X60808719Y31628623D01*
X60939315Y29212941D02*
X60812315Y29339941D01*
X62332719Y31755623D02*
X60935719Y31755623D01*
X62336315Y29212941D02*
X60939315Y29212941D01*
X62713719Y31374623D02*
X62332719Y31755623D01*
X62717315Y29593941D02*
X62336315Y29212941D01*
%TO.C,R208*%
X35432715Y32941741D02*
X35051715Y32560741D01*
X35429119Y34722423D02*
X35048119Y35103423D01*
X35051715Y32560741D02*
X33654715Y32560741D01*
X35048119Y35103423D02*
X33651119Y35103423D01*
X33654715Y32560741D02*
X33527715Y32687741D01*
X33651119Y35103423D02*
X33524119Y34976423D01*
X33527715Y32687741D02*
X32257715Y32687741D01*
X33524119Y34976423D02*
X32254119Y34976423D01*
X30987715Y32687741D02*
X32257715Y32687741D01*
X30984119Y34976423D02*
X32254119Y34976423D01*
X30860715Y32560741D02*
X30987715Y32687741D01*
X30857119Y35103423D02*
X30984119Y34976423D01*
X29463715Y32560741D02*
X30860715Y32560741D01*
X29460119Y35103423D02*
X30857119Y35103423D01*
X29082715Y32941741D02*
X29463715Y32560741D01*
X29079119Y34722423D02*
X29460119Y35103423D01*
%TO.C,R305*%
X72319423Y19693881D02*
X72700423Y19312881D01*
X70538741Y19690285D02*
X70157741Y19309285D01*
X72700423Y19312881D02*
X72700423Y17915881D01*
X70157741Y19309285D02*
X70157741Y17912285D01*
X72700423Y17915881D02*
X72573423Y17788881D01*
X70157741Y17912285D02*
X70284741Y17785285D01*
X72573423Y17788881D02*
X72573423Y16518881D01*
X70284741Y17785285D02*
X70284741Y16515285D01*
X72573423Y15248881D02*
X72573423Y16518881D01*
X70284741Y15245285D02*
X70284741Y16515285D01*
X72700423Y15121881D02*
X72573423Y15248881D01*
X70157741Y15118285D02*
X70284741Y15245285D01*
X72700423Y13724881D02*
X72700423Y15121881D01*
X70157741Y13721285D02*
X70157741Y15118285D01*
X72319423Y13343881D02*
X72700423Y13724881D01*
X70538741Y13340285D02*
X70157741Y13721285D01*
%TO.C,R334*%
X73765977Y13310719D02*
X73384977Y13691719D01*
X75546659Y13314315D02*
X75927659Y13695315D01*
X73384977Y13691719D02*
X73384977Y15088719D01*
X75927659Y13695315D02*
X75927659Y15092315D01*
X73384977Y15088719D02*
X73511977Y15215719D01*
X75927659Y15092315D02*
X75800659Y15219315D01*
X73511977Y15215719D02*
X73511977Y16485719D01*
X75800659Y15219315D02*
X75800659Y16489315D01*
X73511977Y17755719D02*
X73511977Y16485719D01*
X75800659Y17759315D02*
X75800659Y16489315D01*
X73384977Y17882719D02*
X73511977Y17755719D01*
X75927659Y17886315D02*
X75800659Y17759315D01*
X73384977Y19279719D02*
X73384977Y17882719D01*
X75927659Y19283315D02*
X75927659Y17886315D01*
X73765977Y19660719D02*
X73384977Y19279719D01*
X75546659Y19664315D02*
X75927659Y19283315D01*
%TO.C,R312*%
X84765423Y86013281D02*
X85146423Y85632281D01*
X82984741Y86009685D02*
X82603741Y85628685D01*
X85146423Y85632281D02*
X85146423Y84235281D01*
X82603741Y85628685D02*
X82603741Y84231685D01*
X85146423Y84235281D02*
X85019423Y84108281D01*
X82603741Y84231685D02*
X82730741Y84104685D01*
X85019423Y84108281D02*
X85019423Y82838281D01*
X82730741Y84104685D02*
X82730741Y82834685D01*
X85019423Y81568281D02*
X85019423Y82838281D01*
X82730741Y81564685D02*
X82730741Y82834685D01*
X85146423Y81441281D02*
X85019423Y81568281D01*
X82603741Y81437685D02*
X82730741Y81564685D01*
X85146423Y80044281D02*
X85146423Y81441281D01*
X82603741Y80040685D02*
X82603741Y81437685D01*
X84765423Y79663281D02*
X85146423Y80044281D01*
X82984741Y79659685D02*
X82603741Y80040685D01*
%TO.C,R302*%
X52985519Y85146423D02*
X53366519Y85527423D01*
X52989115Y83365741D02*
X53370115Y82984741D01*
X53366519Y85527423D02*
X54763519Y85527423D01*
X53370115Y82984741D02*
X54767115Y82984741D01*
X54763519Y85527423D02*
X54890519Y85400423D01*
X54767115Y82984741D02*
X54894115Y83111741D01*
X54890519Y85400423D02*
X56160519Y85400423D01*
X54894115Y83111741D02*
X56164115Y83111741D01*
X57430519Y85400423D02*
X56160519Y85400423D01*
X57434115Y83111741D02*
X56164115Y83111741D01*
X57557519Y85527423D02*
X57430519Y85400423D01*
X57561115Y82984741D02*
X57434115Y83111741D01*
X58954519Y85527423D02*
X57557519Y85527423D01*
X58958115Y82984741D02*
X57561115Y82984741D01*
X59335519Y85146423D02*
X58954519Y85527423D01*
X59339115Y83365741D02*
X58958115Y82984741D01*
%TO.C,R333*%
X77221623Y72551281D02*
X77602623Y72170281D01*
X75440941Y72547685D02*
X75059941Y72166685D01*
X77602623Y72170281D02*
X77602623Y70773281D01*
X75059941Y72166685D02*
X75059941Y70769685D01*
X77602623Y70773281D02*
X77475623Y70646281D01*
X75059941Y70769685D02*
X75186941Y70642685D01*
X77475623Y70646281D02*
X77475623Y69376281D01*
X75186941Y70642685D02*
X75186941Y69372685D01*
X77475623Y68106281D02*
X77475623Y69376281D01*
X75186941Y68102685D02*
X75186941Y69372685D01*
X77602623Y67979281D02*
X77475623Y68106281D01*
X75059941Y67975685D02*
X75186941Y68102685D01*
X77602623Y66582281D02*
X77602623Y67979281D01*
X75059941Y66578685D02*
X75059941Y67975685D01*
X77221623Y66201281D02*
X77602623Y66582281D01*
X75440941Y66197685D02*
X75059941Y66578685D01*
%TO.C,R206*%
X35483515Y36218341D02*
X35102515Y35837341D01*
X35479919Y37999023D02*
X35098919Y38380023D01*
X35102515Y35837341D02*
X33705515Y35837341D01*
X35098919Y38380023D02*
X33701919Y38380023D01*
X33705515Y35837341D02*
X33578515Y35964341D01*
X33701919Y38380023D02*
X33574919Y38253023D01*
X33578515Y35964341D02*
X32308515Y35964341D01*
X33574919Y38253023D02*
X32304919Y38253023D01*
X31038515Y35964341D02*
X32308515Y35964341D01*
X31034919Y38253023D02*
X32304919Y38253023D01*
X30911515Y35837341D02*
X31038515Y35964341D01*
X30907919Y38380023D02*
X31034919Y38253023D01*
X29514515Y35837341D02*
X30911515Y35837341D01*
X29510919Y38380023D02*
X30907919Y38380023D01*
X29133515Y36218341D02*
X29514515Y35837341D01*
X29129919Y37999023D02*
X29510919Y38380023D01*
%TD*%
M02*
