%TF.GenerationSoftware,KiCad,Pcbnew,7.0.7*%
%TF.CreationDate,2024-02-11T13:34:09-07:00*%
%TF.ProjectId,TunerVCO,54756e65-7256-4434-9f2e-6b696361645f,rev?*%
%TF.SameCoordinates,Original*%
%TF.FileFunction,Profile,NP*%
%FSLAX46Y46*%
G04 Gerber Fmt 4.6, Leading zero omitted, Abs format (unit mm)*
G04 Created by KiCad (PCBNEW 7.0.7) date 2024-02-11 13:34:09*
%MOMM*%
%LPD*%
G01*
G04 APERTURE LIST*
%TA.AperFunction,Profile*%
%ADD10C,0.100000*%
%TD*%
%TA.AperFunction,Profile*%
%ADD11C,0.450000*%
%TD*%
G04 APERTURE END LIST*
D10*
X43815000Y99923600D02*
X43500000Y99923600D01*
X113944400Y0D02*
X113944400Y99923600D01*
X43500000Y0D02*
X113944400Y0D01*
X43500000Y123200D02*
X43500000Y0D01*
X43815000Y99923600D02*
X113944400Y99923600D01*
X43500000Y99825800D02*
X43500000Y99923600D01*
X40800000Y123200D02*
X40800000Y0D01*
X0Y0D02*
X40792400Y0D01*
X43500000Y92731600D02*
X43500000Y7217400D01*
X40800000Y7217400D02*
X40800000Y92731600D01*
X0Y110007400D02*
X0Y110058200D01*
X40800000Y110058200D02*
X0Y110058200D01*
X40800000Y99825800D02*
X40800000Y110058200D01*
X0Y0D02*
X0Y110007400D01*
D11*
X42363600Y4157134D02*
G75*
G03*
X42363600Y4157134I-225000J0D01*
G01*
X42363600Y2159000D02*
G75*
G03*
X42363600Y2159000I-225000J0D01*
G01*
X42363600Y5156200D02*
G75*
G03*
X42363600Y5156200I-225000J0D01*
G01*
X42363600Y3158068D02*
G75*
G03*
X42363600Y3158068I-225000J0D01*
G01*
D10*
X40800000Y7217400D02*
G75*
G03*
X43500000Y7217400I1350000J0D01*
G01*
X43500000Y123200D02*
G75*
G03*
X40800000Y123200I-1350000J0D01*
G01*
D11*
X42363600Y94767400D02*
G75*
G03*
X42363600Y94767400I-225000J0D01*
G01*
X42363600Y95766468D02*
G75*
G03*
X42363600Y95766468I-225000J0D01*
G01*
X42363600Y96765534D02*
G75*
G03*
X42363600Y96765534I-225000J0D01*
G01*
X42363600Y97764600D02*
G75*
G03*
X42363600Y97764600I-225000J0D01*
G01*
D10*
X40800000Y99825800D02*
G75*
G03*
X43500000Y99825800I1350000J0D01*
G01*
X43500000Y92731600D02*
G75*
G03*
X40800000Y92731600I-1350000J0D01*
G01*
M02*
