%TF.GenerationSoftware,KiCad,Pcbnew,7.0.7*%
%TF.CreationDate,2024-02-11T13:34:09-07:00*%
%TF.ProjectId,TunerVCO,54756e65-7256-4434-9f2e-6b696361645f,rev?*%
%TF.SameCoordinates,Original*%
%TF.FileFunction,Soldermask,Bot*%
%TF.FilePolarity,Negative*%
%FSLAX46Y46*%
G04 Gerber Fmt 4.6, Leading zero omitted, Abs format (unit mm)*
G04 Created by KiCad (PCBNEW 7.0.7) date 2024-02-11 13:34:09*
%MOMM*%
%LPD*%
G01*
G04 APERTURE LIST*
G04 Aperture macros list*
%AMRoundRect*
0 Rectangle with rounded corners*
0 $1 Rounding radius*
0 $2 $3 $4 $5 $6 $7 $8 $9 X,Y pos of 4 corners*
0 Add a 4 corners polygon primitive as box body*
4,1,4,$2,$3,$4,$5,$6,$7,$8,$9,$2,$3,0*
0 Add four circle primitives for the rounded corners*
1,1,$1+$1,$2,$3*
1,1,$1+$1,$4,$5*
1,1,$1+$1,$6,$7*
1,1,$1+$1,$8,$9*
0 Add four rect primitives between the rounded corners*
20,1,$1+$1,$2,$3,$4,$5,0*
20,1,$1+$1,$4,$5,$6,$7,0*
20,1,$1+$1,$6,$7,$8,$9,0*
20,1,$1+$1,$8,$9,$2,$3,0*%
G04 Aperture macros list end*
%ADD10C,0.584200*%
%ADD11O,1.600000X1.600000*%
%ADD12C,1.600000*%
%ADD13R,1.600000X1.600000*%
%ADD14RoundRect,0.275000X0.625000X-0.275000X0.625000X0.275000X-0.625000X0.275000X-0.625000X-0.275000X0*%
%ADD15R,1.800000X1.100000*%
%ADD16C,2.540000*%
%ADD17RoundRect,0.381000X0.381000X0.381000X-0.381000X0.381000X-0.381000X-0.381000X0.381000X-0.381000X0*%
%ADD18C,1.524000*%
%ADD19O,1.700000X1.700000*%
%ADD20R,1.700000X1.700000*%
%ADD21R,1.830000X1.930000*%
%ADD22C,2.130000*%
%ADD23R,1.100000X1.800000*%
%ADD24RoundRect,0.275000X-0.275000X-0.625000X0.275000X-0.625000X0.275000X0.625000X-0.275000X0.625000X0*%
%ADD25C,4.000000*%
%ADD26C,1.800000*%
%ADD27O,1.150000X1.800000*%
%ADD28O,1.450000X2.000000*%
%ADD29O,0.800000X0.800000*%
%ADD30R,1.800000X1.800000*%
%ADD31C,1.440000*%
%ADD32R,1.930000X1.830000*%
G04 APERTURE END LIST*
D10*
%TO.C,U304*%
X97457200Y91090000D03*
X97757200Y92715000D03*
X97757200Y89545000D03*
X98982200Y92720000D03*
X98982200Y91090000D03*
X98982200Y89545000D03*
X100297200Y92720000D03*
X100297200Y89545000D03*
X100507200Y91090000D03*
%TD*%
D11*
%TO.C,R309*%
X64952800Y33329800D03*
D12*
X64952800Y40949800D03*
%TD*%
D13*
%TO.C,D202*%
X9677400Y47726600D03*
D11*
X9677400Y40106600D03*
%TD*%
%TO.C,R307*%
X71353600Y33329800D03*
D12*
X71353600Y40949800D03*
%TD*%
D14*
%TO.C,Q303*%
X88898600Y73665000D03*
X86828600Y72395000D03*
D15*
X88898600Y71125000D03*
%TD*%
D12*
%TO.C,R207*%
X24815800Y55397400D03*
D11*
X24815800Y47777400D03*
%TD*%
D12*
%TO.C,C319*%
X80319800Y97588621D03*
D13*
X80319800Y95088621D03*
%TD*%
D11*
%TO.C,R304*%
X62489000Y26573400D03*
D12*
X54869000Y26573400D03*
%TD*%
D11*
%TO.C,R318*%
X92359400Y37012800D03*
D12*
X84739400Y37012800D03*
%TD*%
%TO.C,R216*%
X1854200Y100584000D03*
D11*
X1854200Y92964000D03*
%TD*%
%TO.C,R329*%
X45140800Y77906800D03*
D12*
X52760800Y77906800D03*
%TD*%
D11*
%TO.C,R320*%
X102925800Y35996800D03*
D12*
X110545800Y35996800D03*
%TD*%
%TO.C,C314*%
X99446000Y4145200D03*
D13*
X99446000Y6645200D03*
%TD*%
D11*
%TO.C,R303*%
X62539800Y21518800D03*
D12*
X54919800Y21518800D03*
%TD*%
%TO.C,R215*%
X9271000Y79679800D03*
D11*
X1651000Y79679800D03*
%TD*%
D12*
%TO.C,R204*%
X17907000Y65506600D03*
D11*
X17907000Y57886600D03*
%TD*%
D16*
%TO.C,U202*%
X32054800Y83312000D03*
X32054800Y107442000D03*
X8559800Y83312000D03*
X8559800Y107442000D03*
D17*
X24117300Y82677000D03*
D18*
X21577300Y82677000D03*
X19037300Y82677000D03*
X16497300Y82677000D03*
%TD*%
D11*
%TO.C,R315*%
X89667000Y20020200D03*
D12*
X97287000Y20020200D03*
%TD*%
%TO.C,C306*%
X91749800Y30535800D03*
X91749800Y25535800D03*
%TD*%
D19*
%TO.C,J304*%
X46029800Y49204800D03*
X46029800Y51744800D03*
X46029800Y54284800D03*
X46029800Y56824800D03*
X46029800Y59364800D03*
D20*
X46029800Y61904800D03*
%TD*%
D21*
%TO.C,J206*%
X2000000Y15519400D03*
D22*
X13400000Y15519400D03*
X5100000Y15519400D03*
%TD*%
D11*
%TO.C,R306*%
X74528600Y40924400D03*
D12*
X74528600Y33304400D03*
%TD*%
D11*
%TO.C,R325*%
X76713000Y79049800D03*
D12*
X76713000Y86669800D03*
%TD*%
%TO.C,R201*%
X38963600Y89535000D03*
D11*
X38963600Y81915000D03*
%TD*%
D12*
%TO.C,R202*%
X35839400Y81915000D03*
D11*
X35839400Y89535000D03*
%TD*%
D12*
%TO.C,R205*%
X5003800Y82804000D03*
D11*
X5003800Y90424000D03*
%TD*%
D23*
%TO.C,Q202*%
X12166600Y60788600D03*
D24*
X13436600Y62858600D03*
X14706600Y60788600D03*
%TD*%
D12*
%TO.C,C303*%
X97846312Y67797600D03*
D13*
X100346312Y67797600D03*
%TD*%
D12*
%TO.C,C315*%
X45471512Y96906000D03*
D13*
X47971512Y96906000D03*
%TD*%
D19*
%TO.C,J301*%
X110515400Y2819400D03*
X107975400Y2819400D03*
X110515400Y5359400D03*
X107975400Y5359400D03*
X110515400Y7899400D03*
X107975400Y7899400D03*
X110515400Y10439400D03*
X107975400Y10439400D03*
X110515400Y12979400D03*
D20*
X107975400Y12979400D03*
%TD*%
D12*
%TO.C,C305*%
X62118800Y35920600D03*
X57118800Y35920600D03*
%TD*%
D11*
%TO.C,R314*%
X84739400Y45318600D03*
D12*
X92359400Y45318600D03*
%TD*%
%TO.C,C309*%
X91902200Y10648112D03*
D13*
X91902200Y13148112D03*
%TD*%
D12*
%TO.C,C301*%
X68712000Y68193200D03*
X68712000Y73193200D03*
%TD*%
D11*
%TO.C,R327*%
X72166400Y97515600D03*
D12*
X64546400Y97515600D03*
%TD*%
D11*
%TO.C,R332*%
X93089000Y74671000D03*
D12*
X93089000Y67051000D03*
%TD*%
D11*
%TO.C,R326*%
X73919000Y76763800D03*
D12*
X66299000Y76763800D03*
%TD*%
%TO.C,R210*%
X14173200Y42621200D03*
D11*
X14173200Y50241200D03*
%TD*%
D21*
%TO.C,J209*%
X37841400Y5461000D03*
D22*
X26441400Y5461000D03*
X34741400Y5461000D03*
%TD*%
D25*
%TO.C,RV202*%
X28727200Y75587400D03*
X38227200Y75587400D03*
D26*
X35977200Y68087400D03*
X33477200Y68087400D03*
X30977200Y68087400D03*
%TD*%
D12*
%TO.C,C316*%
X60645600Y88295400D03*
X55645600Y88295400D03*
%TD*%
D11*
%TO.C,R301*%
X63327200Y84688600D03*
D12*
X63327200Y92308600D03*
%TD*%
%TO.C,R212*%
X1803400Y32283400D03*
D11*
X9423400Y32283400D03*
%TD*%
D12*
%TO.C,R213*%
X1854200Y90424000D03*
D11*
X1854200Y82804000D03*
%TD*%
D12*
%TO.C,C302*%
X63200713Y63073200D03*
D13*
X65700713Y63073200D03*
%TD*%
D11*
%TO.C,U302*%
X66908600Y30535800D03*
X69448600Y30535800D03*
X71988600Y30535800D03*
X74528600Y30535800D03*
X77068600Y30535800D03*
X79608600Y30535800D03*
X82148600Y30535800D03*
X84688600Y30535800D03*
X84688600Y22915800D03*
X82148600Y22915800D03*
X79608600Y22915800D03*
X77068600Y22915800D03*
X74528600Y22915800D03*
X71988600Y22915800D03*
X69448600Y22915800D03*
D13*
X66908600Y22915800D03*
%TD*%
D11*
%TO.C,R308*%
X68153200Y40949800D03*
D12*
X68153200Y33329800D03*
%TD*%
D20*
%TO.C,J202*%
X21310600Y61950600D03*
D19*
X21310600Y59410600D03*
X21310600Y56870600D03*
X21310600Y54330600D03*
X21310600Y51790600D03*
X21310600Y49250600D03*
%TD*%
D11*
%TO.C,R328*%
X75265200Y91318000D03*
D12*
X82885200Y91318000D03*
%TD*%
%TO.C,R214*%
X17881600Y48056800D03*
D11*
X17881600Y55676800D03*
%TD*%
D21*
%TO.C,J210*%
X37841400Y15773400D03*
D22*
X26441400Y15773400D03*
X34741400Y15773400D03*
%TD*%
D11*
%TO.C,R324*%
X102925800Y43312000D03*
D12*
X110545800Y43312000D03*
%TD*%
D23*
%TO.C,Q201*%
X12192000Y53930600D03*
D24*
X13462000Y56000600D03*
X14732000Y53930600D03*
%TD*%
D12*
%TO.C,R209*%
X24790400Y32308800D03*
D11*
X24790400Y39928800D03*
%TD*%
D27*
%TO.C,J302*%
X50999000Y97034200D03*
X58749000Y97034200D03*
D28*
X51149000Y93234200D03*
X58599000Y93234200D03*
D29*
X52374000Y94284200D03*
X57374000Y94284200D03*
%TD*%
D11*
%TO.C,R319*%
X84739400Y33837800D03*
D12*
X92359400Y33837800D03*
%TD*%
D21*
%TO.C,J208*%
X37841400Y26085800D03*
D22*
X26441400Y26085800D03*
X34741400Y26085800D03*
%TD*%
D12*
%TO.C,C307*%
X79608600Y20183400D03*
X79608600Y15183400D03*
%TD*%
D11*
%TO.C,R323*%
X102925800Y40187800D03*
D12*
X110545800Y40187800D03*
%TD*%
D11*
%TO.C,R331*%
X87685800Y91089400D03*
D12*
X87685800Y83469400D03*
%TD*%
%TO.C,C313*%
X99446000Y10648112D03*
D13*
X99446000Y13148112D03*
%TD*%
D30*
%TO.C,D201*%
X5003800Y41833800D03*
D26*
X5003800Y44373800D03*
X5003800Y46913800D03*
%TD*%
D12*
%TO.C,R203*%
X24815800Y65379600D03*
D11*
X24815800Y57759600D03*
%TD*%
D12*
%TO.C,C308*%
X79608600Y34208000D03*
X79608600Y39208000D03*
%TD*%
D31*
%TO.C,RV209*%
X7706600Y36524000D03*
X5166600Y36524000D03*
X2626600Y36524000D03*
%TD*%
D11*
%TO.C,D301*%
X82224800Y57942400D03*
D13*
X82224800Y65562400D03*
%TD*%
D11*
%TO.C,R321*%
X102240000Y29977000D03*
D12*
X102240000Y22357000D03*
%TD*%
D31*
%TO.C,RV208*%
X16571200Y36524000D03*
X14031200Y36524000D03*
X11491200Y36524000D03*
%TD*%
D11*
%TO.C,R313*%
X92359400Y42118200D03*
D12*
X84739400Y42118200D03*
%TD*%
%TO.C,R211*%
X17221200Y24028400D03*
D11*
X17221200Y31648400D03*
%TD*%
D12*
%TO.C,C317*%
X59237288Y63047800D03*
D13*
X56737288Y63047800D03*
%TD*%
D11*
%TO.C,R316*%
X97287000Y16616600D03*
D12*
X89667000Y16616600D03*
%TD*%
%TO.C,C304*%
X49792800Y35920600D03*
X54792800Y35920600D03*
%TD*%
D25*
%TO.C,RV203*%
X28727200Y61668200D03*
X38227200Y61668200D03*
D26*
X35977200Y54168200D03*
X33477200Y54168200D03*
X30977200Y54168200D03*
%TD*%
D11*
%TO.C,R322*%
X110545800Y32847200D03*
D12*
X102925800Y32847200D03*
%TD*%
D32*
%TO.C,J204*%
X5461000Y61920600D03*
D22*
X5461000Y50520600D03*
X5461000Y58820600D03*
%TD*%
D11*
%TO.C,R317*%
X97287000Y32313800D03*
D12*
X97287000Y24693800D03*
%TD*%
D11*
%TO.C,R311*%
X80243600Y86644400D03*
D12*
X80243600Y79024400D03*
%TD*%
%TO.C,C312*%
X87544200Y13162200D03*
X82544200Y13162200D03*
%TD*%
D11*
%TO.C,R330*%
X46029800Y66654600D03*
D12*
X46029800Y74274600D03*
%TD*%
D11*
%TO.C,R310*%
X55732600Y30485000D03*
D12*
X63352600Y30485000D03*
%TD*%
%TO.C,R208*%
X36068000Y33832800D03*
D11*
X28448000Y33832800D03*
%TD*%
D19*
%TO.C,J303*%
X46029800Y1925400D03*
X46029800Y4465400D03*
X46029800Y7005400D03*
X46029800Y9545400D03*
X46029800Y12085400D03*
X46029800Y14625400D03*
X46029800Y17165400D03*
X46029800Y19705400D03*
X46029800Y22245400D03*
X46029800Y24785400D03*
X46029800Y27325400D03*
X46029800Y29865400D03*
X46029800Y32405400D03*
D20*
X46029800Y34945400D03*
%TD*%
D11*
%TO.C,R305*%
X71429800Y20325000D03*
D12*
X71429800Y12705000D03*
%TD*%
D11*
%TO.C,R334*%
X74655600Y12679600D03*
D12*
X74655600Y20299600D03*
%TD*%
D11*
%TO.C,R312*%
X83875800Y86644400D03*
D12*
X83875800Y79024400D03*
%TD*%
D21*
%TO.C,J207*%
X2000000Y5384800D03*
D22*
X13400000Y5384800D03*
X5100000Y5384800D03*
%TD*%
D11*
%TO.C,R302*%
X52354400Y84256800D03*
D12*
X59974400Y84256800D03*
%TD*%
%TO.C,C311*%
X82544200Y4272200D03*
X87544200Y4272200D03*
%TD*%
%TO.C,C310*%
X91902200Y4221912D03*
D13*
X91902200Y6721912D03*
%TD*%
D25*
%TO.C,RV204*%
X28702000Y47726600D03*
X38202000Y47726600D03*
D26*
X35952000Y40226600D03*
X33452000Y40226600D03*
X30952000Y40226600D03*
%TD*%
D20*
%TO.C,J201*%
X21310600Y34991200D03*
D19*
X21310600Y32451200D03*
X21310600Y29911200D03*
X21310600Y27371200D03*
X21310600Y24831200D03*
X21310600Y22291200D03*
X21310600Y19751200D03*
X21310600Y17211200D03*
X21310600Y14671200D03*
X21310600Y12131200D03*
X21310600Y9591200D03*
X21310600Y7051200D03*
X21310600Y4511200D03*
X21310600Y1971200D03*
%TD*%
D32*
%TO.C,J203*%
X5410200Y76504800D03*
D22*
X5410200Y65104800D03*
X5410200Y73404800D03*
%TD*%
D11*
%TO.C,R333*%
X76332000Y73182400D03*
D12*
X76332000Y65562400D03*
%TD*%
%TO.C,C318*%
X72202600Y92232400D03*
X67202600Y92232400D03*
%TD*%
D21*
%TO.C,J205*%
X2000000Y25628600D03*
D22*
X13400000Y25628600D03*
X5100000Y25628600D03*
%TD*%
D12*
%TO.C,R206*%
X36118800Y37109400D03*
D11*
X28498800Y37109400D03*
%TD*%
D12*
%TO.C,C320*%
X85780800Y93415400D03*
X85780800Y98415400D03*
%TD*%
D25*
%TO.C,RV201*%
X14543200Y75597400D03*
X24043200Y75597400D03*
D26*
X21793200Y68097400D03*
X19293200Y68097400D03*
X16793200Y68097400D03*
%TD*%
M02*
