M48
; DRILL file {KiCad 7.0.7} date 2024 February 11, Sunday 13:34:06
; FORMAT={3:3/ absolute / metric / suppress leading zeros}
; #@! TF.CreationDate,2024-02-11T13:34:06-07:00
; #@! TF.GenerationSoftware,Kicad,Pcbnew,7.0.7
; #@! TF.FileFunction,MixedPlating,1,2
FMAT,2
METRIC,TZ
; #@! TA.AperFunction,Plated,PTH,ComponentDrill
T1C0.330
; #@! TA.AperFunction,Plated,PTH,ViaDrill
T2C0.400
; #@! TA.AperFunction,Plated,PTH,ComponentDrill
T3C0.550
; #@! TA.AperFunction,Plated,PTH,ComponentDrill
T4C0.750
; #@! TA.AperFunction,Plated,PTH,ComponentDrill
T5C0.762
; #@! TA.AperFunction,Plated,PTH,ComponentDrill
T6C0.800
; #@! TA.AperFunction,Plated,PTH,ComponentDrill
T7C0.850
; #@! TA.AperFunction,Plated,PTH,ComponentDrill
T8C0.900
; #@! TA.AperFunction,Plated,PTH,ComponentDrill
T9C1.000
; #@! TA.AperFunction,Plated,PTH,ComponentDrill
T10C1.220
; #@! TA.AperFunction,Plated,PTH,ComponentDrill
T11C1.420
; #@! TA.AperFunction,Plated,PTH,ComponentDrill
T12C1.430
; #@! TA.AperFunction,Plated,PTH,ComponentDrill
T13C1.981
; #@! TA.AperFunction,NonPlated,NPTH,ComponentDrill
T14C0.800
; #@! TA.AperFunction,NonPlated,NPTH,ComponentDrill
T15C2.000
%
G90
G05
T1
X97457Y91090
X97757Y92715
X97757Y89545
X98982Y92720
X98982Y91090
X98982Y89545
X100297Y92720
X100297Y89545
X100507Y91090
T2
X14021Y44552
X18872Y40107
X19152Y41783
X22708Y39853
X24359Y61468
X28702Y43713
X50043Y95382
X56918Y87024
X58908Y89845
X60660Y91851
X61524Y90023
X62438Y76332
X65117Y84714
X66934Y82225
X67645Y86060
X67772Y79253
X68179Y88143
X69449Y89235
X73436Y87635
X73513Y7777
X74935Y69703
X77627Y89134
X78262Y12654
X80244Y75037
X82885Y7269
X91418Y71279
X91724Y69372
X91902Y78008
X93680Y76916
X94874Y78796
X98227Y41610
X101326Y85197
X106660Y46741
X107117Y40162
X108133Y25227
X108971Y30155
X110444Y94696
X110444Y90886
X111359Y93198
T4
X12167Y61189
X12192Y54331
X13437Y62459
X13462Y55601
X14707Y61189
X14732Y54331
X87229Y72395
X88499Y73665
X88499Y71125
T5
X16497Y82677
X19037Y82677
X21577Y82677
X24117Y82677
T6
X1651Y79680
X1803Y32283
X1854Y100584
X1854Y92964
X1854Y90424
X1854Y82804
X2627Y36524
X5004Y90424
X5004Y82804
X5167Y36524
X7707Y36524
X9271Y79680
X9423Y32283
X9677Y47727
X9677Y40107
X11491Y36524
X14031Y36524
X14173Y50241
X14173Y42621
X16571Y36524
X17221Y31648
X17221Y24028
X17882Y55677
X17882Y48057
X17907Y65507
X17907Y57887
X24790Y39929
X24790Y32309
X24816Y65380
X24816Y57760
X24816Y55397
X24816Y47777
X28448Y33833
X28499Y37109
X35839Y89535
X35839Y81915
X36068Y33833
X36119Y37109
X38964Y89535
X38964Y81915
X45141Y77907
X45472Y96906
X46030Y74275
X46030Y66655
X47972Y96906
X49793Y35921
X52354Y84257
X52761Y77907
X54793Y35921
X54869Y26573
X54920Y21519
X55646Y88295
X55733Y30485
X56737Y63048
X57119Y35921
X59237Y63048
X59974Y84257
X60646Y88295
X62119Y35921
X62489Y26573
X62540Y21519
X63201Y63073
X63327Y92309
X63327Y84689
X63353Y30485
X64546Y97516
X64953Y40950
X64953Y33330
X65701Y63073
X66299Y76764
X66909Y30536
X66909Y22916
X67203Y92232
X68153Y40950
X68153Y33330
X68712Y73193
X68712Y68193
X69449Y30536
X69449Y22916
X71354Y40950
X71354Y33330
X71430Y20325
X71430Y12705
X71989Y30536
X71989Y22916
X72166Y97516
X72203Y92232
X73919Y76764
X74529Y40924
X74529Y33304
X74529Y30536
X74529Y22916
X74656Y20300
X74656Y12680
X75265Y91318
X76332Y73182
X76332Y65562
X76713Y86670
X76713Y79050
X77069Y30536
X77069Y22916
X79609Y39208
X79609Y34208
X79609Y30536
X79609Y22916
X79609Y20183
X79609Y15183
X80244Y86644
X80244Y79024
X80320Y97589
X80320Y95089
X82149Y30536
X82149Y22916
X82225Y65562
X82225Y57942
X82544Y13162
X82544Y4272
X82885Y91318
X83876Y86644
X83876Y79024
X84689Y30536
X84689Y22916
X84739Y45319
X84739Y42118
X84739Y37013
X84739Y33838
X85781Y98415
X85781Y93415
X87544Y13162
X87544Y4272
X87686Y91089
X87686Y83469
X89667Y20020
X89667Y16617
X91750Y30536
X91750Y25536
X91902Y13148
X91902Y10648
X91902Y6722
X91902Y4222
X92359Y45319
X92359Y42118
X92359Y37013
X92359Y33838
X93089Y74671
X93089Y67051
X97287Y32314
X97287Y24694
X97287Y20020
X97287Y16617
X97846Y67798
X99446Y13148
X99446Y10648
X99446Y6645
X99446Y4145
X100346Y67798
X102240Y29977
X102240Y22357
X102926Y43312
X102926Y40188
X102926Y35997
X102926Y32847
X110546Y43312
X110546Y40188
X110546Y35997
X110546Y32847
T8
X5004Y46914
X5004Y44374
X5004Y41834
T9
X16793Y68097
X19293Y68097
X21311Y61951
X21311Y59411
X21311Y56871
X21311Y54331
X21311Y51791
X21311Y49251
X21311Y34991
X21311Y32451
X21311Y29911
X21311Y27371
X21311Y24831
X21311Y22291
X21311Y19751
X21311Y17211
X21311Y14671
X21311Y12131
X21311Y9591
X21311Y7051
X21311Y4511
X21311Y1971
X21793Y68097
X30952Y40227
X30977Y68087
X30977Y54168
X33452Y40227
X33477Y68087
X33477Y54168
X35952Y40227
X35977Y68087
X35977Y54168
X46030Y61905
X46030Y59365
X46030Y56825
X46030Y54285
X46030Y51745
X46030Y49205
X46030Y34945
X46030Y32405
X46030Y29865
X46030Y27325
X46030Y24785
X46030Y22245
X46030Y19705
X46030Y17165
X46030Y14625
X46030Y12085
X46030Y9545
X46030Y7005
X46030Y4465
X46030Y1925
X107975Y12979
X107975Y10439
X107975Y7899
X107975Y5359
X107975Y2819
X110515Y12979
X110515Y10439
X110515Y7899
X110515Y5359
X110515Y2819
T10
X2000Y25629
X2000Y15519
X2000Y5385
X5410Y76505
X5461Y61921
X37841Y26086
X37841Y15773
X37841Y5461
T11
X5100Y25629
X5100Y15519
X5100Y5385
X5410Y73405
X5461Y58821
X34741Y26086
X34741Y15773
X34741Y5461
T12
X5410Y65105
X5461Y50521
X13400Y25629
X13400Y15519
X13400Y5385
X26441Y26086
X26441Y15773
X26441Y5461
T13
X8560Y107442
X8560Y83312
X32055Y107442
X32055Y83312
T14
X52374Y94284
X57374Y94284
T15
X14543Y75597
X24043Y75597
X28702Y47727
X28727Y75587
X28727Y61668
X38202Y47727
X38227Y75587
X38227Y61668
T3
G00X50999Y96709
M15
G01X50999Y97359
M16
G05
G00X58749Y96709
M15
G01X58749Y97359
M16
G05
T7
G00X51149Y92959
M15
G01X51149Y93509
M16
G05
G00X58599Y92959
M15
G01X58599Y93509
M16
G05
T0
M30
